<svg xmlns="http://www.w3.org/2000/svg" width="24" height="24" viewBox="0 0 24 24" fill="none">
  <path d="M14.4987 7.43327V5.8666C14.4987 5.2666 13.9987 4.7666 13.3987 4.7666H2.93203C2.33203 4.7666 1.83203 5.2666 1.83203 5.8666V21.5666C1.83203 22.1666 2.33203 22.6666 2.93203 22.6666H13.3987C13.9987 22.6666 14.4987 22.1666 14.4987 21.5666V16.6999C12.9654 15.7333 11.932 14.0333 11.932 12.0666C11.932 10.0999 12.9654 8.39993 14.4987 7.43327ZM3.66536 11.9666H9.93203L11.5654 15.5333H3.66536V11.9666ZM12.6654 17.2999V20.8666H3.66536V17.2999H12.6654ZM12.6654 7.9666L10.3654 10.1666H3.66536V6.63327H12.6654V7.9666Z" fill="currentColor"/>
  <path d="M12.5656 2.73314V4.0998H3.76562V2.73314C3.76562 1.93314 4.39896 1.2998 5.19896 1.2998H11.1323C11.9323 1.2998 12.5656 1.93314 12.5656 2.73314Z" fill="currentColor"/>
  <path d="M17.3977 7.2666C14.7643 7.2666 12.5977 9.39993 12.5977 12.0333C12.5977 14.6666 14.731 16.8333 17.3977 16.8333C20.031 16.8333 22.1643 14.6999 22.1643 12.0333C22.1643 9.43327 20.031 7.2666 17.3977 7.2666ZM17.731 8.79994C17.731 9.23327 17.0643 9.23327 17.0643 8.79994C17.0643 8.3666 17.731 8.33327 17.731 8.79994ZM13.7643 12.0666C13.7643 11.6333 14.431 11.6333 14.431 12.0666C14.431 12.4999 13.7643 12.4999 13.7643 12.0666ZM14.731 14.3666C14.731 13.9333 15.3977 13.9333 15.3977 14.3666C15.3977 14.8333 14.731 14.8333 14.731 14.3666ZM14.731 9.7666C14.731 9.33327 15.3977 9.29993 15.3977 9.7666C15.3977 10.1999 14.731 10.1999 14.731 9.7666ZM17.0643 15.3333C17.0643 14.8999 17.731 14.8999 17.731 15.3333C17.731 15.7666 17.0643 15.7666 17.0643 15.3333ZM18.8643 12.3999H17.3977C17.1977 12.3999 17.0643 12.2666 17.0643 12.0666V9.9666C17.0643 9.7666 17.1977 9.63327 17.3977 9.63327C17.5977 9.63327 17.731 9.7666 17.731 9.9666V11.7333H18.8643C19.0643 11.7333 19.1977 11.8666 19.1977 12.0666C19.1977 12.2666 19.031 12.3999 18.8643 12.3999ZM19.3643 14.3666C19.3643 13.9333 20.031 13.9333 20.031 14.3666C20.031 14.8333 19.3643 14.7999 19.3643 14.3666ZM19.3643 9.7666C19.3643 9.33327 20.031 9.29993 20.031 9.7666C20.031 10.1999 19.3643 10.1999 19.3643 9.7666ZM20.331 12.0666C20.331 11.6333 20.9977 11.6333 20.9977 12.0666C20.9977 12.4999 20.331 12.4999 20.331 12.0666Z" fill="currentColor"/>
</svg>