<svg width="12" height="15" viewBox="0 0 12 15" fill="none" xmlns="http://www.w3.org/2000/svg">
<path fill-rule="evenodd" clip-rule="evenodd" d="M5.83333 0C6.10947 0 6.33333 0.223853 6.33333 0.5V1.16667C6.33333 1.25871 6.40793 1.33333 6.5 1.33333C6.77613 1.33333 7 1.55719 7 1.83333C7 2.10947 6.77613 2.33333 6.5 2.33333C6.40793 2.33333 6.33333 2.40795 6.33333 2.5V11.8334C6.33333 11.9254 6.40793 12 6.5 12C6.77613 12 7 12.2238 7 12.5C7 12.7762 6.77613 13 6.5 13C6.40793 13 6.33333 13.0746 6.33333 13.1667V13.8334C6.33333 14.1095 6.10947 14.3334 5.83333 14.3334C5.5572 14.3334 5.33333 14.1095 5.33333 13.8334V13.3334C5.33333 13.1492 5.18407 13 5 13H1.83333C0.820813 13 0 12.1792 0 11.1667V3.16667C0 2.15414 0.820813 1.33333 1.83333 1.33333H5C5.18407 1.33333 5.33333 1.18409 5.33333 1V0.5C5.33333 0.223853 5.5572 0 5.83333 0ZM5.33333 2.66667C5.33333 2.48257 5.18407 2.33333 5 2.33333H1.83333C1.37309 2.33333 1 2.70643 1 3.16667V11.1667C1 11.6269 1.37309 12 1.83333 12H5C5.18407 12 5.33333 11.8508 5.33333 11.6667V2.66667ZM8.66667 1.83333C8.66667 1.55719 8.89053 1.33333 9.16667 1.33333H9.83333C10.8459 1.33333 11.6667 2.15414 11.6667 3.16667V3.83333C11.6667 4.10947 11.4428 4.33333 11.1667 4.33333C10.8905 4.33333 10.6667 4.10947 10.6667 3.83333V3.16667C10.6667 2.70643 10.2936 2.33333 9.83333 2.33333H9.16667C8.89053 2.33333 8.66667 2.10947 8.66667 1.83333ZM11.1667 6.00003C11.4428 6.00003 11.6667 6.22383 11.6667 6.50003V7.83336C11.6667 8.10949 11.4428 8.33336 11.1667 8.33336C10.8905 8.33336 10.6667 8.10949 10.6667 7.83336V6.50003C10.6667 6.22383 10.8905 6.00003 11.1667 6.00003ZM11.1667 10C11.4428 10 11.6667 10.2238 11.6667 10.5V11.1667C11.6667 12.1792 10.8459 13 9.83333 13H9.16667C8.89053 13 8.66667 12.7762 8.66667 12.5C8.66667 12.2238 8.89053 12 9.16667 12H9.83333C10.2936 12 10.6667 11.6269 10.6667 11.1667V10.5C10.6667 10.2238 10.8905 10 11.1667 10Z" fill="currentColor"/>
</svg>