<svg xmlns="http://www.w3.org/2000/svg" width="24" height="24" viewBox="0 0 24 24" fill="none">
    <path d="M12.6298 19.3467L16.8485 10.9092C17.0823 10.4417 16.7424 9.89166 16.2196 9.89166H12.704V4.96979C12.704 4.22785 11.7038 3.99174 11.372 4.65535L7.15327 13.0928C6.91951 13.5603 7.25944 14.1104 7.78215 14.1104H11.2978V19.0323C11.2978 19.7742 12.298 20.0104 12.6298 19.3467Z" fill="currentColor"/>
    <path d="M22.3308 5.89178C22.1329 5.55765 21.7016 5.44726 21.3675 5.64512C21.0334 5.84303 20.923 6.27428 21.1209 6.6084V6.60845C22.0843 8.23501 22.5936 10.0989 22.5936 11.9987C22.5936 17.8401 17.8412 22.5924 11.9998 22.5924C9.80083 22.5924 7.70411 21.9262 5.93955 20.6899H6.66339C7.0517 20.6899 7.36652 20.3751 7.36652 19.9868C7.36652 19.5984 7.0517 19.2836 6.66339 19.2836H4.01172C3.62341 19.2836 3.30859 19.5984 3.30859 19.9868V22.6384C3.30859 23.0267 3.62341 23.3416 4.01172 23.3416C4.40003 23.3416 4.71484 23.0267 4.71484 22.6384V21.535C6.79703 23.1327 9.33184 23.9987 11.9998 23.9987C15.2051 23.9987 18.2186 22.7504 20.4851 20.484C22.7516 18.2175 23.9998 15.204 23.9998 11.9987C23.9998 9.8469 23.4227 7.73519 22.3308 5.89178Z" fill="currentColor"/>
    <path d="M1.40625 12C1.40625 6.15858 6.15858 1.40625 12 1.40625C14.199 1.40625 16.2957 2.07244 18.0603 3.30877H17.3364C16.9481 3.30877 16.6333 3.62358 16.6333 4.0119C16.6333 4.40021 16.9481 4.71502 17.3364 4.71502H19.9881C20.3764 4.71502 20.6912 4.40021 20.6912 4.0119V1.36027C20.6912 0.971958 20.3764 0.657145 19.9881 0.657145C19.5997 0.657145 19.2849 0.971958 19.2849 1.36027V2.46375C17.2001 0.863911 14.6614 -0.00224563 11.9896 4.37253e-06C8.80636 0.00267625 5.76558 1.26385 3.51469 3.51474C1.24819 5.78124 0 8.79469 0 12C0 14.1518 0.577125 16.2635 1.66903 18.1069C1.86694 18.441 2.29823 18.5514 2.63231 18.3535C2.96639 18.1556 3.07683 17.7243 2.87892 17.3902C1.9155 15.7636 1.40625 13.8998 1.40625 12Z" fill="currentColor"/>
</svg>