<svg xmlns="http://www.w3.org/2000/svg" width="18" height="18" viewBox="0 0 18 18" fill="none">
  <path opacity="0.3" d="M9.632 13.338C9.738 12.967 9.937 12.63 10.208 12.36L13.366 9.202C13.979 8.589 14.795 8.251 15.664 8.251C15.863 8.251 16.058 8.24 16.25 8.274V6.5C16.25 5.395 15.355 4.5 14.25 4.5H3.75C2.645 4.5 1.75 5.395 1.75 6.5V13C1.75 14.105 2.645 15 3.75 15L9.047 15.25L9.632 13.338Z" fill="white"/>
  <path d="M6.25 4.75V2.25C6.25 1.698 6.698 1.25 7.25 1.25H10.75C11.302 1.25 11.75 1.698 11.75 2.25V4.75" stroke="white" stroke-width="1.5" stroke-linecap="round" stroke-linejoin="round"/>
  <path d="M16.25 7.543V6.75C16.25 5.646 15.355 4.75 14.25 4.75H3.75C2.645 4.75 1.75 5.646 1.75 6.75V13.25C1.75 14.354 2.645 15.25 3.75 15.25H8.307" stroke="white" stroke-width="1.5" stroke-linecap="round" stroke-linejoin="round"/>
  <path opacity="0.3" d="M13.796 15.954L16.957 12.793C17.348 12.403 17.348 11.769 16.957 11.379L16.371 10.793C15.981 10.403 15.348 10.403 14.957 10.793L11.796 13.954L11 16.75L13.796 15.954Z" fill="white"/>
  <path d="M13.796 15.954L16.957 12.793C17.348 12.403 17.348 11.769 16.957 11.379L16.371 10.793C15.981 10.403 15.348 10.403 14.957 10.793L11.796 13.954L11 16.75L13.796 15.954Z" stroke="white" stroke-width="1.5" stroke-linecap="round" stroke-linejoin="round"/>
</svg>
