<svg width="40" height="40" viewBox="0 0 40 40" fill="none">
                  <path
                    d="M12.8173 17.7701H15.8692C16.6641 17.7701 17.3108 17.1234 17.3108 16.3285V15.267C17.3108 14.4721 16.6641 13.8255 15.8692 13.8255H12.8173C12.0224 13.8255 11.3758 14.4721 11.3758 15.267V16.3285C11.3757 17.1234 12.0224 17.7701 12.8173 17.7701ZM12.6257 15.267C12.6257 15.1631 12.7134 15.0755 12.8172 15.0755H15.8691C15.973 15.0755 16.0607 15.1631 16.0607 15.267V16.3285C16.0607 16.4323 15.973 16.5201 15.8691 16.5201H12.8172C12.7134 16.5201 12.6257 16.4323 12.6257 16.3285V15.267ZM9.1632 25.2777H6.11125C5.31641 25.2777 4.66977 25.9244 4.66977 26.7193V27.7809C4.66977 28.5758 5.31641 29.2224 6.11125 29.2224H9.1632C9.95805 29.2224 10.6047 28.5758 10.6047 27.7809V26.7193C10.6047 25.9244 9.95805 25.2777 9.1632 25.2777ZM9.35469 27.7809C9.35469 27.8847 9.26703 27.9724 9.1632 27.9724H6.11125C6.00742 27.9724 5.91977 27.8847 5.91977 27.7809V26.7193C5.91977 26.6155 6.00742 26.5277 6.11125 26.5277H9.1632C9.26703 26.5277 9.35469 26.6155 9.35469 26.7193V27.7809ZM9.1632 19.5516H6.11125C5.31641 19.5516 4.66977 20.1982 4.66977 20.9931V22.0547C4.66977 22.8496 5.31641 23.4963 6.11125 23.4963H9.1632C9.95805 23.4963 10.6047 22.8496 10.6047 22.0547V20.9931C10.6047 20.1982 9.95805 19.5516 9.1632 19.5516ZM9.35469 22.0547C9.35469 22.1585 9.26703 22.2463 9.1632 22.2463H6.11125C6.00742 22.2463 5.91977 22.1585 5.91977 22.0547V20.9931C5.91977 20.8893 6.00742 20.8016 6.11125 20.8016H9.1632C9.26703 20.8016 9.35469 20.8893 9.35469 20.9931V22.0547ZM17.3108 26.7193C17.3108 25.9244 16.6641 25.2777 15.8692 25.2777H12.8173C12.0224 25.2777 11.3758 25.9244 11.3758 26.7193V27.7809C11.3758 28.5758 12.0224 29.2224 12.8173 29.2224H15.8692C16.6641 29.2224 17.3108 28.5758 17.3108 27.7809V26.7193ZM16.0608 27.7809C16.0608 27.8847 15.973 27.9724 15.8692 27.9724H12.8173C12.7134 27.9724 12.6258 27.8847 12.6258 27.7809V26.7193C12.6258 26.6155 12.7134 26.5277 12.8173 26.5277H15.8692C15.973 26.5277 16.0608 26.6155 16.0608 26.7193V27.7809ZM9.1632 13.8255H6.11125C5.31641 13.8255 4.66977 14.4721 4.66977 15.267V16.3285C4.66977 17.1234 5.31641 17.7701 6.11125 17.7701H9.1632C9.95805 17.7701 10.6047 17.1234 10.6047 16.3285V15.267C10.6047 14.4721 9.95805 13.8255 9.1632 13.8255ZM9.35469 16.3285C9.35469 16.4323 9.26703 16.5201 9.1632 16.5201H6.11125C6.00742 16.5201 5.91977 16.4323 5.91977 16.3285V15.267C5.91977 15.1631 6.00742 15.0755 6.11125 15.0755H9.1632C9.26703 15.0755 9.35469 15.1631 9.35469 15.267V16.3285ZM12.8173 23.4963H15.8692C16.6641 23.4963 17.3108 22.8496 17.3108 22.0547V20.9931C17.3108 20.1982 16.6641 19.5516 15.8692 19.5516H12.8173C12.0224 19.5516 11.3758 20.1982 11.3758 20.9931V22.0547C11.3757 22.8496 12.0224 23.4963 12.8173 23.4963ZM12.6257 20.9931C12.6257 20.8893 12.7134 20.8016 12.8172 20.8016H15.8691C15.973 20.8016 16.0607 20.8893 16.0607 20.9931V22.0547C16.0607 22.1585 15.973 22.2463 15.8691 22.2463H12.8172C12.7134 22.2463 12.6257 22.1585 12.6257 22.0547V20.9931ZM38.5778 24.7853C37.4369 22.7821 35.6971 20.518 33.139 17.7122C33.8487 17.3414 34.3346 16.5985 34.3346 15.7438C34.3346 14.6049 33.4721 13.664 32.3662 13.5388L33.9247 11.9802C34.8073 11.0974 34.8073 9.66125 33.9246 8.77859C33.1775 8.03164 31.9895 7.90406 31.1 8.475C31.0329 8.51828 30.973 8.52367 30.8991 8.49289C30.8255 8.46242 30.7868 8.41609 30.7698 8.3382C30.5535 7.34758 29.6887 6.61945 28.6866 6.56117V4.17711C28.6865 1.87383 26.8127 0 24.5095 0H4.17703C1.87375 0 0 1.87383 0 4.17711V30.1437C0 32.447 1.87375 34.3208 4.17703 34.3208H18.2488C18.3078 34.4295 18.3684 34.5378 18.4321 34.6452C20.3976 37.9616 24.1841 40.0002 28.3523 40H28.763C32.931 40 36.7179 37.9614 38.6832 34.6452C40.4688 31.632 40.4305 28.0382 38.5778 24.7853ZM33.0845 15.7438C33.0845 16.2785 32.6495 16.7135 32.1148 16.7135H25.0005C24.4657 16.7135 24.0307 16.2785 24.0307 15.7438C24.0307 15.2091 24.4657 14.7741 25.0005 14.7741H32.1148C32.6495 14.7741 33.0845 15.2092 33.0845 15.7438ZM29.5485 8.605C29.6527 9.08141 29.9705 9.46148 30.4206 9.64781C30.8709 9.83477 31.3648 9.79055 31.7752 9.52703C32.1738 9.27133 32.7062 9.32812 33.0408 9.66266C33.231 9.85289 33.3357 10.1073 33.3357 10.3795C33.3357 10.6516 33.2309 10.9061 33.0407 11.0963L30.613 13.5242H26.5025L24.0746 11.0963C23.8843 10.9061 23.7796 10.6516 23.7796 10.3795C23.7796 10.1073 23.8844 9.85289 24.0746 9.66266C24.409 9.32805 24.9412 9.27094 25.3403 9.52703C25.7507 9.79039 26.2443 9.83438 26.6946 9.64797C27.145 9.46141 27.4629 9.08125 27.5669 8.60484C27.668 8.1418 28.0848 7.8057 28.5577 7.80562C29.0307 7.80555 29.4473 8.14172 29.5485 8.605ZM22.5724 9.93656H5.36102C5.25719 9.93656 5.16945 9.84883 5.16945 9.745V6.53992C5.16945 6.43609 5.25719 6.34844 5.36102 6.34844H23.3254C23.4292 6.34844 23.517 6.43609 23.517 6.53992V8.51062C23.4015 8.58883 23.2918 8.67758 23.1906 8.77875C22.8702 9.09906 22.658 9.49984 22.5724 9.93656ZM4.17703 33.0708C2.56305 33.0708 1.25 31.7577 1.25 30.1437V4.17711C1.25 2.56312 2.56305 1.25 4.17703 1.25H24.5095C26.1234 1.25 27.4365 2.56312 27.4365 4.17711V6.85758C26.8947 7.16937 26.4852 7.69938 26.3457 8.33828C26.3286 8.41625 26.2899 8.46258 26.2164 8.49297C26.1427 8.52375 26.0827 8.51813 26.0154 8.47508C25.6346 8.2307 25.1992 8.11531 24.767 8.12062V6.53992C24.767 5.74508 24.1204 5.09844 23.3255 5.09844H5.36102C4.56609 5.09844 3.91945 5.74508 3.91945 6.53992V9.74492C3.91945 10.5398 4.56609 11.1865 5.36102 11.1865H22.677C22.7888 11.4812 22.9618 11.7512 23.1906 11.9802L24.7493 13.5388C24.2559 13.5946 23.8112 13.8128 23.4698 14.1386C23.2237 13.9431 22.9132 13.8254 22.5752 13.8254H19.5234C18.7284 13.8254 18.0818 14.472 18.0818 15.2669V16.3284C18.0818 17.1234 18.7284 17.77 19.5234 17.77H22.5752C22.9419 17.77 23.2759 17.6313 23.5306 17.4051C23.6656 17.5247 23.8152 17.6279 23.9763 17.7121C23.3926 18.3523 22.8516 18.9643 22.3505 19.5515H19.5233C18.7284 19.5515 18.0817 20.1981 18.0817 20.993V22.0547C18.0817 22.7872 18.6313 23.3926 19.3396 23.4832C19.0445 23.9305 18.7775 24.3638 18.5374 24.7853C16.998 27.4881 16.7126 30.4259 17.6838 33.0708H4.17703ZM22.7668 15.267V16.3285C22.7668 16.4323 22.6791 16.5201 22.5752 16.5201H19.5234C19.4195 16.5201 19.3318 16.4323 19.3318 16.3285V15.267C19.3318 15.1631 19.4195 15.0755 19.5234 15.0755H22.5752C22.6791 15.0755 22.7668 15.1631 22.7668 15.267ZM20.2024 22.2463H19.5234C19.4195 22.2463 19.3318 22.1585 19.3318 22.0547V20.9931C19.3318 20.8893 19.4195 20.8016 19.5234 20.8016H21.314C20.913 21.3005 20.5431 21.7813 20.2024 22.2463ZM37.6079 34.0079C35.8673 36.945 32.4914 38.75 28.7632 38.75C28.6947 38.75 28.4206 38.75 28.3521 38.75C24.6242 38.75 21.2479 36.9448 19.5074 34.0079C17.9342 31.3533 17.9755 28.2977 19.6235 25.4039C20.796 23.3454 22.6483 20.9767 25.443 17.9636H31.672C34.4668 20.9767 36.3191 23.3455 37.4916 25.4039C39.1397 28.2977 39.181 31.3533 37.6079 34.0079ZM31.9006 30.3005C31.9838 30.9861 31.7998 31.6122 31.3684 32.111C30.8774 32.6787 30.0712 33.0634 29.1523 33.1827V33.8163C29.1523 34.1615 28.8724 34.4413 28.5273 34.4413C28.1821 34.4413 27.9023 34.1615 27.9023 33.8163V33.1734C26.5286 32.9625 25.4648 32.0801 25.1527 30.8284C25.0692 30.4934 25.273 30.1542 25.6079 30.0707C25.9428 29.9877 26.282 30.191 26.3655 30.5259C26.6288 31.5821 27.6669 31.9616 28.5201 31.9717C28.5281 31.9714 28.5363 31.9716 28.5443 31.9719C28.572 31.9719 28.5984 31.9718 28.6251 31.971C29.3767 31.9531 30.0823 31.687 30.423 31.2933C30.623 31.062 30.7005 30.7866 30.6598 30.4513C30.5618 29.644 29.8753 29.1784 28.4339 28.9417C26.0297 28.547 25.4693 27.3182 25.4227 26.3567C25.358 25.0252 26.2872 23.91 27.7349 23.5816C27.79 23.5691 27.8459 23.5579 27.9023 23.5479V22.8957C27.9023 22.5505 28.1822 22.2707 28.5273 22.2707C28.8725 22.2707 29.1523 22.5505 29.1523 22.8957V23.5425C30.1606 23.7099 31.1462 24.3072 31.644 25.4927C31.7777 25.8109 31.628 26.1773 31.3097 26.3109C30.992 26.4445 30.6252 26.295 30.4915 25.9766C30.1226 25.0982 29.3323 24.7411 28.5685 24.7391C28.5461 24.7405 28.5233 24.7408 28.5004 24.7398C28.334 24.744 28.1695 24.7648 28.0115 24.8006C27.3359 24.9538 26.6291 25.4272 26.6712 26.2961C26.6859 26.5965 26.7246 27.3944 28.6365 27.7081C29.3807 27.8304 31.6459 28.2023 31.9006 30.3005Z"
                    fill="currentColor"></path>
              </svg>