<svg xmlns="http://www.w3.org/2000/svg" width="17" height="21" viewBox="0 0 17 21" fill="none">
  <path d="M0.498087 15.5097H2.98832V17.0039C2.98832 17.2789 3.21131 17.5019 3.48636 17.5019H16.502C16.777 17.5019 17 17.2789 17 17.0039V4.05468C17 3.77963 16.777 3.55664 16.502 3.55664H14.0117V3.05859C14.0117 2.78354 13.7887 2.56055 13.5137 2.56055C13.2386 2.56055 13.0156 2.78354 13.0156 3.05859V3.55664H10.4922V3.05859C10.4922 2.78354 10.2692 2.56055 9.99416 2.56055C9.7191 2.56055 9.49611 2.78354 9.49611 3.05859V3.55664H7.00588V3.05859C7.00588 2.78354 6.78289 2.56055 6.50784 2.56055C6.23278 2.56055 6.00979 2.78354 6.00979 3.05859V3.55664H3.48636C3.21131 3.55664 2.98832 3.77963 2.98832 4.05468V7.04296C2.98832 10.7136 1.4628 13.5373 0.179238 14.6291C0.0181372 14.7633 -0.0415951 14.9841 0.0297583 15.1813C0.101178 15.3784 0.288377 15.5097 0.498087 15.5097ZM16.0039 16.5058H3.98441V15.5097H13.5137C13.6302 15.5097 13.743 15.4689 13.8325 15.3943C14.4312 14.8956 15.3586 13.7083 16.0039 12.1877V16.5058ZM3.98441 4.55273H6.00979V5.05078C6.00979 5.32583 6.23278 5.54882 6.50784 5.54882C6.78289 5.54882 7.00588 5.32583 7.00588 5.05078V4.55273H9.49611V5.05078C9.49611 5.32583 9.7191 5.54882 9.99416 5.54882C10.2692 5.54882 10.4922 5.32583 10.4922 5.05078V4.55273H13.0156V5.05078C13.0156 5.32583 13.2386 5.54882 13.5137 5.54882C13.7887 5.54882 14.0117 5.32583 14.0117 5.05078V4.55273H16.0039V6.54491H3.98441V4.55273ZM3.97587 7.54067H15.9951C15.8829 10.7001 14.6702 13.186 13.3184 14.5136H1.63094C3.1627 12.5619 3.8937 10.0207 3.97587 7.54067Z" fill="currentColor"/>
</svg>