<svg xmlns="http://www.w3.org/2000/svg" width="16" height="16" viewBox="0 0 16 16" fill="none">
  <g clip-path="url(#clip0_16176_166307)">
    <path d="M12.1646 10.5834C11.6418 10.0673 10.9893 10.0673 10.4699 10.5834C10.0737 10.9762 9.67747 11.3691 9.28793 11.7686C9.18139 11.8785 9.09149 11.9018 8.96164 11.8286C8.70527 11.6887 8.43226 11.5755 8.18588 11.4224C7.03722 10.6999 6.07501 9.77097 5.22267 8.72552C4.79983 8.20613 4.4236 7.65011 4.16058 7.02417C4.10731 6.89765 4.11729 6.81442 4.22051 6.7112C4.61671 6.32832 5.00293 5.93544 5.39247 5.54257C5.93517 4.99654 5.93517 4.35728 5.38914 3.80792C5.07951 3.49495 4.76987 3.18865 4.46023 2.87568C4.1406 2.55605 3.8243 2.23309 3.50135 1.9168C2.97862 1.40739 2.32605 1.40739 1.80666 1.92012C1.40712 2.313 1.02424 2.71586 0.618043 3.10208C0.241816 3.45833 0.0520369 3.89449 0.0120835 4.40389C-0.051176 5.23293 0.15192 6.01535 0.438253 6.77779C1.02424 8.35595 1.91653 9.75765 2.9986 11.0428C4.46023 12.7808 6.20486 14.1559 8.24581 15.148C9.16474 15.5942 10.117 15.9371 11.1524 15.9937C11.8649 16.0337 12.4842 15.8539 12.9803 15.2979C13.3199 14.9183 13.7028 14.572 14.0624 14.2091C14.5951 13.6698 14.5984 13.0172 14.069 12.4845C13.4364 11.8485 12.8005 11.2159 12.1646 10.5834Z" fill="currentColor"/>
    <path d="M11.5286 7.92979L12.7571 7.72003C12.564 6.59135 12.0313 5.56921 11.2222 4.75682C10.3666 3.90116 9.28451 3.36178 8.09256 3.19531L7.91943 4.43054C8.84169 4.56039 9.68071 4.97657 10.3433 5.63913C10.9692 6.26506 11.3787 7.05747 11.5286 7.92979Z" fill="currentColor"/>
    <path d="M13.4496 2.59031C12.0312 1.17197 10.2367 0.276344 8.25565 0L8.08252 1.23523C9.79386 1.47495 11.3454 2.25071 12.5706 3.47262C13.7326 4.63459 14.495 6.10288 14.7714 7.71766L15.9999 7.50791C15.677 5.63676 14.7947 3.93874 13.4496 2.59031Z" fill="currentColor"/>
  </g>
  <defs>
    <clipPath id="clip0_16176_166307">
      <rect width="16" height="16" fill="currentColor"/>
    </clipPath>
  </defs>
</svg>
