<svg xmlns="http://www.w3.org/2000/svg" width="32" height="32" viewBox="0 0 32 32" fill="none">
  <path d="M5.97061 25.0207C6.23621 25.0207 6.45061 24.8063 6.45061 24.5407V15.8335H8.46661V5.75031H6.45061V2.01271C6.45061 1.74711 6.23621 1.53271 5.97061 1.53271C5.70501 1.53271 5.49061 1.74711 5.49061 2.01271V5.75031H3.47461V15.8335H5.49061V24.5407C5.49061 24.8063 5.70501 25.0207 5.97061 25.0207Z" fill="currentColor"/>
  <path d="M12.6562 6.41919C12.3906 6.41919 12.1762 6.63359 12.1762 6.89919V11.5456H10.1602V17.664H12.1762V19.6576C12.1762 19.9232 12.3906 20.1376 12.6562 20.1376C12.9218 20.1376 13.1362 19.9232 13.1362 19.6576V17.664H15.1522V11.5456H13.1362V6.89919C13.1362 6.63359 12.9218 6.41919 12.6562 6.41919Z" fill="currentColor"/>
  <path d="M26.0285 22.6367C26.2941 22.6367 26.5085 22.4223 26.5085 22.1567V14.2591H28.5245V2.81909H23.5293V14.2591H25.5453V22.1567C25.5453 22.4223 25.7597 22.6367 26.0253 22.6367H26.0285Z" fill="currentColor"/>
  <path d="M19.3437 5.51367C19.0781 5.51367 18.8637 5.72807 18.8637 5.99367V11.3793H16.8477V28.0929H18.8637V29.9873C18.8637 30.2529 19.0781 30.4673 19.3437 30.4673C19.6093 30.4673 19.8237 30.2529 19.8237 29.9873V28.0929H21.8397V11.3793H19.8237V5.99367C19.8237 5.72807 19.6093 5.51367 19.3437 5.51367Z" fill="currentColor"/>
</svg>
