<svg xmlns="http://www.w3.org/2000/svg" width="24" height="24" viewBox="0 0 24 24" fill="none">
    <path d="M22.5 17.6249V14.6249C22.5037 12.4855 21.8491 10.3968 20.625 8.64218V7.12493C20.6256 6.88788 20.5511 6.65672 20.4123 6.46462C20.2734 6.27251 20.0772 6.12934 19.8519 6.05562C19.6266 5.98191 19.3837 5.98145 19.1582 6.05431C18.9326 6.12717 18.7359 6.2696 18.5963 6.46118C17.3133 5.4223 15.8026 4.70191 14.1877 4.35893C14.072 3.86556 13.7928 3.4258 13.3957 3.11104C12.9985 2.79628 12.5066 2.625 11.9998 2.625C11.493 2.625 11.0011 2.79628 10.604 3.11104C10.2068 3.4258 9.92766 3.86556 9.81188 4.35893C8.19723 4.70213 6.68671 5.4225 5.40375 6.46118C5.26413 6.2696 5.06743 6.12717 4.84185 6.05431C4.61627 5.98145 4.37341 5.98191 4.14811 6.05562C3.92281 6.12934 3.72664 6.27251 3.58775 6.46462C3.44886 6.65672 3.37438 6.88788 3.375 7.12493V8.64218C2.15092 10.3968 1.49631 12.4855 1.5 14.6249V17.6249C1.20163 17.6249 0.915483 17.7435 0.704505 17.9544C0.493526 18.1654 0.375 18.4516 0.375 18.7499V20.2499C0.375 20.5483 0.493526 20.8344 0.704505 21.0454C0.915483 21.2564 1.20163 21.3749 1.5 21.3749H22.5C22.7984 21.3749 23.0845 21.2564 23.2955 21.0454C23.5065 20.8344 23.625 20.5483 23.625 20.2499V18.7499C23.625 18.4516 23.5065 18.1654 23.2955 17.9544C23.0845 17.7435 22.7984 17.6249 22.5 17.6249ZM21.6788 13.4999H14.9741C14.8989 12.9052 14.6466 12.3467 14.25 11.8972V5.14081C15.7753 5.50199 17.1906 6.22686 18.375 7.25356V11.6249C18.375 11.7244 18.4145 11.8198 18.4848 11.8901C18.5552 11.9604 18.6505 11.9999 18.75 11.9999H20.25C20.3495 11.9999 20.4448 11.9604 20.5152 11.8901C20.5855 11.8198 20.625 11.7244 20.625 11.6249V10.0852C21.1859 11.1478 21.5433 12.306 21.6788 13.4999ZM12 11.6249C12.445 11.6249 12.88 11.7569 13.25 12.0041C13.62 12.2514 13.9084 12.6028 14.0787 13.0139C14.249 13.425 14.2936 13.8774 14.2068 14.3139C14.12 14.7503 13.9057 15.1513 13.591 15.4659C13.2763 15.7806 12.8754 15.9949 12.439 16.0817C12.0025 16.1685 11.5501 16.124 11.139 15.9537C10.7278 15.7834 10.3764 15.495 10.1292 15.125C9.88196 14.755 9.75 14.3199 9.75 13.8749C9.7506 13.2784 9.98784 12.7064 10.4097 12.2846C10.8315 11.8628 11.4034 11.6255 12 11.6249ZM19.125 7.12493C19.125 7.02548 19.1645 6.93009 19.2348 6.85977C19.3052 6.78944 19.4005 6.74993 19.5 6.74993C19.5995 6.74993 19.6948 6.78944 19.7652 6.85977C19.8355 6.93009 19.875 7.02548 19.875 7.12493V11.2499H19.125V7.12493ZM12 3.37493C12.3978 3.37493 12.7794 3.53297 13.0607 3.81427C13.342 4.09558 13.5 4.47711 13.5 4.87493V11.2807C13.0448 11.015 12.5271 10.8749 12 10.8749C11.4729 10.8749 10.9552 11.015 10.5 11.2807V4.87493C10.5 4.47711 10.658 4.09558 10.9393 3.81427C11.2206 3.53297 11.6022 3.37493 12 3.37493ZM4.125 7.12493C4.125 7.02548 4.16451 6.93009 4.23484 6.85977C4.30516 6.78944 4.40054 6.74993 4.5 6.74993C4.59946 6.74993 4.69484 6.78944 4.76516 6.85977C4.83549 6.93009 4.875 7.02548 4.875 7.12493V11.2499H4.125V7.12493ZM3.75 11.9999H5.25C5.34946 11.9999 5.44484 11.9604 5.51516 11.8901C5.58549 11.8198 5.625 11.7244 5.625 11.6249V7.25318C6.80956 6.22674 8.22479 5.50202 9.75 5.14081V11.8972C9.35336 12.3467 9.10106 12.9052 9.02588 13.4999H2.32125C2.45669 12.306 2.81407 11.1478 3.375 10.0852V11.6249C3.375 11.7244 3.41451 11.8198 3.48484 11.8901C3.55516 11.9604 3.65054 11.9999 3.75 11.9999ZM2.25 14.6249C2.25 14.4993 2.25975 14.3748 2.26425 14.2499H9.02588C9.11668 14.9747 9.46899 15.6413 10.0166 16.1247C10.5643 16.608 11.2696 16.8747 12 16.8747C12.7304 16.8747 13.4357 16.608 13.9834 16.1247C14.531 15.6413 14.8833 14.9747 14.9741 14.2499H21.7358C21.7403 14.3748 21.75 14.4993 21.75 14.6249V17.6249H2.25V14.6249ZM22.875 20.2499C22.875 20.3494 22.8355 20.4448 22.7652 20.5151C22.6948 20.5854 22.5995 20.6249 22.5 20.6249H1.5C1.40054 20.6249 1.30516 20.5854 1.23483 20.5151C1.16451 20.4448 1.125 20.3494 1.125 20.2499V18.7499C1.125 18.6505 1.16451 18.5551 1.23483 18.4848C1.30516 18.4144 1.40054 18.3749 1.5 18.3749H22.5C22.5995 18.3749 22.6948 18.4144 22.7652 18.4848C22.8355 18.5551 22.875 18.6505 22.875 18.7499V20.2499Z" fill="currentColor"/>
</svg>
