<svg xmlns="http://www.w3.org/2000/svg" width="16" height="16" viewBox="0 0 16 16" fill="none">
  <g clip-path="url(#clip0_16176_166319)">
    <path d="M9.90625 0.96875H1.40625C0.628094 0.96875 0 1.59684 0 2.375V8C0 8.77809 0.628094 9.40625 1.40625 9.40625H1.875V10.8125C1.875 11.1512 2.22566 11.3964 2.56875 11.225C2.57812 11.2156 2.59691 11.2156 2.60628 11.2062C5.18491 9.477 4.607 9.86256 5.18441 9.48122C5.25938 9.43434 5.34375 9.40625 5.4375 9.40625H9.90625C10.6844 9.40625 11.3125 8.77809 11.3125 8V2.375C11.3125 1.59684 10.6844 0.96875 9.90625 0.96875ZM6.15625 6.59375H2.34375C1.72584 6.59375 1.72331 5.65625 2.34375 5.65625H6.15625C6.77416 5.65625 6.77669 6.59375 6.15625 6.59375ZM8.96875 4.71875H2.34375C1.72584 4.71875 1.72331 3.78125 2.34375 3.78125H8.96875C9.58666 3.78125 9.58919 4.71875 8.96875 4.71875Z" fill="currentColor"/>
    <path d="M14.5938 4.71875H12.25V8C12.25 9.29375 11.2 10.3438 9.90625 10.3438H5.57812L4.6875 10.9344V11.75C4.6875 12.5281 5.31559 13.1562 6.09375 13.1562H10.7031L13.3937 14.9562C13.761 15.1601 14.125 14.9122 14.125 14.5625V13.1562H14.5938C15.3719 13.1562 16 12.5281 16 11.75V6.125C16 5.34688 15.3719 4.71875 14.5938 4.71875Z" fill="currentColor"/>
  </g>
  <defs>
    <clipPath id="clip0_16176_166319">
      <rect width="16" height="16" fill="currentColor"/>
    </clipPath>
  </defs>
</svg>
