<svg xmlns="http://www.w3.org/2000/svg" width="12" height="12" viewBox="0 0 12 12" fill="none">
  <g clip-path="url(#clip0_16040_54024)">
    <path fill-rule="evenodd" clip-rule="evenodd" d="M3.62178 8.91143C6.0232 6.51002 7.97249 4.56063 10.3739 2.15931C10.4145 2.11868 10.4811 2.11887 10.5215 2.15931L10.7081 2.34583L11.1114 2.7492L11.2999 2.9377C11.3403 2.97814 11.3405 3.04457 11.2999 3.0852C8.89847 5.48661 6.94918 7.436 4.54777 9.83742C4.50714 9.87795 4.4409 9.87795 4.40027 9.83742L4.21366 9.6508L3.81029 9.24743L3.62178 9.05893C3.58115 9.0183 3.58115 8.95206 3.62178 8.91143Z" fill="currentColor"/>
    <path fill-rule="evenodd" clip-rule="evenodd" d="M4.4002 9.83595C1.99878 7.43453 3.10174 8.53749 0.700323 6.13607C0.659694 6.09544 0.659883 6.02892 0.700323 5.98848L0.886938 5.80196L1.29031 5.39859L1.47872 5.21009C1.51916 5.16965 1.58568 5.16946 1.62631 5.21009C4.02773 7.61151 2.92476 6.50855 5.32609 8.90996C5.36672 8.95059 5.36672 9.01683 5.32609 9.05746L5.13947 9.24407L4.7362 9.64744L4.54769 9.83595C4.50706 9.87648 4.44083 9.87648 4.4002 9.83595Z" fill="currentColor"/>
  </g>
  <defs>
    <clipPath id="clip0_16040_54024">
      <rect width="12" height="12" fill="white"/>
    </clipPath>
  </defs>
</svg>