<svg width="24" height="24" viewBox="0 0 24 24" fill="none" xmlns="http://www.w3.org/2000/svg">
<path d="M13.6044 16.9094C13.359 16.9323 13.1127 16.8769 12.9007 16.7512C12.7458 16.5922 12.6716 16.3715 12.6989 16.1512C12.7046 15.9679 12.7265 15.7853 12.7644 15.6058C12.801 15.3998 12.8483 15.1959 12.9062 14.9949L13.5498 12.7803C13.6162 12.5617 13.66 12.3369 13.6807 12.1094C13.6807 11.8639 13.7134 11.6948 13.7134 11.5967C13.7271 11.1592 13.5403 10.7394 13.2062 10.4567C12.7951 10.1411 12.2832 9.986 11.7662 10.0203C11.3956 10.0259 11.0279 10.0865 10.6752 10.2003C10.2898 10.3203 9.88431 10.4639 9.45888 10.6312L9.27344 11.3512C9.39887 11.3076 9.55164 11.2585 9.72616 11.2039C9.89266 11.1546 10.0653 11.1289 10.2389 11.1276C10.4824 11.1012 10.7276 11.161 10.9316 11.2967C11.0702 11.462 11.1352 11.6768 11.1116 11.8912C11.111 12.0747 11.0909 12.2575 11.0516 12.4367C11.0134 12.6276 10.9643 12.8294 10.9043 13.0421L10.2552 15.2675C10.2029 15.4744 10.1611 15.6837 10.1298 15.8948C10.1043 16.0755 10.0915 16.2578 10.0916 16.4403C10.0889 16.8807 10.2903 17.2977 10.637 17.5693C11.0544 17.8898 11.5736 18.0487 12.0988 18.0166C12.4687 18.0242 12.8373 17.9708 13.1898 17.8584C13.4988 17.7529 13.9116 17.6021 14.428 17.4057L14.6025 16.7184C14.4626 16.7764 14.3186 16.8238 14.1716 16.8602C13.9857 16.9027 13.7948 16.9192 13.6044 16.9094Z" fill="currentColor"/>
<path d="M14.2865 6.40958C13.9897 6.13695 13.5985 5.99028 13.1956 6.0005C12.7929 5.99141 12.4021 6.13794 12.1047 6.40958C11.5594 6.87973 11.4985 7.70291 11.9687 8.2482C12.0106 8.29681 12.0561 8.34223 12.1047 8.38414C12.7259 8.93975 13.6653 8.93975 14.2865 8.38414C14.8317 7.90934 14.8889 7.08247 14.4141 6.53722C14.3746 6.4918 14.3319 6.44914 14.2865 6.40958Z" fill="currentColor"/>
<path d="M12 0C5.37258 0 0 5.37258 0 12C0 18.6274 5.37258 24 12 24C18.6274 24 24 18.6274 24 12C24 5.37258 18.6274 0 12 0ZM12 22.9091C5.97506 22.9091 1.09092 18.0249 1.09092 12C1.09092 5.97506 5.97506 1.09092 12 1.09092C18.0249 1.09092 22.9091 5.97506 22.9091 12C22.9091 18.0249 18.0249 22.9091 12 22.9091Z" fill="currentColor"/>
</svg>
