<svg width="32" height="28" viewBox="0 0 32 28" fill="none" xmlns="http://www.w3.org/2000/svg">
<path fill-rule="evenodd" clip-rule="evenodd" d="M13.8722 27.7443C6.22003 27.7443 0 21.5235 0 13.8722C0 6.22077 6.22003 0 13.8722 0C17.3808 0 20.6739 1.27412 23.2391 3.62601C22.3841 4.13297 21.5598 4.69005 20.7706 5.29433C18.8177 3.71718 16.3823 2.85874 13.8722 2.86272C7.80788 2.86272 2.86272 7.80788 2.86272 13.8722C2.86272 19.9364 7.80788 24.8809 13.8722 24.8809C22.3097 24.8809 27.3191 15.8616 23.6901 8.84948C24.404 8.1854 25.1433 7.5491 25.9062 6.94198C27.1205 9.03846 27.7443 11.4162 27.7443 13.8714C27.7443 21.5235 21.5243 27.7443 13.8722 27.7443Z" fill="currentColor"/>
<path fill-rule="evenodd" clip-rule="evenodd" d="M14.2366 21.0031C14.1633 21.002 14.092 20.9792 14.0317 20.9375C13.9714 20.8959 13.9248 20.8373 13.8978 20.7691C13.8719 20.7174 11.6337 14.9389 8.17233 12.7523C7.49541 12.336 6.97498 11.8938 7.18315 10.9046C7.39132 9.94201 8.04167 9.39501 9.21319 9.13516C11.2949 8.69225 13.5338 11.9196 14.3658 13.2469C17.2817 9.00524 23.1112 2.3423 31.596 1.56129C32.0049 1.5133 32.157 2.1201 31.7783 2.28989C31.6484 2.34156 19.5199 7.8854 14.6005 20.7949C14.5638 20.8588 14.5107 20.9117 14.4467 20.9483C14.3828 20.9849 14.3103 21.0038 14.2366 21.0031Z" fill="currentColor"/>
</svg>
