<svg xmlns="http://www.w3.org/2000/svg" width="15" height="17" viewBox="0 0 15 17" fill="none">
  <path d="M14.1486 3.56184L12.4693 1.88248C12.2252 1.63839 11.8295 1.63839 11.5854 1.88248C11.3413 2.12657 11.3413 2.52229 11.5854 2.76635L11.9831 3.1641L11.1675 3.97978C10.1057 3.09397 8.81461 2.55923 7.43743 2.43476V1.28124H7.99993C8.34511 1.28124 8.62492 1.00143 8.62492 0.656244C8.62492 0.31106 8.34511 0.03125 7.99993 0.03125H5.62495C5.27976 0.03125 4.99995 0.31106 4.99995 0.656244C4.99995 1.00143 5.27976 1.28124 5.62495 1.28124H6.18744V2.43476C2.7586 2.74463 0 5.62395 0 9.21866C0 12.9837 3.04688 16.0311 6.81244 16.0311C10.5775 16.0311 13.6249 12.9842 13.6249 9.21866C13.6249 7.60896 13.07 6.08476 12.0513 4.86364L12.867 4.04796L13.2648 4.44571C13.5088 4.68977 13.9045 4.6898 14.1486 4.44571C14.3927 4.20165 14.3927 3.80593 14.1486 3.56184ZM6.81244 14.7811C3.74531 14.7811 1.24999 12.2858 1.24999 9.21866C1.24999 6.15154 3.74531 3.65622 6.81244 3.65622C9.87956 3.65622 12.3749 6.15154 12.3749 9.21866C12.3749 12.2858 9.87959 14.7811 6.81244 14.7811ZM10.06 9.21866C10.06 9.56385 9.78019 9.84366 9.43501 9.84366H6.81247C6.46728 9.84366 6.18747 9.56385 6.18747 9.21866V5.54135C6.18747 5.19617 6.46728 4.91636 6.81247 4.91636C7.15765 4.91636 7.43746 5.19617 7.43746 5.54135V8.59367H9.43501C9.78019 8.59367 10.06 8.87348 10.06 9.21866Z" fill="currentColor"/>
</svg>