<svg xmlns="http://www.w3.org/2000/svg" width="24" height="21" viewBox="0 0 24 21" fill="none">
  <path d="M19.9459 3.79555C19.4759 3.79494 19.0096 3.87819 18.5689 4.04104C17.8743 1.968 16.094 0.446163 13.9381 0.0826753C11.7824 -0.281015 9.60151 0.572445 8.26536 2.303C7.08357 1.53238 5.57466 1.47116 4.33427 2.14338C3.09409 2.8156 2.32165 4.11337 2.32226 5.52429C2.32226 5.57298 2.32367 5.62248 2.32589 5.6732C0.80385 6.08215 -0.179325 7.5557 0.0273722 9.11815C0.234069 10.6804 1.56679 11.8476 3.14278 11.8466H19.9459C21.3909 11.8569 22.7305 11.092 23.4561 9.8423C24.1816 8.59242 24.1816 7.04976 23.4561 5.79988C22.7305 4.5502 21.3909 3.78524 19.9459 3.79555ZM19.9459 11.1225H3.14278C1.87956 11.1243 0.828097 10.1526 0.730506 8.89327C0.632916 7.63389 1.52194 6.51191 2.7702 6.31895C2.96397 6.28905 3.09853 6.11043 3.07429 5.91606C2.91265 4.65466 3.53355 3.42155 4.643 2.80005C5.75246 2.17854 7.12822 2.2929 8.11968 3.08938C8.19848 3.15262 8.30011 3.1801 8.40012 3.16515C8.50014 3.1502 8.58924 3.09403 8.64602 3.01038C9.79023 1.31781 11.8198 0.452629 13.8333 0.798943C15.8467 1.14505 17.4706 2.63861 17.9838 4.61607C18.1505 5.44448 18.1236 6.30016 17.9048 7.11624C17.8441 7.30495 17.9466 7.50721 18.1343 7.57025C18.3222 7.63329 18.5259 7.53347 18.5913 7.34658C18.8293 6.50362 18.8809 5.61885 18.7419 4.75407C19.1245 4.60011 19.5331 4.5205 19.9457 4.51929C21.1313 4.51 22.2311 5.13716 22.8265 6.16236C23.4221 7.18776 23.4221 8.45361 22.8265 9.47901C22.2311 10.5042 21.1313 11.1314 19.9457 11.1221L19.9459 11.1225ZM17.7427 17.2575C16.961 17.2575 16.3274 17.8912 16.3274 18.6729C16.3274 19.4546 16.961 20.0883 17.7427 20.0883C18.5244 20.0883 19.1581 19.4546 19.1581 18.6729C19.1573 17.8916 18.524 17.2583 17.7427 17.2575ZM17.7427 19.3641C17.361 19.3641 17.0515 19.0546 17.0515 18.6729C17.0515 18.291 17.361 17.9817 17.7427 17.9817C18.1246 17.9817 18.4339 18.291 18.4339 18.6729C18.4335 19.0544 18.1244 19.3637 17.7427 19.3641ZM2.83365 15.4237C2.05171 15.4235 1.41788 16.0574 1.41788 16.8393C1.41808 17.621 2.05212 18.2549 2.83385 18.2544C3.61578 18.2542 4.24921 17.6202 4.2488 16.8383C4.24739 16.0574 3.61457 15.4247 2.83365 15.4237ZM2.83365 17.5305C2.45197 17.5307 2.14243 17.2214 2.14203 16.8399C2.14183 16.4582 2.45096 16.1485 2.83263 16.1481C3.21431 16.1477 3.52405 16.4566 3.52466 16.8383C3.52466 17.2202 3.21532 17.5297 2.83365 17.5303V17.5305ZM7.76488 16.964C6.8211 16.964 6.05614 17.7289 6.05594 18.6725C6.05594 19.6163 6.8209 20.3814 7.76468 20.3814C8.70845 20.3814 9.47341 19.6165 9.47362 18.6729C9.47261 17.7295 8.70825 16.965 7.76488 16.964ZM7.76488 19.6575C7.22096 19.6575 6.78009 19.2166 6.78009 18.6729C6.78009 18.129 7.22096 17.6883 7.76488 17.6883C8.3086 17.6883 8.74947 18.129 8.74947 18.6729C8.74886 19.2164 8.30839 19.6569 7.76488 19.6575ZM17.9951 14.7515C18.615 14.7515 19.1175 14.249 19.1175 13.6293C19.1175 13.0094 18.615 12.5071 17.9951 12.5071C17.3754 12.5071 16.8729 13.0094 16.8729 13.6293C16.8737 14.2488 17.3758 14.7507 17.9951 14.7515ZM17.9951 13.2313C18.2149 13.2313 18.3933 13.4095 18.3933 13.6293C18.3933 13.8492 18.2149 14.0274 17.9951 14.0274C17.7752 14.0274 17.597 13.8492 17.597 13.6293C17.5972 13.4095 17.7754 13.2315 17.9951 13.2313ZM5.5591 13.2278L4.45146 14.6151C4.37185 14.7194 4.24193 14.7723 4.11222 14.7535C3.9823 14.7347 3.87279 14.6473 3.82591 14.5248C3.77884 14.4024 3.80187 14.264 3.88592 14.1633L4.99336 12.7761C5.07317 12.6718 5.20288 12.6189 5.3328 12.6377C5.46252 12.6565 5.57203 12.7439 5.61911 12.8664C5.66598 12.9888 5.64315 13.1272 5.5591 13.2278ZM6.20041 16.4245C6.0614 16.4245 5.93451 16.3447 5.8743 16.2194C5.81388 16.0939 5.83086 15.9452 5.91754 15.8365L7.48201 13.8766C7.60667 13.7204 7.83459 13.6948 7.99097 13.8197C8.14736 13.9443 8.17282 14.1722 8.04815 14.3286L6.48368 16.2883C6.41498 16.3744 6.31072 16.4245 6.20061 16.4245H6.20041ZM11.9538 13.6548L9.85145 16.2883C9.72658 16.4447 9.49867 16.4701 9.34249 16.3455C9.1861 16.2206 9.16044 15.9927 9.28531 15.8365L11.3874 13.2028C11.5121 13.0466 11.74 13.021 11.8964 13.1458C12.0528 13.2705 12.0782 13.4984 11.9536 13.6548H11.9538ZM15.6618 13.2278L11.758 18.1183C11.6329 18.2747 11.405 18.3001 11.2486 18.1752C11.0924 18.0502 11.067 17.8223 11.1918 17.6659L15.0955 12.7763C15.2203 12.6199 15.448 12.5944 15.6044 12.7191C15.7608 12.844 15.7863 13.0719 15.6616 13.2281L15.6618 13.2278ZM16.9719 15.8038L13.2517 20.4643C13.1271 20.6205 12.8992 20.6461 12.7428 20.5212C12.5864 20.3966 12.5609 20.1687 12.6856 20.0123L16.4058 15.352C16.5306 15.1956 16.7583 15.17 16.9147 15.2948C17.0711 15.4197 17.0966 15.6474 16.9719 15.8038ZM21.4202 14.4498L19.9529 16.2879C19.8283 16.4443 19.6004 16.4697 19.444 16.3451C19.2878 16.2202 19.2621 15.9923 19.387 15.8361L20.8541 13.9981C20.979 13.8417 21.2067 13.816 21.363 13.9409C21.5194 14.0655 21.5449 14.2935 21.4202 14.4498Z" fill="currentColor"/>
</svg>