<svg xmlns="http://www.w3.org/2000/svg" width="16" height="16" viewBox="0 0 16 16" fill="none">
  <g clip-path="url(#clip0_16176_166301)">
    <path d="M8 0C3.58187 0 0 3.58187 0 8C0 12.4181 3.58187 16 8 16C12.4181 16 16 12.4181 16 8C16 3.58187 12.4181 0 8 0ZM8 2.4375C8.56794 2.4375 9.12313 2.60591 9.59536 2.92145C10.0676 3.23698 10.4356 3.68545 10.653 4.21016C10.8703 4.73487 10.9272 5.31225 10.8164 5.86928C10.7056 6.42631 10.4321 6.93797 10.0305 7.33956C9.62891 7.74116 9.11724 8.01465 8.56021 8.12545C8.00319 8.23625 7.42581 8.17938 6.9011 7.96204C6.37639 7.7447 5.92791 7.37664 5.61238 6.90442C5.29685 6.43219 5.12844 5.877 5.12844 5.30906C5.12844 4.54748 5.43098 3.81708 5.9695 3.27856C6.50802 2.74004 7.23841 2.4375 8 2.4375ZM12.8006 12.0025C12.2141 12.7061 11.48 13.2722 10.6504 13.6606C9.82086 14.0491 8.91603 14.2504 8 14.2504C7.08397 14.2504 6.17915 14.0491 5.34957 13.6606C4.51998 13.2722 3.78593 12.7061 3.19937 12.0025C3.12005 11.9074 3.06421 11.7951 3.03636 11.6744C3.00851 11.5538 3.00944 11.4283 3.03906 11.3081C3.3113 10.2035 3.9443 9.22118 4.83781 8.51688C4.97109 8.41239 5.13496 8.35449 5.3043 8.35207C5.47363 8.34964 5.63909 8.40281 5.77531 8.50344C6.36906 8.945 7.1475 9.2125 7.99875 9.2125C8.85 9.2125 9.62812 8.945 10.2222 8.50344C10.3584 8.40281 10.5239 8.34964 10.6932 8.35207C10.8625 8.35449 11.0264 8.41239 11.1597 8.51688C12.0532 9.22118 12.6862 10.2035 12.9584 11.3081C12.9884 11.4281 12.9897 11.5535 12.9623 11.6741C12.9349 11.7947 12.8795 11.9072 12.8006 12.0025Z" fill="currentColor"/>
  </g>
  <defs>
    <clipPath id="clip0_16176_166301">
      <rect width="16" height="16" fill="currentColor"/>
    </clipPath>
  </defs>
</svg>
