<svg xmlns="http://www.w3.org/2000/svg" width="16" height="16" viewBox="0 0 16 16" fill="none">
  <path d="M10.9956 4.23019C10.6853 3.91634 10.1795 3.91238 9.8643 4.22137L3.95096 10.0657L1.38037 7.40454C1.07378 7.085 0.566209 7.07451 0.246696 7.3811C-0.072851 7.68769 -0.0833393 8.19527 0.223254 8.51478C0.224643 8.5162 0.225997 8.51763 0.227387 8.51905L3.36166 11.7672C3.51166 11.9202 3.71667 12.0068 3.93095 12.0077H3.93977C4.14999 12.0071 4.35156 11.9238 4.50104 11.776L10.9884 5.36154C11.3019 5.05071 11.3051 4.54501 10.9956 4.23019Z" fill="currentColor"/>
  <path d="M8.17142 11.7672C8.32104 11.9199 8.52539 12.0064 8.73911 12.0078H8.74793C8.95815 12.0071 9.15972 11.9239 9.3092 11.776L15.7966 5.36159C16.0907 5.03048 16.0606 4.52371 15.7296 4.22965C15.4294 3.96307 14.9784 3.95956 14.6741 4.22142L8.76315 10.0658L8.55227 9.84689C8.24571 9.52734 7.73814 9.51682 7.41859 9.82341C7.09904 10.13 7.08852 10.6375 7.39511 10.9571C7.3965 10.9585 7.39789 10.96 7.39928 10.9614L8.17142 11.7672Z" fill="currentColor"/>
</svg>