<svg xmlns="http://www.w3.org/2000/svg" width="16" height="16" viewBox="0 0 16 16" fill="none">
    <path d="M12.7367 16.0001H3.26305C1.98617 16.0001 0.947266 14.9612 0.947266 13.6843V2.3159C0.947266 1.03903 1.98617 0.00012207 3.26305 0.00012207H11.3944C11.5021 0.00012207 11.6059 0.0414971 11.6842 0.115653L14.9212 3.18553C15.005 3.26506 15.0525 3.3755 15.0525 3.49103V13.6842C15.0525 14.9612 14.0136 16.0001 12.7367 16.0001ZM3.26305 0.842247C2.45048 0.842247 1.78936 1.50334 1.78936 2.31593V13.6843C1.78936 14.497 2.45045 15.158 3.26305 15.158H12.7367C13.5493 15.158 14.2104 14.497 14.2104 13.6843V3.67212L11.2265 0.842247H3.26305Z" fill="currentColor"/>
    <path d="M11.789 5.45638H4.21012C3.97756 5.45638 3.78906 5.26788 3.78906 5.03532C3.78906 4.80276 3.97756 4.61426 4.21012 4.61426H11.789C12.0216 4.61426 12.2101 4.80276 12.2101 5.03532C12.2101 5.26791 12.0216 5.45638 11.789 5.45638Z" fill="currentColor"/>
    <path d="M11.789 7.35958H4.21012C3.97756 7.35958 3.78906 7.17108 3.78906 6.93852C3.78906 6.70596 3.97756 6.51746 4.21012 6.51746H11.789C12.0216 6.51746 12.2101 6.70596 12.2101 6.93852C12.2101 7.17108 12.0216 7.35958 11.789 7.35958Z" fill="currentColor"/>
    <path d="M5.62319 9.26254H4.21012C3.97756 9.26254 3.78906 9.07404 3.78906 8.84147C3.78906 8.60891 3.97756 8.42041 4.21012 8.42041H5.62319C5.85575 8.42041 6.04425 8.60891 6.04425 8.84147C6.04425 9.07404 5.85575 9.26254 5.62319 9.26254Z" fill="currentColor"/>
    <path d="M14.6319 3.91193H12.2773C11.5585 3.91193 10.9736 3.32724 10.9736 2.60849V0.42115C10.9736 0.2529 11.0738 0.100744 11.2284 0.0343062C11.3832 -0.0323188 11.5621 -0.000162534 11.6845 0.11565L14.9217 3.18537C15.0467 3.30396 15.0868 3.48677 15.023 3.64681C14.9592 3.8069 14.8042 3.91193 14.6319 3.91193ZM11.8158 1.40068V2.60849C11.8158 2.86284 12.0228 3.06984 12.2773 3.06984H13.5759L11.8158 1.40068Z" fill="currentColor"/>
    <path d="M9.57112 12.7749C8.94712 12.7749 8.36059 12.532 7.9194 12.0907C7.00862 11.18 7.00862 9.69793 7.9195 8.78725C8.36062 8.34596 8.94712 8.10303 9.57112 8.10303C10.1951 8.10303 10.7818 8.34596 11.2229 8.78725C12.1336 9.69793 12.1336 11.18 11.2229 12.0907C10.7818 12.532 10.1951 12.7749 9.57112 12.7749ZM9.57112 8.94515C9.17212 8.94515 8.79712 9.10059 8.51487 9.38265C7.93246 9.96506 7.93246 10.9129 8.51487 11.4953C8.79712 11.7774 9.17209 11.9328 9.57112 11.9328C9.97015 11.9328 10.3453 11.7774 10.6275 11.4953C11.2097 10.9129 11.2097 9.96506 10.6275 9.38265C10.3453 9.10059 9.97012 8.94515 9.57112 8.94515Z" fill="currentColor"/>
    <path d="M12.7488 14.0379C12.6411 14.0379 12.5333 13.9968 12.4511 13.9146L10.6273 12.0907C10.4628 11.9262 10.4628 11.6598 10.6273 11.4953C10.7917 11.3308 11.0582 11.3308 11.2227 11.4953L13.0465 13.3192C13.211 13.4836 13.211 13.7501 13.0465 13.9146C12.9643 13.9968 12.8565 14.0379 12.7488 14.0379Z" fill="currentColor"/>
</svg>