<svg width="16" height="16" viewBox="0 0 16 16" fill="none">
  <path d="M5.12691 7.10803H6.34769C6.66566 7.10803 6.92431 6.84938 6.92431 6.53141V6.10678C6.92431 5.78884 6.66566 5.53019 6.34769 5.53019H5.12691C4.80897 5.53019 4.55031 5.78884 4.55031 6.10678V6.53141C4.55028 6.84938 4.80897 7.10803 5.12691 7.10803ZM5.05028 6.10678C5.05028 6.06525 5.08534 6.03019 5.12687 6.03019H6.34766C6.38919 6.03019 6.42428 6.06525 6.42428 6.10678V6.53141C6.42428 6.57294 6.38919 6.60803 6.34766 6.60803H5.12687C5.08534 6.60803 5.05028 6.57294 5.05028 6.53141V6.10678ZM3.66528 10.1111H2.4445C2.12656 10.1111 1.86791 10.3698 1.86791 10.6877V11.1123C1.86791 11.4303 2.12656 11.689 2.4445 11.689H3.66528C3.98322 11.689 4.24188 11.4303 4.24188 11.1123V10.6877C4.24188 10.3698 3.98322 10.1111 3.66528 10.1111ZM3.74187 11.1123C3.74187 11.1539 3.70681 11.189 3.66528 11.189H2.4445C2.40297 11.189 2.36791 11.1539 2.36791 11.1123V10.6877C2.36791 10.6462 2.40297 10.6111 2.4445 10.6111H3.66528C3.70681 10.6111 3.74187 10.6462 3.74187 10.6877V11.1123ZM3.66528 7.82062H2.4445C2.12656 7.82062 1.86791 8.07928 1.86791 8.39725V8.82187C1.86791 9.13984 2.12656 9.3985 2.4445 9.3985H3.66528C3.98322 9.3985 4.24188 9.13984 4.24188 8.82187V8.39725C4.24188 8.07928 3.98322 7.82062 3.66528 7.82062ZM3.74187 8.82187C3.74187 8.86341 3.70681 8.8985 3.66528 8.8985H2.4445C2.40297 8.8985 2.36791 8.86341 2.36791 8.82187V8.39725C2.36791 8.35572 2.40297 8.32063 2.4445 8.32063H3.66528C3.70681 8.32063 3.74187 8.35572 3.74187 8.39725V8.82187ZM6.92431 10.6877C6.92431 10.3698 6.66566 10.1111 6.34769 10.1111H5.12691C4.80897 10.1111 4.55031 10.3698 4.55031 10.6877V11.1123C4.55031 11.4303 4.80897 11.689 5.12691 11.689H6.34769C6.66566 11.689 6.92431 11.4303 6.92431 11.1123V10.6877ZM6.42431 11.1123C6.42431 11.1539 6.38922 11.189 6.34769 11.189H5.12691C5.08538 11.189 5.05031 11.1539 5.05031 11.1123V10.6877C5.05031 10.6462 5.08538 10.6111 5.12691 10.6111H6.34769C6.38922 10.6111 6.42431 10.6462 6.42431 10.6877V11.1123ZM3.66528 5.53019H2.4445C2.12656 5.53019 1.86791 5.78884 1.86791 6.10678V6.53141C1.86791 6.84938 2.12656 7.10803 2.4445 7.10803H3.66528C3.98322 7.10803 4.24188 6.84938 4.24188 6.53141V6.10678C4.24188 5.78884 3.98322 5.53019 3.66528 5.53019ZM3.74187 6.53141C3.74187 6.57294 3.70681 6.60803 3.66528 6.60803H2.4445C2.40297 6.60803 2.36791 6.57294 2.36791 6.53141V6.10678C2.36791 6.06525 2.40297 6.03019 2.4445 6.03019H3.66528C3.70681 6.03019 3.74187 6.06525 3.74187 6.10678V6.53141ZM5.12691 9.3985H6.34769C6.66566 9.3985 6.92431 9.13984 6.92431 8.82187V8.39725C6.92431 8.07928 6.66566 7.82062 6.34769 7.82062H5.12691C4.80897 7.82062 4.55031 8.07928 4.55031 8.39725V8.82187C4.55028 9.13984 4.80897 9.3985 5.12691 9.3985ZM5.05028 8.39725C5.05028 8.35572 5.08534 8.32063 5.12687 8.32063H6.34766C6.38919 8.32063 6.42428 8.35572 6.42428 8.39725V8.82187C6.42428 8.86341 6.38919 8.8985 6.34766 8.8985H5.12687C5.08534 8.8985 5.05028 8.86341 5.05028 8.82187V8.39725ZM15.4311 9.91413C14.9747 9.11284 14.2788 8.20719 13.2556 7.08488C13.5395 6.93656 13.7338 6.63941 13.7338 6.29753C13.7338 5.84197 13.3888 5.46559 12.9465 5.4155L13.5699 4.79206C13.9229 4.43897 13.9229 3.8645 13.5698 3.51144C13.271 3.21266 12.7958 3.16163 12.44 3.39C12.4132 3.40731 12.3892 3.40947 12.3597 3.39716C12.3302 3.38497 12.3147 3.36644 12.3079 3.33528C12.2214 2.93903 11.8755 2.64778 11.4746 2.62447V1.67084C11.4746 0.749531 10.7251 0 9.80378 0H1.67081C0.7495 0 0 0.749531 0 1.67084V12.0575C0 12.9788 0.7495 13.7283 1.67081 13.7283H7.29953C7.32313 13.7718 7.34737 13.8151 7.37284 13.8581C8.15903 15.1847 9.67362 16.0001 11.3409 16H11.5052C13.1724 16 14.6872 15.1846 15.4733 13.8581C16.1875 12.6528 16.1722 11.2153 15.4311 9.91413ZM13.2338 6.29753C13.2338 6.51141 13.0598 6.68541 12.8459 6.68541H10.0002C9.78628 6.68541 9.61228 6.51141 9.61228 6.2975C9.61228 6.08363 9.78628 5.90966 10.0002 5.90966H12.8459C13.0598 5.90966 13.2338 6.08369 13.2338 6.29753ZM11.8194 3.442C11.8611 3.63256 11.9882 3.78459 12.1683 3.85912C12.3484 3.93391 12.5459 3.91622 12.7101 3.81081C12.8695 3.70853 13.0825 3.73125 13.2163 3.86506C13.2924 3.94116 13.3343 4.04294 13.3343 4.15178C13.3343 4.26062 13.2924 4.36244 13.2163 4.43853L12.2452 5.40969H10.601L9.62984 4.43853C9.55372 4.36244 9.51184 4.26062 9.51184 4.15178C9.51184 4.04294 9.55375 3.94116 9.62984 3.86506C9.76359 3.73122 9.9765 3.70837 10.1361 3.81081C10.3003 3.91616 10.4977 3.93375 10.6778 3.85919C10.858 3.78456 10.9852 3.6325 11.0267 3.44194C11.0672 3.25672 11.2339 3.12228 11.4231 3.12225C11.6123 3.12222 11.7789 3.25669 11.8194 3.442ZM9.02897 3.97463H2.14441C2.10287 3.97463 2.06778 3.93953 2.06778 3.898V2.61597C2.06778 2.57444 2.10287 2.53938 2.14441 2.53938H9.33016C9.37169 2.53938 9.40678 2.57444 9.40678 2.61597V3.40425C9.36059 3.43553 9.31672 3.47103 9.27625 3.5115C9.14809 3.63962 9.06322 3.79994 9.02897 3.97463ZM1.67081 13.2283C1.02522 13.2283 0.5 12.7031 0.5 12.0575V1.67084C0.5 1.02525 1.02522 0.5 1.67081 0.5H9.80378C10.4494 0.5 10.9746 1.02525 10.9746 1.67084V2.74303C10.7579 2.86775 10.5941 3.07975 10.5383 3.33531C10.5314 3.3665 10.516 3.38503 10.4866 3.39719C10.4571 3.4095 10.4331 3.40725 10.4062 3.39003C10.2538 3.29228 10.0797 3.24612 9.90681 3.24825V2.61597C9.90681 2.29803 9.64816 2.03938 9.33019 2.03938H2.14441C1.82644 2.03938 1.56778 2.29803 1.56778 2.61597V3.89797C1.56778 4.21594 1.82644 4.47459 2.14441 4.47459H9.07078C9.1155 4.59247 9.18472 4.7005 9.27625 4.79206L9.89972 5.4155C9.70237 5.43784 9.5245 5.52513 9.38791 5.65544C9.2895 5.57725 9.16528 5.53016 9.03009 5.53016H7.80934C7.49137 5.53016 7.23272 5.78881 7.23272 6.10675V6.53137C7.23272 6.84934 7.49137 7.108 7.80934 7.108H9.03009C9.17675 7.108 9.31037 7.05253 9.41225 6.96203C9.46625 7.00988 9.52606 7.05116 9.59053 7.08484C9.35703 7.34094 9.14066 7.58572 8.94019 7.82059H7.80931C7.49134 7.82059 7.23269 8.07925 7.23269 8.39722V8.82187C7.23269 9.11487 7.45253 9.35703 7.73584 9.39328C7.61778 9.57219 7.511 9.7455 7.41497 9.91413C6.79922 10.9953 6.68503 12.1704 7.07353 13.2283H1.67081ZM9.10672 6.10678V6.53141C9.10672 6.57294 9.07163 6.60803 9.03009 6.60803H7.80934C7.76781 6.60803 7.73272 6.57294 7.73272 6.53141V6.10678C7.73272 6.06525 7.76781 6.03019 7.80934 6.03019H9.03009C9.07163 6.03019 9.10672 6.06525 9.10672 6.10678ZM8.08097 8.8985H7.80934C7.76781 8.8985 7.73272 8.86341 7.73272 8.82187V8.39725C7.73272 8.35572 7.76781 8.32063 7.80934 8.32063H8.52559C8.36519 8.52022 8.21725 8.71253 8.08097 8.8985ZM15.0432 13.6032C14.3469 14.778 12.9966 15.5 11.5053 15.5C11.4779 15.5 11.3683 15.5 11.3408 15.5C9.84969 15.5 8.49916 14.7779 7.80297 13.6032C7.17369 12.5413 7.19022 11.3191 7.84941 10.1616C8.31841 9.33816 9.05931 8.39069 10.1772 7.18544H12.6688C13.7867 8.39069 14.5276 9.33819 14.9966 10.1616C15.6559 11.3191 15.6724 12.5413 15.0432 13.6032ZM12.7603 12.1202C12.7935 12.3944 12.7199 12.6449 12.5473 12.8444C12.351 13.0715 12.0285 13.2254 11.6609 13.2731V13.5265C11.6609 13.6646 11.549 13.7765 11.4109 13.7765C11.2728 13.7765 11.1609 13.6646 11.1609 13.5265V13.2693C10.6114 13.185 10.1859 12.832 10.0611 12.3313C10.0277 12.1974 10.1092 12.0617 10.2432 12.0283C10.3771 11.9951 10.5128 12.0764 10.5462 12.2104C10.6515 12.6328 11.0668 12.7846 11.408 12.7887C11.4113 12.7886 11.4145 12.7887 11.4177 12.7887C11.4288 12.7887 11.4394 12.7887 11.45 12.7884C11.7507 12.7812 12.0329 12.6748 12.1692 12.5173C12.2492 12.4248 12.2802 12.3146 12.2639 12.1805C12.2247 11.8576 11.9501 11.6713 11.3736 11.5767C10.4119 11.4188 10.1877 10.9273 10.1691 10.5427C10.1432 10.0101 10.5149 9.564 11.094 9.43266C11.116 9.42766 11.1383 9.42316 11.1609 9.41916V9.15828C11.1609 9.02022 11.2729 8.90828 11.4109 8.90828C11.549 8.90828 11.6609 9.02022 11.6609 9.15828V9.417C12.0642 9.48397 12.4585 9.72288 12.6576 10.1971C12.7111 10.3244 12.6512 10.4709 12.5239 10.5244C12.3968 10.5778 12.2501 10.518 12.1966 10.3907C12.049 10.0393 11.7329 9.89644 11.4274 9.89563C11.4184 9.89622 11.4093 9.89631 11.4002 9.89591C11.3336 9.89759 11.2678 9.90591 11.2046 9.92025C10.9344 9.98153 10.6516 10.1709 10.6685 10.5184C10.6743 10.6386 10.6898 10.9578 11.4546 11.0833C11.7523 11.1322 12.6583 11.2809 12.7603 12.1202Z" fill="currentColor"/>
</svg>