<svg width="16" height="15" viewBox="0 0 16 15" fill="none">
<path d="M8.1028 4.94958C7.20144 4.94958 6.4707 5.68028 6.4707 6.58168C6.4707 7.48304 7.2014 8.21377 8.1028 8.21377C9.00416 8.21377 9.73489 7.48308 9.73489 6.58168C9.73489 5.68028 9.00419 4.94958 8.1028 4.94958ZM8.1028 7.43655C7.63064 7.43655 7.24789 7.0538 7.24789 6.58164C7.24789 6.10949 7.63064 5.72673 8.1028 5.72673C8.57495 5.72673 8.95771 6.10949 8.95771 6.58164C8.95771 7.0538 8.57495 7.43655 8.1028 7.43655Z" fill="currentColor"/>
<path d="M14.6116 1.21912L4.00304 0.014514C3.59131 -0.0440221 3.17416 0.0761741 2.85671 0.34483C2.5393 0.59095 2.33583 0.955778 2.29325 1.35516L2.09897 2.94839H1.49662C0.641708 2.94839 0.000525074 3.70612 0.000525074 4.56103V12.5077C-0.0210076 13.3229 0.622406 14.0013 1.43767 14.0228C1.45731 14.0234 1.47698 14.0235 1.49662 14.0232H12.1634C13.0183 14.0232 13.7955 13.3626 13.7955 12.5077V12.1968C14.0606 12.1456 14.312 12.0397 14.5338 11.886C14.8487 11.6209 15.0502 11.2456 15.0973 10.8368L15.9911 2.94839C16.0822 2.09151 15.4673 1.32068 14.6116 1.21912ZM13.0183 12.5077C13.0183 12.9352 12.5909 13.246 12.1634 13.246H1.49662C1.11048 13.2574 0.788271 12.9535 0.776928 12.5674C0.776333 12.5475 0.776594 12.5276 0.777709 12.5077V11.0699L3.78931 8.85496C4.15109 8.57719 4.66066 8.60188 4.99395 8.91323L7.11177 10.7785C7.43339 11.0485 7.83823 11.1995 8.25814 11.2059C8.58644 11.2099 8.90936 11.1225 9.19077 10.9533L13.0184 8.73837V12.5077H13.0183ZM13.0183 7.82518L8.78269 10.2927C8.41898 10.5082 7.95861 10.4692 7.63633 10.1956L5.49909 8.31091C4.88654 7.78457 3.99125 7.75229 3.3424 8.23319L0.777709 10.0984V4.56103C0.777709 4.13358 1.06916 3.72557 1.49662 3.72557H12.1634C12.6201 3.7445 12.9889 4.10494 13.0183 4.56103V7.82518ZM15.2146 2.84348C15.2144 2.84604 15.2142 2.84864 15.2139 2.85121L14.3007 10.7396C14.3022 10.9441 14.209 11.1379 14.0481 11.2642C13.9704 11.3419 13.7955 11.3808 13.7955 11.4197V4.56103C13.7648 3.67589 13.0488 2.96843 12.1634 2.94839H2.87612L3.05099 1.43288C3.08892 1.23663 3.19153 1.05879 3.34244 0.9277C3.51284 0.809884 3.71887 0.754955 3.92535 0.772248L14.5145 1.9963C14.9417 2.03687 15.2552 2.41617 15.2146 2.84348Z" fill="currentColor"/>
</svg>
