<svg xmlns="http://www.w3.org/2000/svg" width="32" height="32" viewBox="0 0 32 32" fill="none">
  <g>
    <path d="M30.7914 13.2182L17.7389 13.2175C17.1625 13.2175 16.6953 13.6847 16.6953 14.261V18.4307C16.6953 19.007 17.1625 19.4742 17.7388 19.4742H25.0892C24.2843 21.563 22.7821 23.3123 20.8654 24.4238L23.9996 29.8494C29.0272 26.9417 31.9996 21.8399 31.9996 16.1288C31.9996 15.3156 31.9397 14.7343 31.8198 14.0797C31.7287 13.5824 31.2969 13.2182 30.7914 13.2182Z" fill="white"/>
    <path d="M15.9997 25.7397C12.4026 25.7397 9.26233 23.7743 7.57577 20.866L2.15039 23.9931C4.91133 28.7782 10.0835 32.0005 15.9997 32.0005C18.902 32.0005 21.6406 31.2191 23.9997 29.8573V29.8498L20.8655 24.4242C19.4319 25.2557 17.7729 25.7397 15.9997 25.7397Z" fill="white"/>
    <path d="M24 29.8562V29.8487L20.8658 24.4231C19.4322 25.2545 17.7733 25.7385 16 25.7385V31.9994C18.9023 31.9994 21.641 31.218 24 29.8562Z" fill="white"/>
    <path d="M6.26088 16.0004C6.26088 14.2273 6.74475 12.5685 7.57606 11.1349L2.15069 8.00781C0.781375 10.3595 0 13.0906 0 16.0004C0 18.9101 0.781375 21.6413 2.15069 23.9929L7.57606 20.8658C6.74475 19.4322 6.26088 17.7734 6.26088 16.0004Z" fill="white"/>
    <path d="M15.9997 6.26088C18.3454 6.26088 20.5 7.09437 22.183 8.48081C22.5981 8.82281 23.2016 8.79813 23.5819 8.41781L26.5363 5.46344C26.9678 5.03194 26.937 4.32562 26.4761 3.92575C23.6564 1.47956 19.9876 0 15.9997 0C10.0835 0 4.91133 3.22231 2.15039 8.00744L7.57577 11.1346C9.26233 8.22625 12.4026 6.26088 15.9997 6.26088Z" fill="white"/>
    <path d="M22.1833 8.48081C22.5984 8.82281 23.2019 8.79813 23.5822 8.41781L26.5366 5.46344C26.968 5.03194 26.9373 4.32562 26.4764 3.92575C23.6567 1.4795 19.9879 0 16 0V6.26088C18.3456 6.26088 20.5003 7.09437 22.1833 8.48081Z" fill="white"/>
  </g>
</svg>
