<svg xmlns="http://www.w3.org/2000/svg" width="24" height="24" viewBox="0 0 24 24" fill="none">
  <path d="M5.84325 10.9365C8.65162 10.9365 10.9365 8.65162 10.9365 5.84325C10.9365 3.03487 8.65162 0.75 5.84325 0.75C3.03487 0.75 0.75 3.03487 0.75 5.84325C0.75 8.65162 3.03487 10.9365 5.84325 10.9365Z" fill="currentColor"/>
  <path d="M10.0305 13.5947H1.125C0.917893 13.5947 0.75 13.7626 0.75 13.9697V22.8752C0.75 23.0823 0.917893 23.2502 1.125 23.2502H10.0305C10.2376 23.2502 10.4055 23.0823 10.4055 22.8752V13.9697C10.4055 13.7626 10.2376 13.5947 10.0305 13.5947Z" fill="currentColor"/>
  <path d="M17.8482 0.860352C17.7075 0.719727 17.4585 0.719727 17.3179 0.860352L12.024 6.15423C11.8774 6.30085 11.8774 6.53785 12.024 6.68448L17.3179 11.9784C17.391 12.0515 17.487 12.0882 17.583 12.0882C17.679 12.0882 17.775 12.0515 17.8482 11.9784L23.142 6.68448C23.2125 6.61398 23.2519 6.51873 23.2519 6.41935C23.2519 6.31998 23.2125 6.22435 23.142 6.15423L17.8482 0.860352Z" fill="currentColor"/>
  <path d="M18.0599 13.7815C17.9261 13.5494 17.5443 13.5494 17.4104 13.7815L12.2688 22.687C12.2021 22.8033 12.2021 22.9458 12.2688 23.062C12.3359 23.1783 12.4597 23.2495 12.5936 23.2495H22.8768C23.0107 23.2495 23.1348 23.1783 23.2016 23.062C23.2683 22.9458 23.2683 22.8033 23.2016 22.687L18.0599 13.7815Z" fill="currentColor"/>
</svg>