<svg xmlns="http://www.w3.org/2000/svg" width="24" height="24" viewBox="0 0 24 24" fill="none">
  <path d="M17.0415 13.8209V3.73742C17.0415 2.99977 16.7415 2.32915 16.258 1.84565C15.7744 1.35859 15.1074 1.05859 14.3697 1.05859C12.8909 1.05859 11.6909 2.25859 11.6909 3.73742V13.8209C10.3215 14.7033 9.41797 16.2421 9.41797 17.9892C9.41797 20.7245 11.6344 22.9409 14.3697 22.9409C17.1015 22.9409 19.318 20.7245 19.318 17.9892C19.318 16.2421 18.4109 14.7033 17.0415 13.8209ZM14.3697 21.3598C12.5097 21.3598 10.9991 19.8492 10.9991 17.9892C10.9991 16.0259 12.4049 15.2447 13.2721 14.6821V7.7433H15.4603V14.6821C16.1485 15.1286 17.7333 15.9255 17.7333 17.9892C17.7333 19.8492 16.2227 21.3598 14.3697 21.3598Z" fill="currentColor"/>
  <path d="M19.0756 4.06623H22.2383C22.4332 4.06623 22.5912 3.90819 22.5912 3.71329C22.5912 3.5184 22.4332 3.36035 22.2383 3.36035H19.0756C18.8807 3.36035 18.7227 3.5184 18.7227 3.71329C18.7227 3.90819 18.8807 4.06623 19.0756 4.06623Z" fill="currentColor"/>
  <path d="M19.0756 5.71565H20.6804C20.8753 5.71565 21.0333 5.5576 21.0333 5.36271C21.0333 5.16781 20.8753 5.00977 20.6804 5.00977H19.0756C18.8807 5.00977 18.7227 5.16781 18.7227 5.36271C18.7227 5.5576 18.8807 5.71565 19.0756 5.71565Z" fill="currentColor"/>
  <path d="M22.2383 6.65918H19.0756C18.8807 6.65918 18.7227 6.81723 18.7227 7.01212C18.7227 7.20701 18.8807 7.36506 19.0756 7.36506H22.2383C22.4332 7.36506 22.5912 7.20701 22.5912 7.01212C22.5912 6.81723 22.4332 6.65918 22.2383 6.65918Z" fill="currentColor"/>
  <path d="M19.0756 9.0135H20.6804C20.8753 9.0135 21.0333 8.85545 21.0333 8.66056C21.0333 8.46566 20.8753 8.30762 20.6804 8.30762H19.0756C18.8807 8.30762 18.7227 8.46566 18.7227 8.66056C18.7227 8.85545 18.8807 9.0135 19.0756 9.0135Z" fill="currentColor"/>
  <path d="M22.2383 9.95703H19.0756C18.8807 9.95703 18.7227 10.1151 18.7227 10.31C18.7227 10.5049 18.8807 10.6629 19.0756 10.6629H22.2383C22.4332 10.6629 22.5912 10.5049 22.5912 10.31C22.5912 10.1151 22.4332 9.95703 22.2383 9.95703Z" fill="currentColor"/>
  <path d="M7.01638 8.48528C7.86365 7.63801 7.86365 6.26433 7.01638 5.41707C6.16912 4.5698 4.79543 4.5698 3.94817 5.41707C3.10091 6.26433 3.10091 7.63802 3.94817 8.48528C4.79543 9.33254 6.16912 9.33254 7.01638 8.48528Z" fill="currentColor"/>
  <path d="M5.48185 3.93976C5.67674 3.93976 5.83479 3.78172 5.83479 3.58682V3.22989C5.83479 3.035 5.67674 2.87695 5.48185 2.87695C5.28695 2.87695 5.12891 3.035 5.12891 3.22989V3.58679C5.12891 3.78172 5.28692 3.93976 5.48185 3.93976Z" fill="currentColor"/>
  <path d="M3.49539 4.21383C3.59376 4.38388 3.81039 4.43964 3.97758 4.34308C4.14646 4.24552 4.2042 4.02959 4.10683 3.86089L3.92827 3.55171C3.8304 3.38283 3.61479 3.32473 3.44608 3.42246C3.2772 3.52002 3.21946 3.73595 3.31684 3.90465L3.49539 4.21383Z" fill="currentColor"/>
  <path d="M2.74883 4.96332L2.43965 4.78477C2.27059 4.68704 2.05484 4.74513 1.95746 4.91401C1.86009 5.08272 1.91783 5.29865 2.08671 5.3962L2.39589 5.57476C2.56307 5.67132 2.77975 5.61556 2.87807 5.44551C2.97545 5.2768 2.91771 5.06084 2.74883 4.96332Z" fill="currentColor"/>
  <path d="M2.47293 6.9506C2.47293 6.7557 2.31489 6.59766 2.11999 6.59766H1.7631C1.5682 6.59766 1.41016 6.7557 1.41016 6.9506C1.41016 7.14549 1.5682 7.30354 1.7631 7.30354H2.11999C2.31492 7.30354 2.47293 7.14553 2.47293 6.9506Z" fill="currentColor"/>
  <path d="M2.39589 8.32676L2.08671 8.50531C1.91783 8.60287 1.86009 8.8188 1.95746 8.9875C2.05583 9.15755 2.27246 9.21331 2.43965 9.11675L2.74883 8.9382C2.91771 8.84064 2.97545 8.62471 2.87807 8.45601C2.78052 8.28713 2.56459 8.22903 2.39589 8.32676Z" fill="currentColor"/>
  <path d="M3.97758 9.55715C3.80852 9.4596 3.59294 9.51752 3.49539 9.6864L3.31684 9.99557C3.21946 10.1643 3.2772 10.3802 3.44608 10.4778C3.61327 10.5743 3.82994 10.5186 3.92827 10.3485L4.10683 10.0393C4.2042 9.87063 4.1465 9.6547 3.97758 9.55715Z" fill="currentColor"/>
  <path d="M5.48185 9.96094C5.28695 9.96094 5.12891 10.119 5.12891 10.3139V10.6708C5.12891 10.8657 5.28695 11.0237 5.48185 11.0237C5.67674 11.0237 5.83479 10.8657 5.83479 10.6708V10.3139C5.83479 10.119 5.67674 9.96094 5.48185 9.96094Z" fill="currentColor"/>
  <path d="M7.47124 9.6864C7.37369 9.51751 7.15758 9.4596 6.98905 9.55715C6.82017 9.6547 6.76243 9.87063 6.85981 10.0393L7.03836 10.3485C7.13672 10.5186 7.35336 10.5743 7.52055 10.4778C7.68943 10.3802 7.74717 10.1643 7.64979 9.99557L7.47124 9.6864Z" fill="currentColor"/>
  <path d="M8.88164 8.50531L8.57246 8.32676C8.4034 8.22903 8.18748 8.28712 8.09028 8.45601C7.9929 8.62471 8.05064 8.84064 8.21952 8.9382L8.5287 9.11675C8.69589 9.21331 8.91256 9.15755 9.01089 8.9875C9.10826 8.8188 9.05052 8.60287 8.88164 8.50531Z" fill="currentColor"/>
  <path d="M9.55514 6.9506C9.55514 6.7557 9.39709 6.59766 9.2022 6.59766H8.84513C8.65023 6.59766 8.49219 6.7557 8.49219 6.9506C8.49219 7.14549 8.65023 7.30354 8.84513 7.30354H9.2022C9.39709 7.30354 9.55514 7.14553 9.55514 6.9506Z" fill="currentColor"/>
  <path d="M8.57246 5.57476L8.88164 5.3962C9.05052 5.29865 9.10826 5.08272 9.01089 4.91401C8.91333 4.74513 8.6974 4.68704 8.5287 4.78477L8.21952 4.96332C8.05064 5.06087 7.9929 5.2768 8.09028 5.44551C8.18864 5.61556 8.40528 5.67132 8.57246 5.57476Z" fill="currentColor"/>
  <path d="M7.52055 3.42246C7.35149 3.32473 7.13591 3.38283 7.03836 3.55171L6.85981 3.86089C6.76243 4.02959 6.82017 4.24552 6.98905 4.34308C7.15624 4.43964 7.37291 4.38388 7.47124 4.21383L7.64979 3.90465C7.74717 3.73595 7.68943 3.52002 7.52055 3.42246Z" fill="currentColor"/>
</svg>