<svg xmlns="http://www.w3.org/2000/svg" width="32" height="32" viewBox="0 0 32 32" fill="none">
  <path d="M27.2098 22.0659L27.6927 22.3446L27.7234 22.3638C27.9693 22.5168 28.1349 22.7528 28.2046 23.0124C28.2769 23.283 28.246 23.5829 28.0939 23.8475L26.8311 26.0352L26.8119 26.0659C26.6591 26.3119 26.4229 26.4775 26.1634 26.5472C25.8929 26.6198 25.593 26.5882 25.3283 26.4364L17.7576 22.0659H27.2098ZM4.77638 21.1247L1.40969 21.1236C1.27124 21.1225 1.13439 21.0617 1.04207 20.9445C0.882065 20.7412 0.916418 20.4465 1.11943 20.2864L5.20377 17.0531L7.91729 6.92549C8.02477 6.5221 8.28039 6.15636 8.60698 5.88821L8.64002 5.8597C8.98477 5.58779 9.41235 5.41866 9.83899 5.41866L11.1809 5.41809C14.2047 5.40962 16.9215 5.40181 20.0386 5.80765C20.0696 5.80953 20.1011 5.81461 20.1323 5.8228C22.7005 6.5093 24.9276 8.03429 26.5014 10.0859C27.9578 11.9844 28.855 14.334 28.9471 16.8869C29.4502 16.9637 29.9051 17.1628 30.2608 17.4443C30.753 17.8343 31.059 18.3804 31.059 18.9884C31.059 19.5965 30.753 20.1426 30.2608 20.5326C29.8062 20.8925 29.1896 21.1177 28.5165 21.1247H4.77638ZM9.30251 13.9896C9.90807 12.4123 10.9843 11.0658 12.3583 10.1216C13.6923 9.20549 15.309 8.66874 17.0514 8.66874C18.7936 8.66874 20.4103 9.20549 21.7442 10.1216C23.1183 11.0658 24.1942 12.4123 24.8001 13.9896C24.8924 14.231 25.1635 14.3521 25.4049 14.2598C25.6464 14.1675 25.7675 13.8964 25.6752 13.6547C24.9997 11.896 23.802 10.3956 22.2736 9.34582C20.7878 8.32511 18.9883 7.72746 17.0514 7.72746C15.1143 7.72746 13.3148 8.32511 11.829 9.34582C10.3005 10.3956 9.10289 11.896 8.42741 13.6547C8.33508 13.8964 8.4562 14.1675 8.69762 14.2598C8.93912 14.3521 9.21018 14.231 9.30251 13.9896Z" fill="#CCCCCC"/>
</svg>
