<svg width="16" height="16" viewBox="0 0 16 16" fill="none">
    <path d="M13.3125 15.4994H2.6875C1.89487 15.4994 1.25 14.8546 1.25 14.0619V6.49878C1.25 6.22265 1.47384 5.99878 1.75 5.99878C2.02616 5.99878 2.25 6.22265 2.25 6.49878V14.0619C2.25 14.3032 2.44625 14.4994 2.6875 14.4994H13.3125C13.5538 14.4994 13.75 14.3032 13.75 14.0619V6.49878C13.75 6.22265 13.9738 5.99878 14.25 5.99878C14.5262 5.99878 14.75 6.22265 14.75 6.49878V14.0619C14.75 14.8545 14.1052 15.4994 13.3125 15.4994Z" fill="currentColor"/>
    <path d="M15.5 8.24864C15.372 8.24864 15.2441 8.19983 15.1465 8.10218L8.92805 1.88383C8.41634 1.37208 7.58368 1.37208 7.07193 1.88383L0.853555 8.10221C0.658305 8.29749 0.341711 8.29749 0.146461 8.10221C-0.0488203 7.90696 -0.0488203 7.59036 0.146461 7.39511L6.36484 1.17671C7.26646 0.275082 8.73355 0.275082 9.63515 1.17671L15.8535 7.39508C16.0488 7.59036 16.0488 7.90693 15.8535 8.10218C15.7559 8.19983 15.628 8.24864 15.5 8.24864Z" fill="currentColor"/>
    <path d="M10 15.4994H6C5.72384 15.4994 5.5 15.2755 5.5 14.9994V10.5619C5.5 9.70033 6.20094 8.99939 7.0625 8.99939H8.9375C9.79906 8.99939 10.5 9.70033 10.5 10.5619V14.9994C10.5 15.2755 10.2762 15.4994 10 15.4994ZM6.5 14.4994H9.5V10.5619C9.5 10.2517 9.24766 9.99939 8.9375 9.99939H7.0625C6.75234 9.99939 6.5 10.2517 6.5 10.5619V14.4994Z" fill="currentColor"/>
</svg>