<svg xmlns="http://www.w3.org/2000/svg" width="16" height="16" viewBox="0 0 16 16" fill="none">
    <path d="M12 6.00122C12 8.21036 10.2091 10.0012 8 10.0012C5.79086 10.0012 4 8.21036 4 6.00122C4 3.79208 5.79086 2.00122 8 2.00122C10.2091 2.00122 12 3.79208 12 6.00122Z" fill="#121212"/>
    <path d="M8 0.0012207C4.692 0.0012207 2 2.71189 2 6.04455C2 10.7799 7.436 15.6692 7.66733 15.8746C7.76267 15.9592 7.88133 16.0012 8 16.0012C8.11867 16.0012 8.23733 15.9592 8.33267 15.8752C8.564 15.6692 14 10.7799 14 6.04455C14 2.71189 11.308 0.0012207 8 0.0012207ZM8 9.33455C6.162 9.33455 4.66667 7.83922 4.66667 6.00122C4.66667 4.16322 6.162 2.66789 8 2.66789C9.838 2.66789 11.3333 4.16322 11.3333 6.00122C11.3333 7.83922 9.838 9.33455 8 9.33455Z" fill="currentColor"/>
</svg>
