<svg xmlns="http://www.w3.org/2000/svg" width="20" height="20" viewBox="0 0 20 20" fill="none">
  <path d="M10 0C5.9657 0 2.69531 3.27242 2.69531 7.30863C2.69531 11.7521 5.73992 12.7992 7.33731 15.5235C8.82441 18.0588 8.82562 20 10 20C11.2179 20 11.141 18.1916 12.6627 15.5236C14.184 12.8551 17.3047 11.7521 17.3047 7.30863C17.3047 3.27242 14.0343 0 10 0ZM10 10.1095C8.49078 10.1095 7.26727 8.88531 7.26727 7.37547C7.26727 6.62012 7.57313 5.93684 8.06777 5.44187C8.56238 4.9473 9.24539 4.64105 10 4.64105C11.5092 4.64105 12.7323 5.8652 12.7323 7.37547C12.7323 8.88531 11.5092 10.1095 10 10.1095Z" fill="#4CAF50"/>
  <path d="M10.0002 0C9.79688 0 9.59562 0.00871094 9.39648 0.025C13.1483 0.332188 16.0975 3.47582 16.0975 7.30863C16.0975 11.7521 12.9768 12.8551 11.4555 15.5235C10.2502 17.6367 10.0477 19.2104 9.41051 19.7736C9.57387 19.9208 9.76313 20 10.0002 20C11.218 20 11.1412 18.1916 12.6629 15.5236C14.1842 12.8551 17.3049 11.7521 17.3049 7.30863C17.3049 3.27242 14.0345 0 10.0002 0Z" fill="#43A047"/>
  <path d="M8.06766 5.44355L3.26508 10.2487C2.91379 9.44824 2.69531 8.50129 2.69531 7.31027C2.69531 5.30883 3.49945 3.49559 4.80172 2.17578L8.06766 5.44355Z" fill="#F44336"/>
  <path d="M11.951 9.28909C12.4342 8.79593 12.7321 8.12042 12.7321 7.3753C12.7321 5.86503 11.5087 4.64093 9.99973 4.64093C9.245 4.64093 8.56191 4.94706 8.06738 5.44186L12.9053 0.601318C14.6346 1.3519 16.0162 2.75245 16.7432 4.49491L11.9511 9.28964L11.951 9.28909Z" fill="#42A5F5"/>
  <path d="M12.9059 0.601318L12.498 1.00937C14.1205 1.96671 15.3409 3.53331 15.8444 5.39483L16.7439 4.49491C16.0168 2.75241 14.6352 1.3519 12.9059 0.601318Z" fill="#2196F3"/>
  <path d="M11.952 9.28914L6.6775 14.5665C5.5307 13.1211 4.05934 12.0585 3.26562 10.2466L8.0682 5.44141C7.57367 5.93621 7.2677 6.61969 7.2677 7.37484C7.2677 8.88465 8.49113 10.1088 10.0005 10.1088C10.7648 10.1088 11.4559 9.79473 11.9518 9.28859L11.952 9.28914Z" fill="#FFC107"/>
  <path d="M12.9056 0.601406L8.0677 5.44199L4.80176 2.17426C6.12629 0.831797 7.96617 0 10.0001 0C11.0327 0 12.0154 0.214531 12.9056 0.601406Z" fill="#1E88E5"/>
  <path d="M10.0002 0C9.79695 0 9.5957 0.00867187 9.3966 0.025C9.39656 0.025 9.39652 0.0250391 9.39648 0.0250391C10.5219 0.117188 11.575 0.464805 12.498 1.00945L12.9058 0.601406C12.0155 0.214531 11.0328 0 10.0002 0Z" fill="#1976D2"/>
</svg>
