<svg xmlns="http://www.w3.org/2000/svg" width="24" height="24" viewBox="0 0 24 24" fill="none">
    <path d="M23.5312 4.35511H21.8169V2.64562C21.8169 2.38678 21.607 2.17687 21.3482 2.17687H19.6352V0.46875C19.6352 0.21375 19.4214 0 19.1664 0H12.9334H6.70041H0.46875C0.209906 0 0 0.209906 0 0.46875V6.68653V12.9057V19.1243C0 19.3792 0.213328 19.5936 0.46875 19.5936H2.18175V21.3017C2.18175 21.5605 2.39166 21.7704 2.6505 21.7704H4.36481V23.4799C4.36481 23.7388 4.57472 23.9487 4.83356 23.9487H23.5312C23.7901 23.9487 24 23.7388 24 23.4799V4.82386C24 4.56502 23.7901 4.35511 23.5312 4.35511ZM7.83394 18.6561L11.1345 15.3631C11.7342 14.7648 12.3338 14.1663 12.9335 13.568L15.3862 16.0153L12.7395 18.6561H7.83394ZM1.60223 18.6561L6.7012 13.5685L9.15398 16.0148L6.50658 18.6561H1.60223ZM18.6977 12.7112L16.0493 15.3525L13.5972 12.9058C15.2974 11.2095 16.9976 9.51314 18.6977 7.8165V12.7112ZM9.81759 15.3526L7.36477 12.9063L12.934 7.34944L15.3857 9.79673C14.4585 10.722 13.5312 11.6473 12.6039 12.5725C12.6031 12.5733 12.6023 12.5739 12.6016 12.5746C12.6009 12.5752 12.6004 12.576 12.5997 12.5767C11.8905 13.2842 11.1815 13.992 10.4723 14.6994L9.81759 15.3526ZM0.9375 7.81678L2.92073 9.79645L0.9375 11.7757V7.81678ZM6.70045 7.34878L9.15389 9.79678L6.38255 12.5619C6.37814 12.566 6.37355 12.5697 6.36928 12.5739L3.58486 15.3527L1.13236 12.9057L3.91561 10.1286C3.91777 10.1264 3.91959 10.1241 3.9217 10.1219L6.70045 7.34878ZM10.1487 3.90947L12.9334 1.13095L15.3862 3.57834L12.6157 6.3427C12.6111 6.34702 12.6062 6.35091 12.6017 6.35541C12.5975 6.35958 12.5939 6.36413 12.59 6.36844L9.81759 9.13462L7.36411 6.68662L10.1417 3.91575C10.144 3.91355 10.1464 3.91172 10.1487 3.90947ZM2.92097 16.0147L0.9375 17.9947V14.0356L2.92097 16.0147ZM18.6977 6.49209C17.815 7.37306 16.9321 8.25375 16.0493 9.13462L13.5977 6.68733L18.6977 1.59867V6.49209ZM16.0499 2.91614L14.0669 0.9375H18.033L16.0499 2.91614ZM6.36938 6.35466C6.36933 6.3547 6.36928 6.35475 6.36928 6.35475L3.5843 9.1342L1.13236 6.68662L6.7005 1.13086L9.15347 3.57736L6.36938 6.35466ZM18.6977 14.0356V18.6561H14.0669L18.6977 14.0356ZM11.7998 0.9375L9.81722 2.91525L7.83422 0.9375H11.7998ZM5.56697 0.9375L0.9375 5.55666V0.9375H5.56697ZM23.0625 23.0112H5.30231V21.7705H10.9855C11.2443 21.7705 11.4542 21.5606 11.4542 21.3017C11.4542 21.0429 11.2443 20.833 10.9855 20.833H3.11925V19.5936H19.1664C19.4253 19.5936 19.6352 19.3837 19.6352 19.1249V6.68723C19.6352 6.68709 19.6352 6.68691 19.6352 6.68691V3.11438H20.8794V20.833H15.1963C14.9374 20.833 14.7275 21.0429 14.7275 21.3017C14.7275 21.5606 14.9374 21.7705 15.1963 21.7705H21.3482C21.607 21.7705 21.8169 21.5606 21.8169 21.3017V5.29261H23.0625V23.0112Z" fill="currentColor"/>
    <path d="M13.0898 20.833C12.831 20.833 12.6211 21.0429 12.6211 21.3018C12.6211 21.5606 12.831 21.7705 13.0898 21.7705H13.0912C13.35 21.7705 13.5592 21.5606 13.5592 21.3018C13.5592 21.0429 13.3487 20.833 13.0898 20.833Z" fill="currentColor"/>
</svg>
