<svg width="16" height="16" viewBox="0 0 16 16" fill="none">
    <path d="M10.015 7.04204C10.015 6.79354 9.81354 6.59204 9.56504 6.59204H4.61504C4.36654 6.59204 4.16504 6.79354 4.16504 7.04204C4.16504 7.29054 4.36654 7.49204 4.61504 7.49204H9.56504C9.81354 7.49204 10.015 7.29054 10.015 7.04204Z" fill="currentColor"/>
    <path d="M4.61406 8.8645C4.36556 8.8645 4.16406 9.066 4.16406 9.3145C4.16406 9.563 4.36556 9.7645 4.61406 9.7645H7.23856C7.48706 9.7645 7.68856 9.563 7.68856 9.3145C7.68856 9.066 7.48706 8.8645 7.23856 8.8645H4.61406Z" fill="currentColor"/>
    <path d="M12.9798 7.067C12.7313 7.067 12.5298 7.26851 12.5298 7.517V11.1565C12.5298 11.8375 11.9758 12.3915 11.2948 12.3915H8.2848C8.1873 12.3915 8.0923 12.423 8.0143 12.482L5.4153 14.4365C5.3493 14.486 5.2873 14.4655 5.2563 14.4485C5.2248 14.4325 5.1728 14.393 5.1748 14.3125L5.2248 12.8575C5.2288 12.7355 5.1833 12.617 5.0988 12.5295C5.0143 12.4415 4.8973 12.392 4.7753 12.392H2.6848C2.0038 12.392 1.4498 11.8385 1.4498 11.157V5.207C1.4498 4.5235 2.0038 3.9675 2.6848 3.9675H8.2298C8.4783 3.9675 8.6798 3.766 8.6798 3.5175C8.6798 3.269 8.4783 3.0675 8.2298 3.0675H2.6848C1.5078 3.0675 0.549805 4.0275 0.549805 5.2075V11.157C0.549805 12.334 1.5078 13.2925 2.6848 13.2925H4.3093L4.2753 14.2835C4.2633 14.6905 4.4798 15.0605 4.8413 15.248C4.9958 15.3285 5.1623 15.368 5.3273 15.368C5.5488 15.368 5.7683 15.2965 5.9553 15.157L8.4348 13.2925H11.2943C12.4713 13.2925 13.4293 12.3345 13.4293 11.157V7.5175C13.4298 7.2685 13.2283 7.067 12.9798 7.067Z" fill="currentColor"/>
    <path d="M15.4119 2.78055C15.3304 2.53055 15.1299 2.34355 14.8754 2.28055L13.7254 1.99405L13.0974 0.98905C12.8189 0.54205 12.0919 0.54305 11.8139 0.98905L11.1859 1.99405L10.0359 2.28055C9.78138 2.34355 9.58038 2.53055 9.49938 2.78055C9.41838 3.03055 9.47038 3.30005 9.63938 3.50155L10.4014 4.40855L10.3184 5.59055C10.2999 5.85255 10.4159 6.10105 10.6284 6.25555C10.7604 6.35155 10.9154 6.40105 11.0724 6.40105C11.1679 6.40105 11.2644 6.38255 11.3569 6.34505L12.4559 5.90105L13.5544 6.34505C13.7979 6.44405 14.0699 6.41005 14.2829 6.25605C14.4954 6.10155 14.6114 5.85305 14.5934 5.59055L14.5104 4.40855L15.2724 3.50105C15.4409 3.30005 15.4934 3.03055 15.4119 2.78055ZM13.7039 3.96905C13.6289 4.05855 13.5914 4.17355 13.5999 4.29055L13.6799 5.42555L12.6249 4.99905C12.5709 4.97705 12.5134 4.96605 12.4564 4.96605C12.3994 4.96605 12.3419 4.97705 12.2879 4.99905L11.2334 5.42555L11.3129 4.29055C11.3209 4.17405 11.2834 4.05855 11.2089 3.96905L10.4774 3.09805L11.5814 2.82255C11.6944 2.79405 11.7924 2.72355 11.8539 2.62455L12.4569 1.66005L13.0599 2.62455C13.1219 2.72355 13.2194 2.79455 13.3324 2.82255L14.4364 3.09805L13.7039 3.96905Z" fill="currentColor"/>
</svg>