<svg width="16" height="15" viewBox="0 0 16 15" fill="none" xmlns="http://www.w3.org/2000/svg">
<path d="M6.18997 11.2217H2.53387C2.33394 11.2217 2.17188 11.3837 2.17188 11.5837C2.17188 11.7836 2.33394 11.9457 2.53387 11.9457H6.18997C6.3899 11.9457 6.55197 11.7836 6.55197 11.5837C6.55197 11.3837 6.3899 11.2217 6.18997 11.2217Z" fill="currentColor"/>
<path d="M11.6558 11.2217H7.99969C7.79976 11.2217 7.6377 11.3837 7.6377 11.5837C7.6377 11.7836 7.79976 11.9457 7.99969 11.9457H11.6558C11.8557 11.9457 12.0178 11.7836 12.0178 11.5837C12.0178 11.3837 11.8557 11.2217 11.6558 11.2217Z" fill="currentColor"/>
<path d="M11.656 2.172H2.53387C2.33394 2.172 2.17188 2.33406 2.17188 2.53399C2.17188 2.73392 2.33394 2.89598 2.53387 2.89598H11.656C11.8559 2.89598 12.018 2.73392 12.018 2.53399C12.018 2.33406 11.8559 2.172 11.656 2.172Z" fill="currentColor"/>
<path d="M11.6558 3.98193H7.99969C7.79976 3.98193 7.6377 4.144 7.6377 4.34392C7.6377 4.54385 7.79976 4.70592 7.99969 4.70592H11.6558C11.8557 4.70592 12.0178 4.54385 12.0178 4.34392C12.0178 4.144 11.8557 3.98193 11.6558 3.98193Z" fill="currentColor"/>
<path d="M11.6558 5.79187H7.99969C7.79976 5.79187 7.6377 5.95393 7.6377 6.15386C7.6377 6.35379 7.79976 6.51585 7.99969 6.51585H11.6558C11.8557 6.51585 12.0178 6.35379 12.0178 6.15386C12.0178 5.95393 11.8557 5.79187 11.6558 5.79187Z" fill="currentColor"/>
<path d="M11.6558 7.60181H7.99969C7.79976 7.60181 7.6377 7.76387 7.6377 7.9638C7.6377 8.16373 7.79976 8.32579 7.99969 8.32579H11.6558C11.8557 8.32579 12.0178 8.16373 12.0178 7.9638C12.0178 7.76387 11.8557 7.60181 11.6558 7.60181Z" fill="currentColor"/>
<path d="M11.6558 9.41174H7.99969C7.79976 9.41174 7.6377 9.57381 7.6377 9.77373C7.6377 9.97366 7.79976 10.1357 7.99969 10.1357H11.6558C11.8557 10.1357 12.0178 9.97366 12.0178 9.77373C12.0178 9.57381 11.8557 9.41174 11.6558 9.41174Z" fill="currentColor"/>
<path d="M6.18997 9.41174H2.53387C2.33394 9.41174 2.17188 9.57381 2.17188 9.77373C2.17188 9.97366 2.33394 10.1357 2.53387 10.1357H6.18997C6.3899 10.1357 6.55197 9.97366 6.55197 9.77373C6.55197 9.57381 6.3899 9.41174 6.18997 9.41174Z" fill="currentColor"/>
<path d="M6.18997 3.98193H2.53387C2.33394 3.98193 2.17188 4.144 2.17188 4.34392V8.00003C2.17188 8.19996 2.33394 8.36202 2.53387 8.36202H6.18997C6.3899 8.36202 6.55197 8.19996 6.55197 8.00003V4.34392C6.55197 4.144 6.3899 3.98193 6.18997 3.98193ZM5.82798 7.63804H2.89586V4.70592H5.82798V7.63804Z" fill="currentColor"/>
<path d="M15.276 1.80995H14.19V0.723982C14.19 0.324778 13.8653 0 13.4661 0H0.723982C0.324778 0 0 0.324778 0 0.723982V12.3077C0 13.3057 0.811946 14.1176 1.80995 14.1176H14.19C15.1881 14.1176 16 13.3057 16 12.3077V2.53394C16 2.13473 15.6752 1.80995 15.276 1.80995ZM15.276 12.3077C15.276 12.9065 14.7889 13.3937 14.19 13.3937H1.80995C1.21115 13.3937 0.723982 12.9065 0.723982 12.3077V0.723982H13.4661V11.7647C13.4661 12.2637 13.872 12.6697 14.371 12.6697C14.5709 12.6697 14.733 12.5076 14.733 12.3077C14.733 12.1078 14.5709 11.9457 14.371 11.9457C14.2712 11.9457 14.19 11.8645 14.19 11.7647V2.53394H15.276V12.3077Z" fill="currentColor"/>
</svg>
