<svg xmlns="http://www.w3.org/2000/svg" width="32" height="32" viewBox="0 0 32 32" fill="none">
  <path d="M27.2452 22.875L22.2802 20.6399C21.6953 20.38 21.0153 20.4549 20.5052 20.8399L18.3553 22.4649C17.7052 22.22 15.6852 21.3299 13.2352 18.875C10.7802 16.4199 9.89523 14.3949 9.65524 13.7449L11.2752 11.5899C11.6602 11.0799 11.7352 10.3949 11.4752 9.81495L9.24524 4.83494C8.99023 4.25993 8.43524 3.86494 7.81024 3.80494L6.27523 3.66493C4.15308 3.37767 1.99886 6.8966 2.00019 10.0849C1.97524 13.9349 4.36022 18.2899 9.09023 23.0299C15.288 29.2834 22.4798 32.7824 27.7653 27.72C28.2452 27.225 28.4802 26.5449 28.4152 25.85L28.2752 24.3149C28.2152 23.6849 27.8203 23.1349 27.2452 22.875Z" fill="#F2C744"/>
  <path d="M25.8102 6.09396C23.5372 3.80221 20.6422 2.34249 17.4381 1.87325C16.7899 1.78999 16.6414 2.7542 17.2936 2.86251C23.2943 3.66552 28.2185 8.67003 29.0045 14.6738C29.1075 15.32 30.0785 15.1849 29.9947 14.5312C29.5294 11.3027 28.0827 8.38522 25.8102 6.09396Z" fill="#F2C744"/>
  <path d="M16.7902 6.43083C21.2136 7.00411 24.9043 10.7564 25.4659 15.1818C25.5676 15.8294 26.5381 15.6952 26.4562 15.0421C25.8397 10.185 21.7871 6.06997 16.9317 5.44112C16.2838 5.36221 16.1372 6.32393 16.7902 6.43083Z" fill="#F2C744"/>
  <path d="M16.2824 9.99942C19.1749 10.3868 21.5481 12.7993 21.9264 15.6935C22.0315 16.3421 22.9997 16.2027 22.9167 15.5509C22.4818 12.2275 19.7492 9.4544 16.4279 9.01019C15.7745 8.92492 15.6345 9.89305 16.2824 9.99942Z" fill="#F2C744"/>
  <path d="M15.7777 13.568C17.1159 13.7469 18.2139 14.8639 18.3886 16.2033C18.4947 16.8528 19.4616 16.7118 19.3788 16.0607C19.1469 14.2914 17.6905 12.8146 15.9223 12.5788C15.2704 12.4915 15.129 13.4632 15.7777 13.568Z" fill="#F2C744"/>
</svg>
