<svg xmlns="http://www.w3.org/2000/svg" width="14" height="14" viewBox="0 0 14 14" fill="none">
  <g clip-path="url(#clip0_16346_265817)">
    <path d="M12.7672 6.88132H7.25469V1.36882C7.25469 1.08691 7.02617 0.858398 6.74427 0.858398C6.46236 0.858398 6.23386 1.08691 6.23386 1.36882V6.88132H0.721355C0.439451 6.88132 0.210938 7.10983 0.210938 7.39173C0.210938 7.67363 0.439451 7.90215 0.721355 7.90215H6.23386V13.4146C6.23386 13.6966 6.46236 13.925 6.74427 13.925C7.02617 13.925 7.25469 13.6966 7.25469 13.4146V7.90215H12.7672C13.0491 7.90215 13.2776 7.67363 13.2776 7.39173C13.2776 7.10983 13.0491 6.88132 12.7672 6.88132Z" fill="#111111"/>
  </g>
  <defs>
    <clipPath id="clip0_16346_265817">
      <rect width="14" height="14" fill="white"/>
    </clipPath>
  </defs>
</svg>
