<svg width="15" height="13" viewBox="0 0 15 13" fill="none">
  <path fill-rule="evenodd" clip-rule="evenodd" d="M8.64645 0.146447C8.8417 -0.0488156 9.1583 -0.0488156 9.35355 0.146447L10.3535 1.14645C10.5488 1.3417 10.5488 1.6583 10.3535 1.85355L9.35355 2.85355C9.1583 3.04882 8.8417 3.04882 8.64645 2.85355C8.45117 2.6583 8.45117 2.3417 8.64645 2.14645L8.7929 2H2.76785C1.7915 2 1 2.7915 1 3.76785C1 4.74422 1.7915 5.53572 2.76785 5.53572H12.0178C13.6649 5.53572 15 6.87087 15 8.51785C15 10.1648 13.6649 11.5 12.0178 11.5H3.42753C3.2124 12.2229 2.54275 12.75 1.75 12.75C0.783503 12.75 0 11.9665 0 11C0 10.0335 0.783503 9.25 1.75 9.25C2.54275 9.25 3.2124 9.77712 3.42753 10.5H12.0178C13.1126 10.5 14 9.61257 14 8.51785C14 7.42315 13.1126 6.53572 12.0178 6.53572H2.76785C1.23921 6.53572 0 5.2965 0 3.76785C0 2.2392 1.23921 0.999999 2.76785 0.999999H8.7929L8.64645 0.853549C8.45117 0.658292 8.45117 0.341709 8.64645 0.146447ZM1.75 10.25C2.16423 10.25 2.5 10.5858 2.5 11C2.5 11.4142 2.16423 11.75 1.75 11.75C1.33579 11.75 1 11.4142 1 11C1 10.5858 1.33579 10.25 1.75 10.25Z" fill="currentColor"/>
</svg>