<svg width="16" height="16" viewBox="0 0 16 16" fill="none" xmlns="http://www.w3.org/2000/svg">
<path d="M8 0C3.58881 0 0 3.58881 0 8.00004C0 12.4113 3.58881 16 8 16C12.4112 16 16 12.4112 16 8C16 3.58876 12.4112 0 8 0ZM8 14.654C4.33097 14.654 1.34597 11.6691 1.34597 8.00004C1.34597 4.33102 4.33097 1.34597 8 1.34597C11.669 1.34597 14.654 4.33097 14.654 8.00004C14.654 11.6691 11.669 14.654 8 14.654Z" fill="currentColor"/>
<path d="M7.99954 3.00366C6.40322 3.00366 5.10449 4.30239 5.10449 5.89871C5.10449 6.27038 5.40581 6.5717 5.77748 6.5717C6.14915 6.5717 6.45046 6.27038 6.45046 5.89871C6.45046 5.04456 7.14539 4.34963 7.99954 4.34963C8.85369 4.34963 9.54862 5.04456 9.54862 5.89871C9.54862 6.75286 8.85369 7.44779 7.99954 7.44779C7.62787 7.44779 7.32655 7.74911 7.32655 8.12077V9.64239C7.32655 10.0141 7.62787 10.3154 7.99954 10.3154C8.37121 10.3154 8.67253 10.0141 8.67253 9.64239V8.71479C9.94541 8.41065 10.8946 7.26339 10.8946 5.89867C10.8946 4.30239 9.59586 3.00366 7.99954 3.00366Z" fill="currentColor"/>
<path d="M7.99975 12.8718C8.52008 12.8718 8.94189 12.45 8.94189 11.9297C8.94189 11.4094 8.52008 10.9875 7.99975 10.9875C7.47942 10.9875 7.05762 11.4094 7.05762 11.9297C7.05762 12.45 7.47942 12.8718 7.99975 12.8718Z" fill="currentColor"/>
</svg>
