<svg width="219" height="135" viewBox="0 0 219 135" fill="none" xmlns="http://www.w3.org/2000/svg">
<path d="M61.5 105.5L20 120.5L68.5 122.5L103 105.5H61.5Z" fill="#E1BD5A"/>
<path d="M121.5 89H87.5L100.5 79.5H129.5L121.5 89Z" fill="#E1BD5A"/>
<path d="M122.5 39.5C121.7 50.3 116.5 60 114 63.5L130.5 66.8454C134.1 66.8945 136.333 47.9689 137 38.5L151 41.5L131.5 0C121.667 15.1667 102.7 44.7 105.5 41.5C108.3 38.3 118 38.8333 122.5 39.5Z" fill="#E1BD5A"/>
<path d="M53.5 90L68.5 66L178.5 67.5M178.5 67.5L216.5 132.5M178.5 67.5L137.5 125H116V99.5M116 99.5H33.5M116 99.5L68.5 130H2" stroke="#90897E" stroke-width="4" stroke-linecap="round"/>
</svg>
