<svg width="221" height="124" viewBox="0 0 221 124" fill="none" xmlns="http://www.w3.org/2000/svg">
<path d="M8.5 118.446H23M23 118.446L40.5 94.9457M23 118.446H130.5L180 58.4457M180 58.4457L218.5 121.946M180 58.4457H145M2 58.4457H104M145 58.4457C153.833 51.1124 166.8 31.1457 148 9.9457C122 -12.0543 92 17.4457 94.5 28.4457M145 58.4457H104M40.5 36.9457H80.5M104 58.4457C118.5 71.1124 135.3 97.2457 86.5 100.446M2 88.4457H104" stroke="#90897E" stroke-width="4" stroke-linecap="round"/>
<path d="M23 48.4457H120.5C130.333 46.4457 146.1 38.1457 130.5 20.9457" stroke="url(#paint0_linear_9_132)" stroke-width="4" stroke-linecap="round"/>
<path d="M52.9692 74C52.7196 74.0362 52.4826 74.1528 52.3111 74.3429C52.1396 74.5328 52.0475 74.7779 52.0553 75.0286C52.063 75.2792 52.17 75.5183 52.3528 75.6973C52.5357 75.8764 52.7793 75.9783 53.0308 75.999C53.0308 75.999 53.0308 75.999 53.0308 75.999C53.6828 76.0523 54.3348 76.1016 54.9867 76.1469C60.2606 76.5129 65.5265 76.615 70.7843 76.4533C70.8767 76.4504 70.9691 76.4476 71.0615 76.4447L71 76.4457C77.3499 76.4457 83.6997 76.4457 90.0496 76.4457C90.6997 76.4457 91.3499 76.4457 92 76.4457C92.5304 76.4457 93.0391 76.235 93.4142 75.8599C93.7893 75.4848 94 74.9761 94 74.4457C94 73.9152 93.7893 73.4065 93.4142 73.0315C93.0391 72.6564 92.5304 72.4457 92 72.4457C91.3499 72.4457 90.6997 72.4457 90.0496 72.4457C83.6997 72.4457 77.3499 72.4457 71 72.4457L70.9385 72.4466C70.8461 72.4495 70.7537 72.4523 70.6613 72.4552C65.4035 72.6169 60.1539 73.0426 54.9124 73.7322C54.2645 73.8174 53.6168 73.9067 52.9692 74Z" fill="url(#paint1_linear_9_132)"/>
<defs>
<linearGradient id="paint0_linear_9_132" x1="128.789" y1="20.9457" x2="117.5" y2="48.9995" gradientUnits="userSpaceOnUse">
<stop stop-color="#F7C436"/>
<stop offset="1" stop-color="#90897E"/>
</linearGradient>
<linearGradient id="paint1_linear_9_132" x1="53.5" y1="74.9457" x2="65" y2="74.9995" gradientUnits="userSpaceOnUse">
<stop stop-color="#917320"/>
<stop offset="1" stop-color="#F7C436"/>
</linearGradient>
</defs>
</svg>
