<svg width="209" height="146" viewBox="0 0 209 146" fill="none" xmlns="http://www.w3.org/2000/svg">
<path d="M50.5 100.724L21 141.224H0H130L169.617 84.0002C170.03 83.4024 170.924 83.432 171.297 84.0559L207 143.724" stroke="#90897E" stroke-width="4" stroke-linecap="round"/>
<path d="M80.5004 110.724C83.0004 103.557 80.8487 91.9196 58.5004 82.7241C38.5863 74.5302 47.9601 51.4242 53.5004 42.2241C54.0003 47.8908 57.8999 60.6241 69.4999 66.2241C74.5895 68.6812 79.6175 71.7542 84 75.5298M84 75.5298C92.1032 82.5106 97.9999 91.8932 97.9999 104.224M84 75.5298C71.1667 55.9279 57.2 14.0241 104 3.22412C96.6667 12.5575 86.1 35.5241 102.5 52.7241C118.9 69.9241 106.333 94.8908 97.9999 105.224M106.5 56.7241C105 50.8908 103.5 37.4241 109.5 30.2241C109.69 35.274 123.228 47.4056 127.5 60.7241C131.349 72.7241 126.298 84.8865 120.5 100.224C126.5 100.891 139.4 95.0241 143 66.2241C150 68.5575 161.1 77.9241 149.5 96.7241M40.5 91.7242C50.5 88.7242 70.2 89.9242 69 118.724M150 26.7241C143.599 25.5945 124.866 32.1241 132 47.7241C133.601 51.2241 137.5 52.7241 137.5 52.7241C137.5 52.7241 141.5 45.7241 142 38.7241C144 30.7241 150 26.7241 150 26.7241Z" stroke="#F7C436" stroke-width="4" stroke-linecap="round"/>
</svg>
