<svg xmlns="http://www.w3.org/2000/svg" width="20" height="20" viewBox="0 0 20 20" fill="none">
  <g clip-path="url(#clip0_16850_2475)">
    <path d="M19.3868 15.5515L15.4638 8.13511V4.33862C15.4638 4.20933 15.3587 4.10425 15.2294 4.10425H12.5017C12.3724 4.10425 12.2673 4.20933 12.2673 4.33862V5.36284H11.2782H8.7001H6.12198C6.03487 5.36284 5.95518 5.41089 5.91456 5.48784L4.58916 8.00386L3.26377 10.5199L1.93838 13.0359L0.612993 15.5515C0.556743 15.6582 0.590727 15.7902 0.691509 15.8566C0.730962 15.8828 0.775883 15.8953 0.820024 15.8953C0.888774 15.8953 0.956743 15.8652 1.00284 15.8082C1.3251 15.4085 1.70557 15.1964 2.10323 15.1957C2.49659 15.1941 2.89346 15.4124 3.21651 15.8093L3.21729 15.8089C3.23213 15.8273 3.24893 15.8437 3.26963 15.8574C3.30909 15.8835 3.35401 15.896 3.39815 15.896C3.4669 15.896 3.53487 15.866 3.58096 15.8089C3.90323 15.4093 4.2837 15.1972 4.68135 15.1964C5.07705 15.1949 5.47198 15.4132 5.79463 15.8101L5.79541 15.8097C5.81026 15.8281 5.82706 15.8445 5.84776 15.8582C5.88721 15.8843 5.93213 15.8968 5.97627 15.8968C6.04502 15.8968 6.11299 15.8667 6.15909 15.8097C6.48135 15.4101 6.86182 15.198 7.25948 15.1972H7.26221C7.63135 15.1972 8.00049 15.3882 8.31065 15.7374C8.31612 15.7535 8.32276 15.7691 8.33174 15.7835C8.37432 15.8539 8.45049 15.8968 8.53252 15.8968H19.1798C19.2618 15.8968 19.338 15.8539 19.3806 15.7835C19.4231 15.7117 19.4255 15.6242 19.3868 15.5515ZM12.7356 4.573H14.9946V7.24878L14.063 5.48745C14.0224 5.41089 13.9427 5.36284 13.856 5.36284C13.856 5.36284 13.856 5.36284 13.8556 5.36284H12.7356V4.573ZM11.4192 5.83198H13.4669L12.4739 7.70933C12.1064 7.36519 11.6774 7.17925 11.2384 7.17925C11.2372 7.17925 11.2357 7.17925 11.2345 7.17925C11.0356 7.17964 10.8392 7.21831 10.6497 7.29292L11.4192 5.83198ZM9.81573 12.7339C9.4501 12.3945 9.02354 12.2109 8.5876 12.2109C8.58643 12.2109 8.58487 12.2109 8.5837 12.2109C8.38487 12.2113 8.18838 12.25 7.99893 12.3246L8.82276 10.7609C9.14229 10.3714 9.51768 10.1652 9.91026 10.164H9.91299C10.2642 10.164 10.6153 10.3375 10.9157 10.655L9.81573 12.7339ZM7.24854 12.7441C6.88018 12.398 6.4501 12.2109 6.00987 12.2109C6.0087 12.2109 6.00713 12.2109 6.00596 12.2109C5.80713 12.2113 5.61065 12.25 5.4212 12.3246L6.24502 10.7609C6.56456 10.3714 6.93995 10.1652 7.33252 10.164H7.33526C7.68917 10.164 8.04346 10.3402 8.34542 10.6628L7.24854 12.7441ZM7.57042 8.24448C7.88995 7.85503 8.26534 7.64878 8.65752 7.64761H8.66026C9.01416 7.64761 9.36846 7.82378 9.67041 8.14644L8.57393 10.2281C8.20557 9.88198 7.77549 9.69487 7.33526 9.69487C7.33409 9.69487 7.33252 9.69487 7.33135 9.69487C7.13252 9.69526 6.93604 9.73393 6.74659 9.80854L7.57042 8.24448ZM11.145 10.2214C10.7782 9.87964 10.3505 9.69526 9.91299 9.69526C9.91182 9.69526 9.91026 9.69526 9.90909 9.69526C9.71026 9.69565 9.51377 9.73433 9.32432 9.80894L10.1481 8.24487C10.4677 7.85542 10.8431 7.64917 11.2353 7.648H11.238C11.5907 7.648 11.9431 7.82261 12.2442 8.14253L11.145 10.2214ZM8.84112 5.83198H10.8896L9.89893 7.71245C9.53057 7.36636 9.10049 7.17925 8.66026 7.17925C8.65909 7.17925 8.65753 7.17925 8.65635 7.17925C8.45752 7.17964 8.26104 7.21831 8.07159 7.29292L8.84112 5.83198ZM6.26299 5.83198H8.31143L7.32081 7.71245C6.95245 7.36636 6.52237 7.17925 6.08213 7.17925C6.08096 7.17925 6.0794 7.17925 6.07823 7.17925C5.8794 7.17964 5.68291 7.21831 5.49346 7.29292L6.26299 5.83198ZM4.99229 8.24448C5.31182 7.85503 5.68721 7.64878 6.0794 7.64761H6.08213C6.43604 7.64761 6.79034 7.82378 7.09229 8.14644L5.99581 10.2281C5.62745 9.88198 5.19737 9.69487 4.75713 9.69487C4.75596 9.69487 4.7544 9.69487 4.75323 9.69487C4.5544 9.69526 4.35791 9.73393 4.16846 9.80854L4.99229 8.24448ZM3.6669 10.7605C3.98643 10.371 4.36182 10.1648 4.75401 10.1636H4.75674C5.11065 10.1636 5.46495 10.3398 5.7669 10.6624L4.67041 12.7441C4.30206 12.398 3.87198 12.2109 3.43174 12.2109C3.43057 12.2109 3.42901 12.2109 3.42784 12.2109C3.22901 12.2113 3.03252 12.25 2.84307 12.3246L3.6669 10.7605ZM3.34502 15.2601C2.97666 14.914 2.54659 14.7269 2.10635 14.7269C2.10518 14.7269 2.10362 14.7269 2.10245 14.7269C1.90362 14.7273 1.70713 14.766 1.51768 14.8406L2.34151 13.2765C2.66104 12.8871 3.03643 12.6808 3.42862 12.6796H3.43135C3.78526 12.6796 4.13956 12.8558 4.44151 13.1785L3.34502 15.2601ZM5.92315 15.2601C5.55479 14.914 5.12471 14.7269 4.68448 14.7269C4.68331 14.7269 4.68174 14.7269 4.68057 14.7269C4.48174 14.7273 4.28526 14.766 4.09581 14.8406L4.91963 13.2765C5.23916 12.8871 5.61456 12.6808 6.00674 12.6796H6.00948C6.36338 12.6796 6.71768 12.8558 7.01963 13.1785L5.92315 15.2601ZM7.2626 14.7269C7.26143 14.7269 7.25987 14.7269 7.2587 14.7269C7.05987 14.7273 6.86338 14.766 6.67393 14.8406L7.49776 13.2765C7.81729 12.8871 8.19268 12.6808 8.58487 12.6796H8.5876C8.93721 12.6796 9.28721 12.8515 9.58682 13.1667L8.48682 15.2464C8.12159 14.9093 7.69698 14.7269 7.2626 14.7269ZM10.0786 15.4269L13.8564 8.30776L17.6341 15.4269H10.0786ZM18.1646 15.4269L14.063 7.69761C14.0224 7.62104 13.9427 7.573 13.856 7.573C13.7692 7.573 13.6896 7.62104 13.6489 7.69761L9.54776 15.4269H8.92159L13.856 6.09878L18.7903 15.4269H18.1646Z" fill="currentColor"/>
  </g>
  <defs>
    <clipPath id="clip0_16850_2475">
      <rect width="20" height="20" fill="currentColor"/>
    </clipPath>
  </defs>
</svg>
