<svg width="226" height="120" viewBox="0 0 226 120" fill="none" xmlns="http://www.w3.org/2000/svg">
<path d="M191.5 2.20404C184.742 1.42856 172.521 2.61183 162.5 10.071M191.5 2.20404C176.689 39.9313 120.339 49.2665 70.5 48.4543M191.5 2.20404C195.025 20.0657 180.254 36.1553 162.5 47.6735M162.5 10.071C157.445 13.8337 152.951 19.1933 150 26.704M162.5 10.071C156.679 11.5782 148.015 13.5986 139 15.3058M70.5 39.704C76 39.204 87.7 36.704 90.5 30.704C93.3 24.704 101.333 19.8706 105 18.204C111.889 19.6292 125.819 17.8022 139 15.3058M139 15.3058L129.5 32.704M13.5 43.204C19.3288 44.2235 25.9011 45.1809 33 45.9939M33 45.9939C30.1667 37.8973 32.9 21.604 66.5 21.204C69.3333 21.0373 72.7 24.004 63.5 37.204M33 45.9939C44.4351 47.3034 57.237 48.2382 70.5 48.4543M70.5 48.4543L126 64.9995M126 64.9995C136.105 62.3874 150.037 55.759 162.5 47.6735M126 64.9995L72 66.704M162.5 47.6735L146.5 45.9939M72 66.704C67.5 68.3706 54.2 68.004 37 53.204M72 66.704L49 53.204" stroke="url(#paint0_linear_9_137)" stroke-width="4" stroke-linecap="round"/>
<path d="M187 64.204L224 117.204M187 64.204L146.5 114.704H0H15.5L52 68.704M187 64.204L109.5 64.9995" stroke="#90897E" stroke-width="4" stroke-linecap="round"/>
<defs>
<linearGradient id="paint0_linear_9_137" x1="88" y1="25.4995" x2="83" y2="63.9995" gradientUnits="userSpaceOnUse">
<stop offset="0.683758" stop-color="#F7C436"/>
<stop offset="1" stop-color="#90897E"/>
</linearGradient>
</defs>
</svg>
