<svg xmlns="http://www.w3.org/2000/svg" width="10" height="10" viewBox="0 0 10 10" fill="none">
  <g clip-path="url(#clip0_16793_12454)">
    <g opacity="0.5">
      <path d="M4.293 0C4.526 0 4.715 0.189 4.715 0.422C4.715 0.655 4.526 0.845 4.293 0.845H1.83C1.286 0.845 0.845 1.286 0.845 1.83V8.164C0.845 8.708 1.286 9.149 1.83 9.149H8.164C8.708 9.149 9.149 8.708 9.149 8.164V5.7C9.149 5.467 9.338 5.278 9.571 5.278C9.804 5.278 9.993 5.467 9.993 5.7V8.164C9.993 9.174 9.174 9.993 8.164 9.993H1.83C0.819 9.993 0 9.174 0 8.164V1.83C0 0.819 0.819 0 1.83 0H4.293Z" fill="white"/>
      <path d="M6.33971 0.422C6.33971 0.655 6.52971 0.845 6.76271 0.845H8.55771L5.75971 3.643C5.64971 3.749 5.60471 3.906 5.64371 4.054C5.68171 4.202 5.79771 4.318 5.94571 4.356C6.09371 4.395 6.25171 4.35 6.35671 4.239L9.15471 1.442V3.237C9.15471 3.47 9.34471 3.66 9.57771 3.66C9.81071 3.66 9.99971 3.47 9.99971 3.237V0.422C9.99971 0.189 9.81071 0 9.57771 0H6.76271C6.52971 0 6.33971 0.189 6.33971 0.422Z" fill="white"/>
    </g>
  </g>
  <defs>
    <clipPath id="clip0_16793_12454">
      <rect width="10" height="9.993" fill="white"/>
    </clipPath>
  </defs>
</svg>
