<svg width="32" height="32" viewBox="0 0 32 32" fill="none" xmlns="http://www.w3.org/2000/svg">
<path d="M31.9783 3.22971C32.1343 2.50353 31.4223 1.89123 30.7278 2.15622L0.603121 13.6561C0.240562 13.7945 0.000751757 14.142 1.76421e-06 14.5301C-0.000748228 14.9182 0.237687 15.2667 0.599746 15.4065L9.06235 18.6749V28.9693C9.06235 29.4036 9.36054 29.781 9.78303 29.8814C10.2027 29.9812 10.6403 29.7815 10.8371 29.3912L14.3371 22.4458L22.8785 28.7847C23.3981 29.1703 24.1449 28.925 24.334 28.3053C32.3088 2.15829 31.9641 3.2954 31.9783 3.22971ZM24.542 6.52456L9.86697 16.9756L3.55278 14.537L24.542 6.52456ZM10.9373 18.5152L23.729 9.40547C12.7219 21.0172 13.2968 20.406 13.2488 20.4707C13.1775 20.5666 13.3729 20.1927 10.9373 25.0258V18.5152ZM22.9283 26.4867L15.4099 20.907L29.0042 6.56581L22.9283 26.4867Z" fill="currentColor"/>
</svg>