<svg xmlns="http://www.w3.org/2000/svg" width="24" height="24" viewBox="0 0 24 24" fill="none">
  <path d="M22.2088 19.2544L15.3434 12.3926L12.3906 15.3453L19.2561 22.2108C19.6488 22.6035 20.1761 22.8217 20.7324 22.8217C21.2888 22.8217 21.8161 22.6035 22.2088 22.2108C22.6015 21.818 22.8197 21.2908 22.8197 20.7344C22.8197 20.1744 22.6015 19.6508 22.2088 19.2544ZM21.6852 21.6835C21.4597 21.9089 21.1615 22.0326 20.8415 22.0326C20.5252 22.0326 20.2234 21.9089 19.9979 21.6835C19.5324 21.218 19.5324 20.4617 19.9979 19.9999C20.4488 19.5489 21.2343 19.5489 21.6815 19.9999C21.907 20.2253 22.0306 20.5235 22.0306 20.8435C22.0343 21.1599 21.9106 21.4617 21.6852 21.6835Z" fill="currentColor"/>
  <path d="M6.55816 6.2941C6.52906 6.42137 6.43088 6.51955 6.30725 6.55228L3.39088 7.29773C3.27088 7.33046 3.14361 7.2941 3.05634 7.20683L1.19088 5.34137C1.09997 6.62137 1.56543 7.87955 2.48906 8.80319C3.47088 9.78501 4.82725 10.2505 6.20543 10.0723C6.71815 10.0068 7.21634 10.1705 7.56543 10.5159L8.62361 11.5741L11.5763 8.62137L10.5182 7.56319C10.1691 7.2141 10.0091 6.71955 10.0745 6.20319C10.2491 4.82501 9.78725 3.46864 8.80543 2.48683C7.84906 1.53046 6.54725 1.06864 5.22361 1.19955L7.14361 3.11955C7.22725 3.20683 7.26361 3.33046 7.23452 3.44683L6.55816 6.2941Z" fill="currentColor"/>
  <path d="M1.20005 18.927L2.99641 17.1306C3.08368 17.0433 3.20732 17.0106 3.32368 17.0397L6.02914 17.6833C6.15641 17.7124 6.25459 17.8106 6.28732 17.9343L6.99641 20.7015C7.0255 20.8215 6.99277 20.9488 6.9055 21.0324L5.16368 22.7743C6.36368 22.847 7.53459 22.4106 8.40005 21.5452C9.33096 20.6143 9.77096 19.327 9.60005 18.0215C9.53823 17.5343 9.69459 17.0615 10.0291 16.7233C10.0328 16.7197 10.0328 16.7197 10.0364 16.7161L16.7382 10.0143C17.0728 9.67607 17.5455 9.51971 18.0364 9.58516C19.3419 9.75607 20.6291 9.31607 21.56 8.38516C22.4546 7.49062 22.891 6.27243 22.7819 5.03607L20.9855 6.83243C20.9019 6.91971 20.7782 6.95243 20.6582 6.92334L17.9528 6.27971C17.8255 6.25062 17.7273 6.15243 17.6946 6.0288L16.9819 3.26153C16.9528 3.14153 16.9855 3.01425 17.0728 2.93062L18.8146 1.1888C17.6182 1.11971 16.4437 1.55243 15.5782 2.41789C14.6473 3.3488 14.2073 4.63607 14.3782 5.94153C14.44 6.4288 14.2837 6.90153 13.9491 7.23971L7.24368 13.9452L7.23641 13.9524C6.89823 14.2833 6.42914 14.4397 5.9455 14.3779C4.64005 14.2106 3.35277 14.647 2.42186 15.5779C1.52732 16.4724 1.09095 17.6906 1.20005 18.927ZM9.24368 14.2324L14.3164 9.15971C14.451 9.02516 14.6728 9.02516 14.8073 9.15971C14.9419 9.29425 14.9419 9.51607 14.8073 9.65062L9.73823 14.7233C9.66914 14.7924 9.58186 14.8252 9.49096 14.8252C9.40005 14.8252 9.31277 14.7924 9.24368 14.7233C9.10914 14.5888 9.10914 14.367 9.24368 14.2324Z" fill="currentColor"/>
  <path d="M20.8413 20.3486C20.7104 20.3486 20.5867 20.3995 20.4922 20.4941C20.2995 20.6868 20.2995 20.9995 20.4922 21.1923C20.6813 21.3777 21.0049 21.3777 21.1904 21.1923C21.2849 21.0977 21.3358 20.9741 21.3358 20.8432C21.3358 20.7123 21.2849 20.5886 21.1904 20.4941C21.0995 20.3995 20.9758 20.3486 20.8413 20.3486Z" fill="currentColor"/>
</svg>