<svg width="19" height="21" viewBox="0 0 19 21" fill="none" xmlns="http://www.w3.org/2000/svg">
<path d="M9.12095 21C9.0176 21.0002 8.91526 20.9797 8.81993 20.9398C7.71591 20.4542 6.67134 19.8434 5.70677 19.1193C-0.153887 14.9293 -0.0385299 6.41016 0.0107226 2.77222C0.0136551 2.55194 0.0164001 2.34869 0.0176826 2.1643C0.0184905 2.00593 0.0684893 1.85172 0.160764 1.723C0.253038 1.59429 0.383028 1.49742 0.532756 1.44581C3.29758 0.501586 6.19755 0.0132772 9.11912 0C12.0419 0.01287 14.9432 0.501183 17.7092 1.4458C17.8589 1.49742 17.9889 1.59428 18.0811 1.723C18.1734 1.85172 18.2234 2.00593 18.2242 2.1643C18.2255 2.34869 18.2283 2.55194 18.2312 2.77221C18.2804 6.41015 18.3958 14.9293 12.5351 19.1193C11.5706 19.8434 10.526 20.4542 9.42198 20.9398C9.32665 20.9797 9.22431 21.0002 9.12095 21ZM9.11033 20.2484C9.11724 20.2505 9.12467 20.2505 9.13157 20.2484C10.1846 19.7853 11.1804 19.2017 12.099 18.5092C17.6405 14.5474 17.529 6.30304 17.4812 2.78247C17.4783 2.56018 17.4755 2.35528 17.4742 2.16943C16.3905 1.78971 15.2816 1.48648 14.1554 1.26196C12.4971 0.92964 10.8105 0.758193 9.11912 0.75C6.28003 0.763298 3.46197 1.23799 0.77519 2.1555C0.7664 2.35527 0.763655 2.56016 0.760723 2.78245C0.712933 6.30302 0.601423 14.5473 6.14293 18.5092C7.06148 19.2017 8.05727 19.7853 9.11033 20.2484Z" fill="currentColor"/>
<path d="M9.12143 19.396C9.06575 19.396 9.01077 19.3836 8.96048 19.3597C8.12416 18.9465 7.32739 18.4576 6.5801 17.8993C1.36198 14.1691 1.46853 6.0357 1.50863 2.97382C1.5097 2.8944 1.53595 2.81738 1.58359 2.75383C1.63124 2.69029 1.69782 2.64351 1.77376 2.62024C2.58015 2.37286 3.40797 2.16339 4.23451 1.99731C5.84551 1.67447 7.48391 1.50793 9.12692 1.5C10.7663 1.50832 12.401 1.67486 14.0083 1.99731C14.8336 2.16321 15.6614 2.37287 16.4693 2.62061C16.5452 2.64392 16.6117 2.69071 16.6593 2.75425C16.7069 2.81779 16.7332 2.89479 16.7342 2.97418C16.7743 6.03589 16.8809 14.1691 11.6631 17.8989C10.9158 18.4576 10.1189 18.9466 9.28238 19.3597C9.23208 19.3836 9.1771 19.396 9.12143 19.396ZM2.25515 3.25873C2.2145 6.62769 2.25094 13.8827 7.01626 17.2892C7.68103 17.784 8.38509 18.2238 9.12143 18.6041C9.85793 18.2238 10.5621 17.784 11.2268 17.2888C15.9919 13.8827 16.0283 6.62787 15.9877 3.25909C15.287 3.05255 14.5727 2.87567 13.8606 2.73267C12.3019 2.41976 10.7167 2.25812 9.12692 2.25C7.53347 2.25782 5.94449 2.41946 4.38211 2.73267C3.66909 2.87588 2.9548 3.05255 2.25515 3.25873Z" fill="currentColor"/>
<path d="M12.217 7.49562C12.1656 7.42621 12.0918 7.37666 12.0081 7.35535C11.9244 7.33404 11.8359 7.34226 11.7576 7.37864C11.6793 7.41501 11.6159 7.47731 11.5782 7.555C11.5405 7.6327 11.5308 7.72103 11.5506 7.80507C11.6261 8.11737 11.6311 8.44253 11.5655 8.75703C11.4489 7.75325 11.0525 6.80245 10.4214 6.0132C9.99195 5.47768 9.45465 5.03847 8.84441 4.72409C8.23416 4.40971 7.56462 4.22718 6.87926 4.18837C6.78735 4.18242 6.69607 4.20709 6.61967 4.25852C6.54328 4.30994 6.48607 4.38523 6.45699 4.47261C6.42791 4.56 6.4286 4.65455 6.45895 4.7415C6.4893 4.82845 6.5476 4.90289 6.62474 4.9532C7.18529 5.30919 7.594 5.86031 7.77189 6.50008C7.53742 6.32691 7.26394 6.2141 6.97557 6.17158C6.89796 6.16009 6.81868 6.17053 6.74669 6.20172C6.67469 6.23291 6.61286 6.28361 6.56816 6.34809C6.52356 6.41273 6.49831 6.48874 6.49536 6.56722C6.49241 6.6457 6.51188 6.72339 6.5515 6.7912C6.97832 7.53077 6.64487 8.08301 6.06554 8.92274L5.96446 9.06959C4.99693 10.4845 5.00169 11.9671 5.97728 13.1373C6.6253 13.8929 7.53109 14.3807 8.51865 14.5058C8.67126 14.5413 8.82722 14.5604 8.98388 14.5629C9.09637 14.562 9.20857 14.5513 9.31923 14.5311C9.72427 14.5046 10.1216 14.408 10.4936 14.2454C12.1415 13.5114 12.9358 12.3651 12.9935 10.6357C13.0464 8.76674 12.4125 7.75984 12.217 7.49562ZM8.53233 13.7402C8.39463 13.7063 8.26567 13.6436 8.1539 13.5562C8.04213 13.4689 7.95008 13.359 7.88377 13.2336C7.82153 13.0951 7.79675 12.9427 7.81192 12.7917C7.82709 12.6406 7.88167 12.4962 7.9702 12.3728C8.13876 12.1735 8.32656 11.9913 8.53087 11.8288C8.83383 11.6134 9.08139 11.3292 9.25322 10.9995C9.29173 10.9031 9.31901 10.8026 9.33452 10.7C9.72123 11.1749 9.94222 11.7631 9.96385 12.3752C9.9666 12.6489 9.97356 13.3762 9.53209 13.6677C9.43161 13.7286 9.31989 13.7689 9.20373 13.7864C9.01031 13.7953 8.81647 13.7867 8.6246 13.7607C8.59376 13.7529 8.56307 13.75 8.53233 13.7402ZM10.596 13.3545C10.6833 13.0332 10.723 12.7008 10.7139 12.3679C10.7001 10.9415 9.72654 9.91684 9.14775 9.43325C9.07253 9.37039 8.97829 9.33474 8.88029 9.33207C8.78229 9.32941 8.68625 9.35988 8.60772 9.41857C8.52919 9.47726 8.47275 9.56072 8.44754 9.65546C8.42233 9.7502 8.42982 9.85067 8.46879 9.94063C8.60018 10.179 8.63179 10.4596 8.55669 10.7212C8.42041 10.9305 8.24644 11.1127 8.04362 11.2584C7.79989 11.4536 7.57664 11.6731 7.3773 11.9134C7.24679 12.0894 7.15387 12.2904 7.10432 12.5039C7.05477 12.7174 7.04964 12.9387 7.08926 13.1543C6.89076 13.0113 6.71074 12.8443 6.55333 12.657C6.11552 12.1321 5.53745 11.0228 6.58373 9.49295L6.68279 9.34867C7.08653 8.76346 7.56462 8.07041 7.48369 7.2565C7.61821 7.42436 7.699 7.62888 7.7155 7.84336C7.72471 7.94282 7.76932 8.03567 7.84122 8.10502C7.91312 8.17437 8.00752 8.21559 8.10726 8.2212C8.20699 8.22682 8.30542 8.19643 8.38465 8.13559C8.46387 8.07475 8.51861 7.98748 8.53892 7.88968C8.64157 7.41628 8.64024 6.92624 8.53503 6.4534C8.42982 5.98056 8.22324 5.53619 7.92955 5.15097C8.68022 5.40263 9.34249 5.86523 9.83714 6.48343C10.2416 6.9935 10.536 7.58189 10.7016 8.21144C10.8673 8.841 10.9006 9.49806 10.7995 10.1411C10.7854 10.2323 10.8019 10.3256 10.8465 10.4064C10.8911 10.4872 10.9612 10.5509 11.0459 10.5875C11.1306 10.6241 11.2251 10.6315 11.3145 10.6087C11.4039 10.5858 11.4832 10.5338 11.5398 10.461C11.7996 10.1351 12.0087 9.7719 12.1602 9.38365C12.2298 9.7894 12.2579 10.2012 12.2439 10.6126C12.2633 11.18 12.118 11.7408 11.8256 12.2274C11.5332 12.7139 11.1061 13.1054 10.596 13.3545Z" fill="currentColor"/>
</svg>
