<svg xmlns="http://www.w3.org/2000/svg" width="32" height="32" viewBox="0 0 32 32" fill="none">
  <path d="M28.3753 4.36605L16.5406 0.0956054C16.364 0.0319043 16.1821 0 15.997 0C15.811 0 15.6265 0.0322266 15.449 0.0965722L3.6568 4.36702C3.01946 4.59819 2.57227 5.20373 2.57227 5.88178V15.9999C2.57227 18.2589 3.30037 20.5182 4.68987 22.7149C5.75496 24.3985 7.23738 26.0496 9.0729 27.6226C12.1419 30.2525 15.1871 31.7695 15.3151 31.8327C15.5402 31.9441 15.7879 32 16.0328 32C16.2739 32 16.5167 31.9459 16.7393 31.8376C16.8672 31.7753 19.911 30.2819 22.983 27.6624C24.8203 26.0958 26.2805 24.4447 27.3463 22.7552C28.7353 20.5538 29.4276 18.281 29.4276 15.9999V5.88178C29.4277 5.20265 29.0142 4.59637 28.3753 4.36605ZM5.15039 15.9924V7.08651C5.15039 6.74749 5.35814 6.44467 5.67686 6.32908L15.7006 2.68243C15.79 2.6501 15.8926 2.62625 16 2.62625V16.0001H26.926C26.9266 16.0001 26.9274 16.0146 26.9274 16.0238C26.9252 18.938 25.4574 21.8263 22.5653 24.6385C20.3068 26.8347 17.7408 28.4021 16.4209 29.1415C16.2985 29.2101 16.1075 29.2425 16.0001 29.2425C16.0001 28.9919 16.0001 16.139 16.0001 15.9959L5.15039 15.9924Z" fill="#CCCCCC"/>
</svg>
