<svg xmlns="http://www.w3.org/2000/svg" width="49" height="49" viewBox="0 0 49 49" fill="none">
  <path d="M34.1748 16.5601L23.0666 27.6683L18.1599 22.7616L16.1836 24.7379L23.0666 31.6209L36.1512 18.5364L34.1748 16.5601Z" fill="currentColor"/>
  <path d="M3.37458 12.9482C3.37458 27.3958 11.1435 40.8892 23.6829 48.1811L24.3644 48.59L25.0459 48.1811C37.5852 40.9573 45.3542 27.4639 45.3542 12.9482V12.1305L24.2962 0L3.23828 12.1305V12.9482H3.37458ZM24.4325 3.20299L42.6282 13.6979V13.9023C42.2875 26.7143 35.5407 38.4358 24.5688 45.1144L24.3644 45.2507L24.1599 45.1144C13.188 38.3677 6.44127 26.7143 6.10053 13.9023V13.6979L24.2962 3.20299H24.4325Z" fill="currentColor"/>
</svg>
