<svg xmlns="http://www.w3.org/2000/svg" width="32" height="32" viewBox="0 0 32 32" fill="none">
  <g>
    <path d="M9.75021 27.8499C9.55021 27.6999 9.30021 27.5499 9.10021 27.4499C9.15022 27.0499 9.10021 26.5999 9.00021 26.1499C8.80021 25.3999 8.40022 24.6999 7.85021 24.0499C7.35021 24.4499 7.10021 25.1499 7.20021 25.8999C6.85021 25.5499 6.50022 25.1999 6.20021 24.8499C6.40021 24.4999 6.50022 24.0499 6.50022 23.5999C6.55022 22.8499 6.40022 22.0999 6.05022 21.3499C5.40022 21.5999 5.00022 22.2499 4.90022 22.9999C4.65022 22.5999 4.45021 22.1499 4.25022 21.7499C4.55022 21.4499 4.80021 21.0499 4.95021 20.5999C5.20021 19.8999 5.25022 19.1499 5.10021 18.3499C4.40022 18.4499 3.80021 18.9499 3.50021 19.6999C3.35021 19.1999 3.25021 18.7499 3.20021 18.2499C3.60021 18.0499 3.95021 17.6999 4.20021 17.2999C4.60021 16.6999 4.90021 15.9499 4.95021 15.1499C4.20021 15.0499 3.45021 15.4499 3.00021 16.1499C3.00021 15.6499 3.05021 15.0999 3.10021 14.5999C3.55021 14.4999 4.00022 14.2499 4.40022 13.9499C4.95022 13.4999 5.40021 12.8499 5.70021 12.0999C5.00022 11.7999 4.15021 11.9999 3.50021 12.5999C3.65021 12.0999 3.80021 11.5499 4.00021 11.0499C4.50021 11.0999 5.00022 10.9499 5.45021 10.7499C6.10021 10.4499 6.70021 9.9499 7.20021 9.2499C6.60021 8.7499 5.70022 8.7499 4.90022 9.1999C5.20022 8.6999 5.50022 8.2499 5.85021 7.7999C6.30021 7.9999 6.85021 7.9999 7.40022 7.8999C8.15022 7.7499 8.90022 7.4499 9.60021 6.8999C9.15022 6.2499 8.25022 5.9999 7.30022 6.2499C8.00022 5.5999 8.75021 4.9999 9.65021 4.4999C9.90021 4.3499 10.0002 4.0499 9.85021 3.7999C9.70022 3.5499 9.35021 3.4499 9.10021 3.5999C8.15022 4.1499 7.30022 4.7999 6.55022 5.4999C6.95022 4.4999 7.00022 3.5999 6.55022 2.8999C5.65022 3.4999 5.00022 4.4999 4.85021 5.3499C4.70021 5.9999 4.80021 6.5499 5.10021 6.9999C4.70021 7.4999 4.35021 8.0499 4.05022 8.5499C4.15022 7.4999 3.90021 6.5999 3.30021 6.0999C2.60021 7.0499 2.30022 8.1499 2.40021 8.9999C2.45021 9.6499 2.70021 10.1499 3.10021 10.4999C2.85021 11.0999 2.65021 11.6499 2.50021 12.2499C2.30021 11.2499 1.85021 10.4499 1.10021 10.0999C0.700215 11.1999 0.700215 12.2999 1.00021 13.0999C1.25021 13.6999 1.60021 14.0999 2.10021 14.3499C2.00021 14.9499 2.00021 15.5499 2.00021 16.1499C1.55021 15.2499 0.900215 14.6499 0.100215 14.5499C0.00021486 15.6999 0.300215 16.7499 0.800215 17.4499C1.15021 17.9499 1.65021 18.2499 2.15021 18.3499C2.20021 18.9499 2.35021 19.4999 2.45021 20.0499C1.80021 19.3499 1.05021 18.9499 0.250215 19.0499C0.450215 20.1999 1.00021 21.1499 1.70021 21.6499C2.15021 22.0499 2.70021 22.1999 3.15021 22.1499C3.35021 22.6499 3.60021 23.1999 3.85021 23.6499C3.00021 23.2999 2.20021 23.0999 1.50021 23.3999C2.00021 24.4499 2.80021 25.2499 3.60021 25.5999C4.15021 25.8499 4.65022 25.8499 5.10021 25.7499C5.45021 26.1999 5.80021 26.5999 6.20021 26.9999C5.35021 26.7999 4.60021 26.8499 4.05022 27.2999C4.85021 28.1999 5.90022 28.7499 6.80022 28.8999C7.35022 28.9999 7.85021 28.8999 8.25021 28.6999C8.45021 28.8499 8.70021 28.9999 8.90021 29.1499C9.30021 29.3999 9.80021 29.2499 10.0002 28.8499C10.2002 28.4999 10.1002 28.0499 9.75021 27.8499Z" fill="#CCCCCC"/>
    <path d="M29.6507 20.0499C29.8007 19.5 29.9007 18.9 29.9507 18.35C30.4507 18.25 30.9007 17.95 31.3007 17.45C31.8007 16.75 32.1007 15.7 32.0007 14.55C31.2007 14.65 30.5507 15.3 30.1007 16.15C30.1007 15.55 30.0507 14.95 30.0007 14.35C30.4507 14.15 30.8507 13.7 31.1007 13.1C31.4007 12.3 31.4507 11.2 31.0007 10.1C30.2507 10.45 29.8007 11.25 29.6007 12.25C29.4507 11.65 29.2507 11.05 29.0007 10.5C29.4007 10.15 29.6507 9.64995 29.7007 8.99995C29.8007 8.14995 29.5007 7.04995 28.8007 6.09995C28.1507 6.59995 27.9507 7.54995 28.0507 8.54995C27.6507 7.99995 27.3007 7.49995 26.9007 6.99995C27.2007 6.59995 27.3007 5.99995 27.1507 5.34995C27.0007 4.49995 26.3507 3.49995 25.3507 2.69995C24.9007 3.34995 24.9507 4.29995 25.3507 5.29995C24.6007 4.59995 23.7507 3.94995 22.8007 3.39995C22.5507 3.24995 22.2007 3.34995 22.0507 3.59995C21.9007 3.84995 22.0007 4.14995 22.2507 4.29995C23.1007 4.79995 23.9007 5.39995 24.6007 6.04995C23.6507 5.79995 22.7507 6.04995 22.3007 6.69995C23.0007 7.24995 23.7507 7.54995 24.5007 7.69995C25.0507 7.79995 25.6007 7.79995 26.0507 7.59995C26.4007 8.04995 26.7507 8.54995 27.0007 8.99995C26.2007 8.54995 25.3007 8.54995 24.7007 9.04995C25.2007 9.69995 25.8007 10.25 26.4507 10.55C26.9507 10.8 27.4507 10.9 27.9007 10.85C28.1007 11.35 28.2507 11.85 28.4007 12.4C27.7507 11.8 26.9007 11.6 26.2007 11.9C26.5007 12.65 26.9507 13.3 27.5007 13.75C27.9007 14.1 28.3507 14.3 28.8007 14.4C28.8507 14.9 28.9007 15.45 28.9007 15.95C28.4507 15.25 27.7007 14.85 26.9507 14.95C27.0507 15.75 27.3007 16.5 27.7007 17.1C27.9507 17.5 28.3007 17.85 28.7007 18.05C28.6007 18.55 28.5007 19 28.4007 19.5C28.1007 18.75 27.5507 18.2 26.8007 18.15C26.6507 18.95 26.7507 19.75 26.9507 20.4C27.1007 20.85 27.3007 21.25 27.6507 21.5499C27.4507 22 27.2507 22.4 27.0007 22.7999C26.9007 22.0499 26.5007 21.4 25.8507 21.15C25.5007 21.9 25.3507 22.65 25.4007 23.4C25.4007 23.85 25.5007 24.2999 25.7007 24.65C25.4007 25 25.0507 25.35 24.7007 25.7C24.8007 24.95 24.6007 24.25 24.0507 23.85C23.5007 24.5 23.1007 25.2 22.9007 25.95C22.8007 26.4 22.7507 26.85 22.8007 27.25C22.6007 27.4 22.4007 27.5499 22.1507 27.65C21.8007 27.85 21.7007 28.2999 21.8507 28.65C22.0507 29.0499 22.5507 29.2 22.9507 28.95C23.2007 28.8 23.4007 28.65 23.6007 28.5C24.0007 28.7 24.5007 28.8 25.0507 28.7C25.9507 28.55 27.0007 28 27.8007 27.1C27.2507 26.65 26.5007 26.5999 25.6507 26.7999C26.0507 26.4 26.4007 26 26.7507 25.5499C27.2007 25.65 27.7007 25.6 28.2507 25.4C29.0507 25.0499 29.8507 24.3 30.3507 23.2C29.6507 22.9 28.8507 23.0999 28.1007 23.5499C28.3507 23.0499 28.6007 22.5499 28.8007 22.0499C29.3007 22.0499 29.8007 21.9 30.2507 21.5499C30.9007 21 31.5007 20.1 31.7007 18.95C31.0507 18.95 30.3007 19.4 29.6507 20.0499Z" fill="#CCCCCC"/>
    <path d="M22.1498 24.65L21.0998 18.6L25.4998 14.3C25.6498 14.15 25.6998 13.95 25.6498 13.8C25.5998 13.6 25.4498 13.5 25.2498 13.45L19.1498 12.55L16.4498 7.05C16.3498 6.9 16.1998 6.75 15.9998 6.75C15.7998 6.75 15.6498 6.85 15.5498 7.05L12.8498 12.55L6.7498 13.45C6.5498 13.5 6.3998 13.6 6.3498 13.8C6.2998 14 6.3498 14.2 6.4998 14.3L10.8998 18.6L9.84981 24.65C9.79981 24.85 9.8998 25.05 10.0498 25.15C10.1998 25.25 10.3998 25.3 10.5998 25.2L15.9998 22.3L21.4498 25.15C21.4998 25.2 21.5998 25.2 21.6998 25.2C21.7998 25.2 21.8998 25.15 21.9998 25.1C22.0998 25 22.1998 24.85 22.1498 24.65Z" fill="#CCCCCC"/>
  </g>
</svg>
