<svg xmlns="http://www.w3.org/2000/svg" width="24" height="24" viewBox="0 0 24 24" fill="none">
  
    <path d="M6.74879 24.0521C6.40971 24.0521 6.11271 23.8247 6.02444 23.497L5.46269 21.4107C5.17596 20.3458 4.37909 19.5046 3.33134 19.1607L1.96169 18.7114C1.65374 18.6103 1.44531 18.3228 1.44531 17.9987C1.44531 17.6746 1.65366 17.3872 1.96169 17.2861L3.33134 16.8367C4.37909 16.4929 5.17596 15.6517 5.46269 14.5864L6.02444 12.5005C6.11271 12.1727 6.40971 11.9453 6.74879 11.9453C7.08786 11.9453 7.38486 12.1727 7.47314 12.5005L8.03489 14.5867C8.32161 15.6517 9.11849 16.4929 10.1662 16.8367L11.5359 17.2861C11.8438 17.3872 12.0523 17.6746 12.0523 17.9987C12.0523 18.3228 11.8439 18.6103 11.5359 18.7114L10.1662 19.1607C9.11849 19.5046 8.32161 20.3458 8.03489 21.4111L7.47314 23.497C7.38486 23.8247 7.08786 24.0521 6.74879 24.0521ZM4.44059 17.9986C5.49711 18.5242 6.31889 19.4218 6.74879 20.5258C7.17869 19.4221 8.00046 18.5242 9.05699 17.9986C8.00046 17.4731 7.17869 16.5755 6.74879 15.4714C6.31889 16.5752 5.49711 17.4731 4.44059 17.9986Z" fill="currentColor"/>
    <path d="M15.0012 18C14.6621 18 14.3654 17.7726 14.2768 17.4452L13.4031 14.2002C12.9204 12.4069 11.5786 10.9907 9.81419 10.4117L7.68397 9.71265C7.37602 9.61155 7.16797 9.32407 7.16797 9C7.16797 8.67593 7.37594 8.38845 7.68397 8.28735L9.81419 7.58827C11.5786 7.00927 12.9204 5.59312 13.4031 3.7998L14.2768 0.554775C14.3655 0.2274 14.6621 0 15.0012 0C15.3403 0 15.637 0.2274 15.7255 0.554775L16.5993 3.7998C17.082 5.59312 18.4237 7.00927 20.1874 7.58827L22.318 8.28735C22.6264 8.38845 22.8344 8.67593 22.8344 9C22.8344 9.32407 22.6264 9.61155 22.318 9.71265L20.1874 10.4117C18.4237 10.9907 17.082 12.4069 16.5993 14.2002L15.7255 17.4452C15.6369 17.7726 15.3403 18 15.0012 18ZM10.3228 9C12.5491 9.74557 14.2402 11.5404 14.8518 13.8098L15.0012 14.3653L15.1506 13.8098C15.7621 11.5404 17.4533 9.74528 19.6792 9C17.4533 8.25472 15.7621 6.4596 15.1506 4.19018L15.0012 3.63465L14.8518 4.19018C14.2402 6.4596 12.5491 8.25435 10.3228 9Z" fill="currentColor"/>
    <path d="M4.5 4.5C4.08585 4.5 3.75 4.16415 3.75 3.75V3C3.75 2.58585 4.08585 2.25 4.5 2.25C4.91415 2.25 5.25 2.58585 5.25 3V3.75C5.25 4.16415 4.91415 4.5 4.5 4.5Z" fill="currentColor"/>
    <path d="M3 6H2.25C1.83585 6 1.5 5.66415 1.5 5.25C1.5 4.83585 1.83585 4.5 2.25 4.5H3C3.41415 4.5 3.75 4.83585 3.75 5.25C3.75 5.66415 3.41415 6 3 6Z" fill="currentColor"/>
    <path d="M4.5 8.25C4.08585 8.25 3.75 7.91415 3.75 7.5V6.75C3.75 6.33585 4.08585 6 4.5 6C4.91415 6 5.25 6.33585 5.25 6.75V7.5C5.25 7.91415 4.91415 8.25 4.5 8.25Z" fill="currentColor"/>
    <path d="M6.75 6H6C5.58585 6 5.25 5.66415 5.25 5.25C5.25 4.83585 5.58585 4.5 6 4.5H6.75C7.16415 4.5 7.5 4.83585 7.5 5.25C7.5 5.66415 7.16415 6 6.75 6Z" fill="currentColor"/>
    <path d="M19.5 19.5C19.0855 19.5 18.75 19.1641 18.75 18.75V18C18.75 17.5859 19.0855 17.25 19.5 17.25C19.9145 17.25 20.25 17.5859 20.25 18V18.75C20.25 19.1641 19.9145 19.5 19.5 19.5Z" fill="currentColor"/>
    <path d="M18 21H17.25C16.8355 21 16.5 20.6641 16.5 20.25C16.5 19.8359 16.8355 19.5 17.25 19.5H18C18.4145 19.5 18.75 19.8359 18.75 20.25C18.75 20.6641 18.4145 21 18 21Z" fill="currentColor"/>
    <path d="M19.5 23.25C19.0855 23.25 18.75 22.9141 18.75 22.5V21.75C18.75 21.3359 19.0855 21 19.5 21C19.9145 21 20.25 21.3359 20.25 21.75V22.5C20.25 22.9141 19.9145 23.25 19.5 23.25Z" fill="currentColor"/>
    <path d="M21.75 21H21C20.5855 21 20.25 20.6641 20.25 20.25C20.25 19.8359 20.5855 19.5 21 19.5H21.75C22.1645 19.5 22.5 19.8359 22.5 20.25C22.5 20.6641 22.1645 21 21.75 21Z" fill="currentColor"/>
 
 
</svg>