<svg width="226" height="144" viewBox="0 0 226 144" fill="none" xmlns="http://www.w3.org/2000/svg">
<path fill-rule="evenodd" clip-rule="evenodd" d="M115 57C45 117.4 9.16667 137.833 0 140.5L140.5 142L183.5 83.5L221 143.5L225.5 140.5L186.5 78.5L101 77.2955C110.766 68.8229 117.585 62.4615 118.5 60.5C121.3 54.5 117.333 55.6667 115 57ZM29 136.5C28.5768 137.77 38.5413 137.606 43.4314 137.526C44.3189 137.512 45.0392 137.5 45.5 137.5C47.9 137.5 79.1667 113.167 94.5 101C96.8333 100 100.8 99.5 98 105.5L58.5 137.5H76.5L113 110C123.833 104 139.9 96.5 117.5 114.5C95.1 132.5 89.1667 137.333 89 137.5H137L176.5 83.5L94.5 82.8786C74.396 99.9971 46.3311 122.696 29 136.5Z" fill="#90897E"/>
<path d="M106 40.5L25.5 110L29 113L110 44L106 40.5Z" fill="#90897E"/>
<path d="M63 62.5C63 64.1 47 78.8333 39 86L35 84.5L40.5 78.5C55.5 62.5 63 60.5 63 62.5Z" fill="#90897E"/>
<path d="M71 31L74.5638 37.6059L81.5 41L74.5638 44.3941L71 51L67.4362 44.3941L60.5 41L67.4362 37.6059L71 31Z" fill="#F7C436"/>
<path d="M171 0L175.243 7.92706L183.5 12L175.243 16.0729L171 24L166.757 16.0729L158.5 12L166.757 7.92706L171 0Z" fill="#F7C436"/>
<path d="M112.115 15.7838C112.108 15.7838 112.014 15.818 111.818 15.9593C111.526 16.1707 111.323 16.8059 111.041 17.5293C110.792 18.1694 110.646 18.9634 110.512 20.0659C110.219 22.4672 110.853 23.287 111.228 23.9912C111.538 24.5746 111.822 24.933 112.591 25.4537C113.527 26.0868 113.847 26.2244 114.211 26.4392C114.396 26.5484 114.662 26.6225 115.191 26.77L115.222 26.7787C116.234 27.0608 117.764 27.0977 119.304 27.0445C119.992 27.0207 120.48 26.8261 121.31 26.6156C122.14 26.4051 123.294 26.1394 124.314 25.7962C126.225 25.1529 127.192 24.5139 127.441 24.3062C127.676 24.1111 128.222 23.3643 129.239 22.0685C130.377 20.6199 131.263 19.7228 131.554 19.2111C131.901 18.5996 132.183 17.2472 132.502 15.6452C132.69 14.6985 132.616 14.2793 132.546 14.0703C132.323 13.4076 131.594 12.3809 130.893 11.3821C130.231 10.4375 129.288 9.85232 128.805 9.52297C128.014 8.98264 126.492 8.82511 124.91 8.71964C123.889 8.65163 122.422 8.69038 121.542 8.7189C120.41 8.75558 119.765 9.03099 119.05 9.39054C118.718 9.55775 118.477 9.75129 117.759 10.4085C117.041 11.0657 115.86 12.1954 115.221 12.8128C114.383 13.6226 114.08 13.8192 113.768 14.059C113.625 14.2179 113.44 14.4272 113.134 14.7666C112.943 14.9839 112.677 15.2926 112.181 15.6392M182.65 49.7915C182.65 49.8291 182.651 49.8781 182.654 49.9367M182.654 49.9367C182.675 50.4158 182.786 51.5344 183.003 52.2975C183.398 53.6823 185.031 55.0334 185.538 55.5047C185.821 55.7671 186.743 56.0847 187.849 56.5355C188.442 56.7771 188.856 56.9453 189.453 57.0794C190.192 57.2455 191.402 57.2032 192.756 57.1275C193.704 57.0745 194.392 56.788 195.178 56.3571C196.312 55.7354 197.245 54.6923 197.982 53.8232C198.331 53.4128 198.57 53.0179 198.933 52.3593C199.796 50.796 200.333 49.4678 200.472 48.7152C200.62 47.9205 200.38 46.6973 200.106 45.4186C199.89 44.4069 199.638 43.9347 199.108 43.1294C198.792 42.6485 198.122 41.8932 197.447 41.2032C196.14 39.8684 195.249 39.2988 195.036 39.2168C194.824 39.1349 194.326 39.142 193.463 39.2145C192.371 39.3061 191.162 39.8447 189.866 40.558C189.168 40.942 188.458 41.4898 187.415 42.4686C186.373 43.4475 185.037 44.8714 184.251 45.7463C183.027 47.2967 182.807 48.3096 182.719 49.3855C182.706 49.5573 182.684 49.7339 182.654 49.9367ZM182.654 49.9367C182.643 50.0054 182.632 50.0771 182.62 50.1526M156.783 41.3831C156.809 41.4021 157.156 41.8175 158.013 43.1479C158.589 44.0408 159.236 45.5043 159.853 46.902C160.471 48.2996 160.984 49.62 161.27 50.4034C161.628 51.3833 161.652 51.7632 161.626 52.0258C161.591 52.381 161.043 52.4784 160.785 52.7711C160.317 53.3028 159.995 54.7789 159.726 55.4909C159.52 56.0374 159.239 56.3113 159.064 56.6766C158.977 56.8567 158.764 56.9793 158.046 57.61C156.481 58.9853 155.583 60.333 155.197 60.6638C154.165 61.5494 153.754 61.7118 153.305 61.8312C152.511 62.042 151.553 62.9358 150.435 63.3331C148.628 63.9752 147.528 64.3636 146.578 64.7154C146.228 64.8451 145.214 64.8131 143.857 64.8079C142.814 64.8039 141.442 64.5777 140.105 64.0391C139.065 63.6202 138.449 62.5364 137.586 61.5353C136.36 60.1138 135.39 59.3628 135.239 59.1163C134.82 58.4301 134.633 57.7412 134.401 56.6962C134.27 56.1064 134.168 55.0079 134.072 54.0329C133.894 52.2343 133.876 51.2518 133.853 50.6712C133.805 49.4419 133.891 48.5256 134.055 48.0941C134.374 47.251 134.777 46.4853 135.107 45.951C135.828 44.7866 136.829 44.2293 138.23 43.4595C139.091 42.9863 140.317 42.4604 141.027 42.1486C141.903 41.7644 143.177 41.536 144.893 41.2167C145.667 41.0727 146.09 40.9148 147.642 40.7516C148.903 40.619 151.141 40.5649 152.37 40.527C154.264 40.5693 155.622 40.7788 156.391 41.0161C156.513 41.0601 156.599 41.089 156.748 41.1296" stroke="#90897E" stroke-width="4" stroke-linecap="round"/>
</svg>
