<svg width="40" height="40" viewBox="0 0 40 40" fill="none">
              <path
                d="M32.392 12.0167C32.567 11.05 32.5243 10.0565 32.267 9.10839C31.9611 7.97129 31.3595 6.93549 30.5234 6.10635C29.6873 5.27721 28.6465 4.68431 27.5069 4.38798C26.3673 4.09164 25.1695 4.10244 24.0354 4.41927C22.9013 4.73609 21.8714 5.34765 21.0503 6.19173C20.3654 4.60873 19.1558 3.31018 17.6253 2.51485C16.0948 1.71953 14.3369 1.47603 12.6479 1.82539C10.9588 2.17475 9.44178 3.09561 8.35236 4.43284C7.26295 5.77006 6.66773 7.44191 6.66699 9.16673C6.66283 9.24723 6.66283 9.32789 6.66699 9.40839C5.24854 9.79042 3.99318 10.6242 3.09099 11.7835C2.18879 12.9429 1.6889 14.3646 1.66699 15.8334V15.9167C1.72369 17.9179 2.56431 19.8168 4.00772 21.204C5.45113 22.5913 7.38178 23.3561 9.38366 23.3334H16.3003L14.217 28.8751C14.1698 29.0013 14.154 29.1372 14.1708 29.2709C14.1877 29.4046 14.2367 29.5323 14.3137 29.6429C14.3908 29.7535 14.4935 29.8438 14.6131 29.906C14.7326 29.9682 14.8655 30.0005 15.0003 30.0001H17.217L15.0003 37.2584C14.9445 37.4421 14.9537 37.6395 15.0266 37.8172C15.0995 37.9948 15.2315 38.1418 15.4003 38.2334C15.533 38.3054 15.6828 38.3399 15.8337 38.3334C15.954 38.3334 16.073 38.3073 16.1823 38.257C16.2916 38.2066 16.3888 38.1332 16.467 38.0417L25.6337 27.2084C25.7372 27.0873 25.8039 26.9391 25.8258 26.7813C25.8477 26.6235 25.8239 26.4628 25.7573 26.3181C25.6906 26.1734 25.5839 26.0508 25.4498 25.9649C25.3156 25.879 25.1596 25.8334 25.0003 25.8334H22.067L23.067 23.3334H33.3337C34.6597 23.3334 35.9315 22.8066 36.8692 21.8689C37.8069 20.9312 38.3337 19.6595 38.3337 18.3334C38.366 17.5266 38.2371 16.7215 37.9546 15.9651C37.6722 15.2087 37.2417 14.5162 36.6885 13.9281C36.1353 13.3399 35.4704 12.868 34.7327 12.5398C33.995 12.2116 33.1992 12.0338 32.392 12.0167ZM20.142 27.1334C20.2184 27.2465 20.3215 27.3391 20.4421 27.403C20.5627 27.4669 20.6972 27.5003 20.8337 27.5001H23.2003L17.7837 33.9084L19.167 29.4084C19.2046 29.283 19.2121 29.1505 19.1889 29.0216C19.1658 28.8928 19.1126 28.7712 19.0337 28.6667C18.9527 28.5586 18.8467 28.4718 18.7248 28.4137C18.6028 28.3556 18.4686 28.3281 18.3337 28.3334H16.2003L18.0753 23.3334H21.267L20.0587 26.3584C20.0083 26.4846 19.9896 26.6212 20.0041 26.7562C20.0187 26.8913 20.066 27.0208 20.142 27.1334ZM33.3337 21.6667H9.38366C7.8103 21.6869 6.29248 21.0857 5.15975 19.9935C4.02702 18.9013 3.37084 17.4064 3.33366 15.8334C3.33366 14.0167 4.49199 11.6167 7.75033 10.8334C7.95195 10.7875 8.1293 10.6682 8.24789 10.4988C8.36648 10.3294 8.41784 10.1219 8.39199 9.91673C8.35605 9.66828 8.33657 9.41774 8.33366 9.16673C8.33903 7.71099 8.88851 6.30986 9.87418 5.23857C10.8598 4.16728 12.2105 3.50325 13.6607 3.37692C15.111 3.25058 16.5561 3.67107 17.7121 4.55579C18.8682 5.44051 19.6517 6.72551 19.9087 8.15839C19.939 8.32766 20.021 8.4834 20.1433 8.60425C20.2656 8.72509 20.4224 8.80514 20.592 8.83339C20.7566 8.85484 20.9239 8.82663 21.0723 8.7524C21.2208 8.67816 21.3437 8.56128 21.4253 8.41673C21.912 7.55696 22.6424 6.86063 23.5244 6.41562C24.4065 5.97062 25.4006 5.79688 26.3813 5.91635C27.362 6.03581 28.2853 6.44312 29.0347 7.08687C29.7841 7.73062 30.326 8.58194 30.592 9.53339C30.8687 10.54 30.8162 11.6088 30.442 12.5834C30.3869 12.7209 30.3694 12.8706 30.3914 13.017C30.4134 13.1635 30.474 13.3015 30.567 13.4167C30.6537 13.528 30.7673 13.6154 30.897 13.6708C31.0267 13.7261 31.1683 13.7477 31.3087 13.7334C31.9903 13.6357 32.6849 13.6848 33.346 13.8774C34.0071 14.07 34.6195 14.4016 35.142 14.8501C35.6265 15.2911 36.0126 15.8292 36.2754 16.4294C36.5381 17.0295 36.6716 17.6783 36.667 18.3334C36.667 19.2174 36.3158 20.0653 35.6907 20.6904C35.0656 21.3155 34.2177 21.6667 33.3337 21.6667Z"
                fill="currentColor"></path>
              <path
                d="M7.95824 27.4082C8.07351 27.4699 8.20251 27.5014 8.33324 27.4999C8.48713 27.4994 8.63788 27.4563 8.76879 27.3754C8.8997 27.2945 9.00566 27.179 9.07491 27.0415L9.90824 25.3749C9.98913 25.1806 9.99354 24.963 9.92059 24.7656C9.84764 24.5683 9.70273 24.4058 9.51496 24.3108C9.32718 24.2159 9.11044 24.1955 8.90825 24.2538C8.70606 24.312 8.53339 24.4446 8.42491 24.6249L7.59157 26.2915C7.49273 26.4884 7.47581 26.7163 7.54452 26.9255C7.61323 27.1348 7.76197 27.3083 7.95824 27.4082Z"
                fill="currentColor"></path>
              <path
                d="M32.0416 24.2586C31.8448 24.1597 31.6168 24.1428 31.4076 24.2115C31.1983 24.2802 31.0248 24.429 30.9249 24.6252L30.0916 26.2919C29.9927 26.4887 29.9758 26.7166 30.0445 26.9259C30.1132 27.1351 30.262 27.3087 30.4582 27.4086C30.5735 27.4703 30.7025 27.5018 30.8332 27.5002C30.9871 27.4998 31.1379 27.4567 31.2688 27.3758C31.3997 27.2949 31.5057 27.1793 31.5749 27.0419L32.4082 25.3752C32.5071 25.1784 32.524 24.9505 32.4553 24.7412C32.3866 24.532 32.2378 24.3585 32.0416 24.2586Z"
                fill="currentColor"></path>
              <path
                d="M7.12523 35.7417C7.2405 35.8034 7.3695 35.8349 7.50023 35.8334C7.65412 35.8329 7.80488 35.7898 7.93579 35.7089C8.0667 35.628 8.17265 35.5125 8.2419 35.375L9.07523 33.7084C9.15612 33.5141 9.16053 33.2965 9.08758 33.0991C9.01464 32.9017 8.86973 32.7393 8.68195 32.6443C8.49418 32.5494 8.27744 32.529 8.07525 32.5873C7.87305 32.6455 7.70038 32.7781 7.5919 32.9584L6.75857 34.625C6.65972 34.8218 6.64281 35.0498 6.71151 35.259C6.78022 35.4683 6.92896 35.6418 7.12523 35.7417Z"
                fill="currentColor"></path>
              <path
                d="M22.5002 35.8334C22.6541 35.8329 22.8049 35.7898 22.9358 35.7089C23.0667 35.628 23.1726 35.5125 23.2419 35.375L24.0752 33.7084C24.1561 33.5141 24.1605 33.2965 24.0876 33.0991C24.0146 32.9017 23.8697 32.7393 23.682 32.6443C23.4942 32.5494 23.2774 32.529 23.0752 32.5873C22.8731 32.6455 22.7004 32.7781 22.5919 32.9584L21.7586 34.625C21.6597 34.8218 21.6428 35.0498 21.7115 35.259C21.7802 35.4683 21.929 35.6418 22.1252 35.7417C22.2405 35.8034 22.3695 35.8349 22.5002 35.8334Z"
                fill="currentColor"></path>
              <path
                d="M29.6252 35.7417C29.7405 35.8034 29.8695 35.8349 30.0002 35.8334C30.1541 35.8329 30.3049 35.7898 30.4358 35.7089C30.5667 35.628 30.6726 35.5125 30.7419 35.375L31.5752 33.7084C31.6561 33.5141 31.6605 33.2965 31.5876 33.0991C31.5146 32.9017 31.3697 32.7393 31.1819 32.6443C30.9942 32.5494 30.7774 32.529 30.5752 32.5873C30.3731 32.6455 30.2004 32.7781 30.0919 32.9584L29.2586 34.625C29.1597 34.8218 29.1428 35.0498 29.2115 35.259C29.2802 35.4683 29.429 35.6418 29.6252 35.7417Z"
                fill="currentColor"></path>
              <path
                d="M11.6672 31.6669C11.8211 31.6664 11.9719 31.6233 12.1028 31.5424C12.2337 31.4615 12.3396 31.346 12.4089 31.2085L13.2422 29.5419C13.3231 29.3476 13.3275 29.13 13.2546 28.9326C13.1816 28.7352 13.0367 28.5728 12.8489 28.4778C12.6612 28.3829 12.4444 28.3625 12.2422 28.4208C12.04 28.479 11.8674 28.6116 11.7589 28.7919L10.9256 30.4585C10.8267 30.6553 10.8098 30.8833 10.8785 31.0925C10.9472 31.3018 11.096 31.4753 11.2922 31.5752C11.4075 31.6369 11.5365 31.6684 11.6672 31.6669Z"
                fill="currentColor"></path>
              <path
                d="M26.6672 31.6668C26.8211 31.6663 26.9719 31.6233 27.1028 31.5424C27.2337 31.4615 27.3396 31.3459 27.4089 31.2085L28.2422 29.5418C28.3013 29.4436 28.3395 29.3343 28.3544 29.2207C28.3694 29.107 28.3607 28.9916 28.329 28.8815C28.2972 28.7713 28.2431 28.6689 28.1701 28.5807C28.097 28.4924 28.0065 28.4202 27.9042 28.3685C27.8019 28.3168 27.6901 28.2867 27.5757 28.2802C27.4613 28.2736 27.3468 28.2908 27.2393 28.3305C27.1318 28.3702 27.0337 28.4317 26.951 28.5111C26.8683 28.5904 26.8029 28.686 26.7589 28.7918L25.9256 30.4585C25.8267 30.6553 25.8098 30.8832 25.8785 31.0924C25.9472 31.3017 26.096 31.4752 26.2922 31.5751C26.4075 31.6368 26.5365 31.6684 26.6672 31.6668Z"
                fill="currentColor"></path>
              <path
                d="M33.7922 31.5752C33.9075 31.6369 34.0365 31.6684 34.1672 31.6669C34.3211 31.6664 34.4719 31.6233 34.6028 31.5424C34.7337 31.4615 34.8396 31.346 34.9089 31.2085L35.7422 29.5419C35.8231 29.3476 35.8275 29.13 35.7546 28.9326C35.6816 28.7352 35.5367 28.5728 35.3489 28.4778C35.1612 28.3829 34.9444 28.3625 34.7422 28.4208C34.54 28.479 34.3674 28.6116 34.2589 28.7919L33.4256 30.4585C33.3267 30.6553 33.3098 30.8833 33.3785 31.0925C33.4472 31.3018 33.596 31.4753 33.7922 31.5752Z"
                fill="currentColor"></path>
              <path
                d="M4.16723 31.6669C4.32111 31.6664 4.47187 31.6233 4.60278 31.5424C4.73369 31.4615 4.83964 31.346 4.90889 31.2085L5.74222 29.5419C5.82311 29.3476 5.82752 29.13 5.75458 28.9326C5.68163 28.7352 5.53672 28.5728 5.34894 28.4778C5.16117 28.3829 4.94443 28.3625 4.74224 28.4208C4.54005 28.479 4.36738 28.6116 4.25889 28.7919L3.42556 30.4585C3.32672 30.6553 3.3098 30.8833 3.3785 31.0925C3.44721 31.3018 3.59595 31.4753 3.79223 31.5752C3.90749 31.6369 4.03649 31.6684 4.16723 31.6669Z"
                fill="currentColor"></path>
            </svg>