<svg xmlns="http://www.w3.org/2000/svg" width="24" height="24" viewBox="0 0 24 24" fill="none">
  <path d="M19.7022 6.27157C19.6074 6.10549 19.4907 5.98989 19.3113 5.9261L14.1072 4.03188C14.1269 3.46657 13.922 2.89516 13.4913 2.46485C12.6051 1.57816 11.1248 1.64913 10.3342 2.65844L5.13812 0.767503C5.13766 0.767034 5.13719 0.767034 5.13719 0.767034C4.7732 0.637003 4.40645 0.829706 4.26953 1.11157L0.976562 7.65063H2.55109L4.90094 2.98375L7.27938 7.65063H8.85766L6.33437 2.69922L9.8875 3.9925C9.90208 4.89588 10.4792 5.66032 11.2952 5.94907V19.6056C11.2952 19.9938 11.6102 20.3088 11.9983 20.3088C12.3864 20.3088 12.7014 19.9938 12.7014 19.6056V5.94907C13.0439 5.82841 13.3518 5.62066 13.593 5.3411L18.0902 6.97797L15.13 12.8584H16.7045L19.0741 8.15125L21.4455 12.8584H23.02L19.7022 6.27157ZM12.497 4.45657C12.2219 4.73172 11.7747 4.73172 11.4995 4.45657C11.2244 4.18141 11.2244 3.73422 11.4995 3.45907C11.7747 3.18391 12.2219 3.18391 12.497 3.45907C12.7726 3.73464 12.7731 4.18052 12.497 4.45657Z" fill="currentColor"/>
  <path d="M12.8295 18.9492H11.1737C9.17603 18.9492 7.55078 20.5744 7.55078 22.5721C7.55078 22.9604 7.86559 23.2752 8.25391 23.2752H15.7492C16.1375 23.2752 16.4523 22.9604 16.4523 22.5721C16.4523 20.5744 14.8271 18.9492 12.8295 18.9492Z" fill="currentColor"/>
  <path d="M23.2953 14.2646H14.8555C14.4672 14.2646 14.1523 14.5795 14.1523 14.9678C14.1523 17.6824 16.3608 19.8908 19.0754 19.8908C21.79 19.8908 23.9984 17.6824 23.9984 14.9678C23.9984 14.5795 23.6836 14.2646 23.2953 14.2646Z" fill="currentColor"/>
  <path d="M9.14531 9.05664H0.703125C0.314813 9.05664 0 9.37145 0 9.75977C0 12.475 2.20898 14.684 4.92422 14.684C7.63945 14.684 9.84844 12.475 9.84844 9.75977C9.84844 9.37145 9.53363 9.05664 9.14531 9.05664Z" fill="currentColor"/>
</svg>