<svg xmlns="http://www.w3.org/2000/svg" width="24" height="24" viewBox="0 0 24 24" fill="none">
  <g>
    <path d="M24 8.31248C24 10.8627 21.9252 12.9375 19.375 12.9375H4.6875C4.16972 12.9375 3.75 12.5178 3.75 12C3.75 11.4822 4.16972 11.0625 4.6875 11.0625H19.375C20.8913 11.0625 22.125 9.82884 22.125 8.31248C22.125 6.79612 20.8913 5.56247 19.375 5.56247C17.8586 5.56247 16.625 6.79612 16.625 8.31248C16.625 8.83027 16.2052 9.24998 15.6875 9.24998C15.1697 9.24998 14.75 8.83027 14.75 8.31248C14.75 5.76225 16.8248 3.68747 19.375 3.68747C21.9252 3.68752 24 5.76225 24 8.31248ZM0.9375 9.24998H8.90625C11.4565 9.24998 13.5313 7.1752 13.5313 4.62497C13.5313 2.07478 11.4565 0 8.90625 0C6.35602 0 4.28123 2.07478 4.28123 4.62502C4.28123 5.1428 4.70095 5.56252 5.21873 5.56252C5.73652 5.56252 6.15623 5.1428 6.15623 4.62502C6.15623 3.10866 7.38989 1.875 8.90625 1.875C10.4226 1.875 11.6563 3.10866 11.6563 4.62502C11.6563 6.14138 10.4226 7.37503 8.90625 7.37503H0.9375C0.419719 7.37503 0 7.79475 0 8.31253C0 8.83031 0.419719 9.24998 0.9375 9.24998ZM15.6875 14.75H0.9375C0.419719 14.75 0 15.1697 0 15.6875C0 16.2053 0.419719 16.625 0.9375 16.625H15.6875C17.2039 16.625 18.4375 17.8587 18.4375 19.375C18.4375 20.8914 17.2039 22.125 15.6875 22.125C14.1712 22.125 12.9375 20.8913 12.9375 19.375C12.9375 18.8572 12.5178 18.4375 12 18.4375C11.4822 18.4375 11.0625 18.8572 11.0625 19.375C11.0625 21.9252 13.1373 24 15.6875 24C18.2377 24 20.3125 21.9252 20.3125 19.375C20.3125 16.8248 18.2377 14.75 15.6875 14.75Z" fill="currentColor"/>
  </g>
</svg>