<svg xmlns="http://www.w3.org/2000/svg" width="16" height="16" viewBox="0 0 16 16" fill="none">
  <g clip-path="url(#clip0_16793_12431)">
    <path d="M6.39109 10.294C6.75732 10.1988 7.00833 9.86803 7.03127 9.45004C7.05447 9.02432 6.82215 8.64552 6.46017 8.5103L5.73677 8.21556C3.10989 7.13205 3.09895 7.13206 2.92662 7.1299C2.64282 7.11524 2.3798 7.26381 2.21176 7.52761C2.21151 7.52814 2.21122 7.52867 2.21094 7.5292C1.88819 8.04401 1.82364 9.43322 1.90257 10.1988C1.9394 10.5335 1.99941 10.7758 2.08475 10.9369C2.22798 11.2108 2.48433 11.3799 2.7652 11.3893C2.78361 11.3903 2.80014 11.3914 2.81749 11.3914C2.96954 11.3914 3.19626 11.3197 5.36995 10.6208C6.10485 10.3863 6.32091 10.3172 6.39109 10.294Z" fill="currentColor"/>
    <path d="M7.65714 10.8202C7.26209 10.6676 6.83078 10.7695 6.58802 11.0701C6.58774 11.0701 6.13401 11.61 6.08788 11.6631C6.08575 11.6655 6.08359 11.6679 6.08147 11.6706C4.24334 13.8277 4.23853 13.8419 4.18092 14.0081C4.13903 14.1206 4.12437 14.2407 4.13744 14.3485C4.15291 14.5106 4.2204 14.6651 4.33937 14.8091C4.7659 15.3186 6.54748 15.9999 7.37143 15.9999C7.43598 15.9999 7.49466 15.9956 7.54642 15.9868C7.85345 15.93 8.0863 15.7438 8.18501 15.476C8.18529 15.4744 8.18583 15.4731 8.18636 15.4717C8.24291 15.3103 8.24609 15.3005 8.25278 12.7619C8.25278 12.7619 8.25838 11.7488 8.25972 11.6941C8.28295 11.3134 8.04632 10.9701 7.65714 10.8202Z" fill="currentColor"/>
    <path d="M13.829 11.2445C13.6913 11.1415 13.686 11.1378 11.2722 10.3456C11.2722 10.3456 10.3496 10.0407 10.2615 10.0092C10.2607 10.0089 10.2602 10.0087 10.2594 10.0084C9.90437 9.87049 9.50531 9.99134 9.24364 10.3141C8.9745 10.6425 8.94009 11.0863 9.15374 11.412L9.56105 12.0754C11.0455 14.4865 11.0628 14.5004 11.1983 14.606C11.3365 14.714 11.5005 14.769 11.6729 14.769C11.7833 14.769 11.8969 14.7466 12.0098 14.7007C12.6777 14.4342 14.0173 12.7308 14.1189 12.0183C14.1632 11.7092 14.06 11.4288 13.829 11.2445Z" fill="currentColor"/>
    <path d="M9.88205 9.1921C9.89993 9.1961 9.91835 9.19769 9.93673 9.19769C9.96845 9.19769 10.0005 9.1921 10.0314 9.18034C10.1483 9.13605 10.3923 9.07656 10.7804 8.98457C10.7807 8.98457 10.781 8.98457 10.7815 8.98429C13.5271 8.31928 13.5458 8.30728 13.6959 8.20994C13.9293 8.05255 14.0536 7.78688 14.0384 7.48092C14.0387 7.46519 14.0379 7.44544 14.0368 7.43396C13.9592 6.69534 12.7695 4.94018 12.1347 4.62968C11.8525 4.49499 11.5529 4.50965 11.3169 4.66835C11.1718 4.7625 11.1718 4.7625 9.66705 6.82044C9.66705 6.82044 9.06128 7.6444 9.03246 7.68282C8.79105 7.97731 8.78174 8.3929 9.00874 8.74178C9.21305 9.05418 9.55049 9.22517 9.88205 9.1921Z" fill="currentColor"/>
    <path d="M7.94738 0.606218C7.86842 0.318416 7.6441 0.108199 7.3312 0.0292386C6.57257 -0.157472 3.90968 0.589682 3.37112 1.14422C3.15746 1.36747 3.07262 1.65984 3.14386 1.92551C3.14814 1.94151 3.15399 1.9567 3.16093 1.97164C3.23589 2.12744 5.67606 5.96852 6.42028 7.13848C6.73237 7.64528 7.07487 7.89976 7.43845 7.89976C7.52488 7.89976 7.61209 7.88535 7.7004 7.85681C8.16747 7.71596 8.38647 7.2753 8.35099 6.54709C8.3112 5.6298 7.9978 0.887893 7.94738 0.606218Z" fill="currentColor"/>
  </g>
  <defs>
    <clipPath id="clip0_16793_12431">
      <rect width="16" height="16" fill="white"/>
    </clipPath>
  </defs>
</svg>
