<svg preserveAspectRatio="none" width="100%" height="100%" overflow="visible" style="display: block;" viewBox="0 0 24 24" fill="none" xmlns="http://www.w3.org/2000/svg">
<g id="Icon - value" clip-path="url(#clip0_17052_48610)">
<path id="Vector" d="M6.75 24.0535C6.41092 24.0535 6.11392 23.8261 6.02565 23.4983L5.4639 21.412C5.17718 20.3471 4.3803 19.5059 3.33255 19.162L1.9629 18.7127C1.65495 18.6116 1.44652 18.3241 1.44652 18.0001C1.44652 17.676 1.65487 17.3885 1.9629 17.2874L3.33255 16.8381C4.3803 16.4942 5.17718 15.653 5.4639 14.5877L6.02565 12.5018C6.11392 12.1741 6.41092 11.9467 6.75 11.9467C7.08908 11.9467 7.38607 12.1741 7.47435 12.5018L8.0361 14.5881C8.32283 15.653 9.1197 16.4942 10.1674 16.8381L11.5371 17.2874C11.845 17.3885 12.0535 17.676 12.0535 18.0001C12.0535 18.3241 11.8451 18.6116 11.5371 18.7127L10.1674 19.162C9.1197 19.5059 8.32283 20.3471 8.0361 21.4124L7.47435 23.4983C7.38607 23.8261 7.08908 24.0535 6.75 24.0535ZM4.4418 18C5.49832 18.5255 6.3201 19.4231 6.75 20.5272C7.1799 19.4234 8.00167 18.5255 9.0582 18C8.00167 17.4745 7.1799 16.5769 6.75 15.4728C6.3201 16.5766 5.49832 17.4745 4.4418 18Z" fill="var(--fill-0, #F2C744)"/>
<path id="Vector_2" d="M15 18C14.6609 18 14.3642 17.7726 14.2757 17.4452L13.4019 14.2002C12.9192 12.4069 11.5774 10.9907 9.813 10.4117L7.68278 9.71265C7.37483 9.61155 7.16678 9.32407 7.16678 9C7.16678 8.67593 7.37475 8.38845 7.68278 8.28735L9.813 7.58827C11.5774 7.00927 12.9192 5.59312 13.4019 3.7998L14.2757 0.554775C14.3643 0.2274 14.6609 0 15 0C15.3391 0 15.6358 0.2274 15.7243 0.554775L16.5981 3.7998C17.0808 5.59312 18.4226 7.00927 20.1863 7.58827L22.3169 8.28735C22.6252 8.38845 22.8332 8.67593 22.8332 9C22.8332 9.32407 22.6253 9.61155 22.3169 9.71265L20.1863 10.4117C18.4226 10.9907 17.0808 12.4069 16.5981 14.2002L15.7243 17.4452C15.6357 17.7726 15.3391 18 15 18ZM10.3217 9C12.5479 9.74557 14.239 11.5404 14.8506 13.8098L15 14.3653L15.1494 13.8098C15.7609 11.5404 17.4521 9.74528 19.678 9C17.4521 8.25472 15.7609 6.4596 15.1494 4.19018L15 3.63465L14.8506 4.19018C14.2391 6.4596 12.5479 8.25435 10.3217 9Z" fill="var(--fill-0, #F2C744)"/>
<path id="Vector_3" d="M4.5 4.5C4.08585 4.5 3.75 4.16415 3.75 3.75V3C3.75 2.58585 4.08585 2.25 4.5 2.25C4.91415 2.25 5.25 2.58585 5.25 3V3.75C5.25 4.16415 4.91415 4.5 4.5 4.5Z" fill="var(--fill-0, #F2C744)"/>
<path id="Vector_4" d="M3.00038 5.99962H2.25038C1.83623 5.99962 1.50038 5.66377 1.50038 5.24962C1.50038 4.83547 1.83623 4.49962 2.25038 4.49962H3.00038C3.41453 4.49962 3.75038 4.83547 3.75038 5.24962C3.75038 5.66377 3.41453 5.99962 3.00038 5.99962Z" fill="var(--fill-0, #F2C744)"/>
<path id="Vector_5" d="M4.5 8.24887C4.08585 8.24887 3.75 7.91302 3.75 7.49887V6.74887C3.75 6.33472 4.08585 5.99887 4.5 5.99887C4.91415 5.99887 5.25 6.33472 5.25 6.74887V7.49887C5.25 7.91302 4.91415 8.24887 4.5 8.24887Z" fill="var(--fill-0, #F2C744)"/>
<path id="Vector_6" d="M6.74963 5.99962H5.99962C5.58547 5.99962 5.24962 5.66377 5.24962 5.24962C5.24962 4.83547 5.58547 4.49962 5.99962 4.49962H6.74963C7.16378 4.49962 7.49963 4.83547 7.49963 5.24962C7.49963 5.66377 7.16378 5.99962 6.74963 5.99962Z" fill="var(--fill-0, #F2C744)"/>
<path id="Vector_7" d="M19.5 19.5C19.0855 19.5 18.75 19.1642 18.75 18.75V18C18.75 17.5858 19.0855 17.25 19.5 17.25C19.9145 17.25 20.25 17.5858 20.25 18V18.75C20.25 19.1642 19.9145 19.5 19.5 19.5Z" fill="var(--fill-0, #F2C744)"/>
<path id="Vector_8" d="M18.0007 20.9996H17.2507C16.8362 20.9996 16.5007 20.6638 16.5007 20.2496C16.5007 19.8355 16.8362 19.4996 17.2507 19.4996H18.0007C18.4153 19.4996 18.7507 19.8355 18.7507 20.2496C18.7507 20.6638 18.4153 20.9996 18.0007 20.9996Z" fill="var(--fill-0, #F2C744)"/>
<path id="Vector_9" d="M19.5 23.2489C19.0855 23.2489 18.75 22.913 18.75 22.4989V21.7489C18.75 21.3347 19.0855 20.9989 19.5 20.9989C19.9145 20.9989 20.25 21.3347 20.25 21.7489V22.4989C20.25 22.913 19.9145 23.2489 19.5 23.2489Z" fill="var(--fill-0, #F2C744)"/>
<path id="Vector_10" d="M21.7493 20.9996H20.9993C20.5847 20.9996 20.2493 20.6638 20.2493 20.2496C20.2493 19.8355 20.5847 19.4996 20.9993 19.4996H21.7493C22.1638 19.4996 22.4993 19.8355 22.4993 20.2496C22.4993 20.6638 22.1638 20.9996 21.7493 20.9996Z" fill="var(--fill-0, #F2C744)"/>
</g>
<defs>
<clipPath id="clip0_17052_48610">
<rect width="24" height="24" fill="white"/>
</clipPath>
</defs>
</svg>
