<svg preserveAspectRatio="none" width="100%" height="100%" overflow="visible" style="display: block;" viewBox="0 0 16 8.01552" fill="none" xmlns="http://www.w3.org/2000/svg">
<g id="Group">
<path id="Vector" d="M10.9956 0.238001C10.6853 -0.075851 10.1795 -0.0798101 9.8643 0.229179L3.95096 6.07355L1.38037 3.41236C1.07378 3.09281 0.566209 3.08232 0.246696 3.38891C-0.072851 3.69551 -0.0833393 4.20308 0.223254 4.52259C0.224643 4.52402 0.225997 4.52544 0.227387 4.52686L3.36166 7.77499C3.51166 7.928 3.71667 8.01466 3.93095 8.01552H3.93977C4.14999 8.01486 4.35156 7.93165 4.50104 7.78381L10.9884 1.36935C11.3019 1.05852 11.3051 0.552824 10.9956 0.238001Z" fill="var(--fill-0, #BF8D30)"/>
<path id="Vector_2" d="M8.17248 7.77499C8.32209 7.92762 8.52644 8.0142 8.74017 8.01552H8.74899C8.95921 8.01486 9.16078 7.93165 9.31026 7.78381L15.7977 1.36935C16.0917 1.03824 16.0617 0.531466 15.7306 0.23741C15.4304 -0.0291743 14.9794 -0.032682 14.6751 0.229179L8.7642 6.07355L8.55332 5.85465C8.24676 5.5351 7.73919 5.52458 7.41964 5.83117C7.1001 6.13773 7.08957 6.6453 7.39617 6.96485C7.39756 6.96631 7.39895 6.96773 7.40033 6.96915L8.17248 7.77499Z" fill="var(--fill-0, #BF8D30)"/>
</g>
</svg>
