<svg preserveAspectRatio="none" width="100%" height="100%" overflow="visible" style="display: block;" viewBox="0 0 24 24" fill="none" xmlns="http://www.w3.org/2000/svg">
<g id="Group">
<path id="Vector" d="M12.6289 19.3457L16.8476 10.9082C17.0814 10.4407 16.7415 9.89063 16.2188 9.89063H12.7031V4.96875C12.7031 4.22681 11.7029 3.9907 11.3711 4.65431L7.15237 13.0918C6.91861 13.5593 7.25855 14.1094 7.78125 14.1094H11.2969V19.0313C11.2969 19.7732 12.2971 20.0093 12.6289 19.3457Z" fill="var(--fill-0, #F2C744)"/>
<path id="Vector_2" d="M22.331 5.89312C22.1331 5.559 21.7018 5.44861 21.3677 5.64647C21.0336 5.84437 20.9232 6.27562 21.121 6.60975V6.6098C22.0845 8.23636 22.5937 10.1002 22.5937 12C22.5937 17.8414 17.8414 22.5937 12 22.5937C9.801 22.5937 7.70428 21.9276 5.93972 20.6912H6.66356C7.05188 20.6912 7.36669 20.3764 7.36669 19.9881C7.36669 19.5998 7.05188 19.285 6.66356 19.285H4.01189C3.62358 19.285 3.30877 19.5998 3.30877 19.9881V22.6398C3.30877 23.0281 3.62358 23.3429 4.01189 23.3429C4.4002 23.3429 4.71502 23.0281 4.71502 22.6398V21.5363C6.7972 23.134 9.33202 24 12 24C15.2053 24 18.2188 22.7518 20.4853 20.4853C22.7518 18.2188 24 15.2053 24 12C24 9.84825 23.4229 7.73653 22.331 5.89312Z" fill="var(--fill-0, #F2C744)"/>
<path id="Vector_3" d="M1.40625 12C1.40625 6.15858 6.15858 1.40625 12 1.40625C14.199 1.40625 16.2957 2.07244 18.0603 3.30877H17.3364C16.9481 3.30877 16.6333 3.62358 16.6333 4.0119C16.6333 4.40021 16.9481 4.71502 17.3364 4.71502H19.9881C20.3764 4.71502 20.6912 4.40021 20.6912 4.0119V1.36027C20.6912 0.971958 20.3764 0.657145 19.9881 0.657145C19.5997 0.657145 19.2849 0.971958 19.2849 1.36027V2.46375C17.2001 0.863911 14.6614 -0.00224563 11.9896 4.37253e-06C8.80636 0.00267625 5.76558 1.26385 3.51469 3.51474C1.24819 5.78124 0 8.79469 0 12C0 14.1518 0.577125 16.2635 1.66903 18.1069C1.86694 18.441 2.29823 18.5514 2.63231 18.3535C2.96639 18.1556 3.07683 17.7243 2.87892 17.3902C1.9155 15.7636 1.40625 13.8998 1.40625 12Z" fill="var(--fill-0, #F2C744)"/>
</g>
</svg>
