<svg preserveAspectRatio="none" width="100%" height="100%" overflow="visible" style="display: block;" viewBox="0 0 24 24.0001" fill="none" xmlns="http://www.w3.org/2000/svg">
<g id="Layer 10">
<path id="Vector" d="M19.8656 2.54543C19.9908 2.91402 20.1991 3.24887 20.4744 3.52409C20.7497 3.7993 21.0847 4.00752 21.4533 4.13262C20.9925 4.63043 20.4909 5.13996 20.0245 5.58199C19.5352 5.50324 19.0528 5.43152 18.6291 5.36918C18.5667 4.9473 18.495 4.46355 18.4163 3.97418C18.8588 3.50543 19.3683 3.00574 19.8656 2.54543ZM20.4581 0.000117283C20.2371 -0.00326568 20.0212 0.0666203 19.8441 0.198867C18.8639 0.995742 17.6198 2.19293 16.7747 3.12527C16.6116 3.3048 16.545 3.5748 16.5895 3.84293C16.703 4.51512 16.8023 5.18965 16.898 5.84121L11.3695 11.3687C11.2031 11.5359 11.1097 11.7622 11.11 11.9981C11.1102 12.234 11.204 12.4601 11.3708 12.6269C11.5376 12.7937 11.7638 12.8876 11.9997 12.8878C12.2356 12.888 12.4619 12.7947 12.6291 12.6282L18.157 7.10074C18.8086 7.19449 19.4836 7.29527 20.1558 7.40871C20.2095 7.41764 20.2639 7.42218 20.3184 7.4223C20.5216 7.42676 20.7193 7.35597 20.8734 7.22356C21.8058 6.37981 23.002 5.13434 23.7998 4.15418C24.1598 3.69574 24.0159 2.86277 23.4867 2.74793C23.0597 2.65137 22.6022 2.56043 22.1273 2.47277C21.9785 2.44455 21.8417 2.37218 21.7346 2.26508C21.6275 2.15798 21.5551 2.02111 21.5269 1.8723C21.4387 1.39699 21.3483 0.939492 21.2517 0.51293C21.1791 0.180586 20.8252 0.000117283 20.4581 0.000117283Z" fill="var(--fill-0, #F2C744)"/>
<path id="Vector_2" d="M12 24.0001C18.6277 24.0001 24 18.6278 24 12.0001C24.0023 10.2952 23.64 8.60958 22.9373 7.05622C22.5356 7.46309 22.1311 7.85309 21.7547 8.19528C21.6901 8.25347 21.6218 8.30748 21.5503 8.357C22.086 9.75794 22.3067 11.2596 22.197 12.7554C22.0872 14.2513 21.6496 15.7046 20.9152 17.0123C20.1808 18.3201 19.1676 19.4502 17.9475 20.3225C16.7274 21.1948 15.3303 21.7879 13.8553 22.0597C12.3803 22.3315 10.8635 22.2754 9.41262 21.8953C7.96173 21.5153 6.61225 20.8206 5.45994 19.8605C4.30762 18.9004 3.3807 17.6986 2.74495 16.3401C2.10919 14.9817 1.78018 13.5 1.78125 12.0001C1.78247 10.3447 2.18562 8.71428 2.95606 7.24904C3.7265 5.7838 4.84118 4.52754 6.20432 3.58821C7.56747 2.64888 9.1383 2.05457 10.7818 1.85636C12.4254 1.65815 14.0925 1.86196 15.6398 2.45028C15.6894 2.37782 15.7437 2.30876 15.8025 2.24356C16.1428 1.86856 16.5333 1.46356 16.9402 1.06231C15.3879 0.360526 13.7036 -0.00161422 12 0.000123507C5.37281 0.000123507 0 5.37387 0 12.0001C0 18.6264 5.37281 24.0001 12 24.0001Z" fill="var(--fill-0, #F2C744)"/>
<path id="Vector_3" d="M12 6.34934C12.7275 6.34823 13.4484 6.48782 14.123 6.76043L15.4613 5.42262C13.8884 4.59536 12.071 4.35938 10.339 4.75752C8.60699 5.15566 7.0751 6.16152 6.02132 7.59257C4.96754 9.02362 4.4617 10.785 4.5956 12.5572C4.7295 14.3293 5.49426 15.9947 6.75111 17.2512C8.00795 18.5076 9.67359 19.2719 11.4458 19.4053C13.2179 19.5386 14.9792 19.0323 16.4099 17.978C17.8407 16.9238 18.8461 15.3916 19.2437 13.6595C19.6413 11.9274 19.4048 10.1101 18.577 8.53746L17.2392 9.87527C17.695 10.9974 17.7784 12.2363 17.4771 13.4094C17.1758 14.5825 16.5057 15.6278 15.5656 16.3914C14.6254 17.155 13.4649 17.5965 12.2549 17.6508C11.045 17.7052 9.84953 17.3695 8.84471 16.6933C7.83989 16.017 7.07879 15.036 6.67354 13.8946C6.26828 12.7532 6.24028 11.5119 6.59366 10.3534C6.94704 9.19492 7.66312 8.18055 8.63643 7.45969C9.60974 6.73883 10.7888 6.34961 12 6.34934Z" fill="var(--fill-0, #F2C744)"/>
</g>
</svg>
