<svg preserveAspectRatio="none" width="100%" height="100%" overflow="visible" style="display: block;" viewBox="0 0 14.9134 21.4845" fill="none" xmlns="http://www.w3.org/2000/svg">
<g id="Group">
<path id="Vector" d="M7.44385 12.2695C7.61397 12.2695 7.75187 12.1316 7.75187 11.9615C7.75187 11.7914 7.61397 11.6535 7.44385 11.6535C7.27374 11.6535 7.13583 11.7914 7.13583 11.9615C7.13583 12.1316 7.27374 12.2695 7.44385 12.2695Z" fill="var(--fill-0, #F2C744)"/>
<path id="Vector_2" d="M7.44385 13.5273C7.61397 13.5273 7.75187 13.3894 7.75187 13.2193C7.75187 13.0491 7.61397 12.9112 7.44385 12.9112C7.27374 12.9112 7.13583 13.0491 7.13583 13.2193C7.13583 13.3894 7.27374 13.5273 7.44385 13.5273Z" fill="var(--fill-0, #F2C744)"/>
<path id="Vector_3" d="M9.67701 10.0107L11.7305 8.1369C12.9369 7.05882 13.5273 5.59572 13.5529 3.64492V2.02781H14.554C14.7337 2.02781 14.862 1.8738 14.862 1.69412V0.308021C14.862 0.128342 14.708 0 14.5283 0H0.308022C0.128342 0 0 0.154011 0 0.308021V1.69412C0 1.8738 0.154011 2.00214 0.308022 2.00214H1.30909V3.64492C1.33476 5.57005 1.92513 7.05882 3.13155 8.1369L5.18503 10.0107C5.62139 10.3957 5.80107 11.1401 5.15936 11.7305L3.13155 13.5786C1.92513 14.6567 1.33476 16.1198 1.30909 18.0706V19.4824H0.308022C0.128342 19.4824 0 19.6364 0 19.7904V21.1765C0 21.3561 0.154011 21.4845 0.308022 21.4845H14.5797C14.7594 21.4845 14.9134 21.3561 14.9134 21.1765V19.816C14.9134 19.6364 14.7594 19.508 14.5797 19.508H13.5786V18.0706C13.5529 16.1455 12.9626 14.6567 11.7561 13.5786L9.72834 11.7305C9.47166 11.4738 9.26631 11.2171 9.24064 10.8578C9.24064 10.5241 9.42032 10.216 9.67701 10.0107ZM0.616043 0.616043H14.246V1.36043H0.616043V0.616043ZM14.246 20.8684H0.616043L0.641711 20.1241H14.246V20.8684ZM8.57326 10.8578C8.57326 11.3968 8.82995 11.8075 9.26631 12.1925L11.2941 14.0406C12.3722 15.016 12.8856 16.2995 12.9112 18.0706V19.4824H1.9508V18.0449C1.97647 16.2738 2.48984 14.9904 3.56791 14.015L5.59572 12.1668C6.34011 11.4481 6.59679 10.4214 5.62139 9.49733L3.56791 7.62353C2.48984 6.64813 1.97647 5.36471 1.9508 3.59358V1.97647H12.9112V3.64492C12.8856 5.41604 12.3722 6.69947 11.2941 7.67487C11.0631 7.88021 9.24064 9.57433 9.24064 9.57433C8.80428 9.93369 8.59893 10.3444 8.57326 10.8578Z" fill="var(--fill-0, #F2C744)"/>
<path id="Vector_4" d="M11.6535 6.21176C11.7305 6.08342 11.7305 5.92941 11.6278 5.82674C11.5251 5.72406 11.3711 5.6984 11.2428 5.7754C9.98503 6.41711 9.49733 6.6738 7.54652 6.03209C6.28877 5.62139 4.92834 5.72406 3.72193 6.28877C3.51658 6.39144 3.49091 6.64813 3.61925 6.80214C3.74759 6.93048 6.54545 9.6 6.57112 9.62567C6.77647 9.85668 6.90481 10.1647 6.93048 10.4727C6.95615 10.7037 7.1615 10.9091 7.46952 10.9091C7.46952 10.9091 7.80321 10.9348 7.95722 10.6011C8.05989 10.3701 8.2139 9.77968 8.54759 9.44599C8.59893 9.42032 10.6267 7.46952 10.8834 7.21283C11.1914 6.90481 11.4481 6.57112 11.6535 6.21176ZM8.08556 8.93262C7.77754 9.1893 7.57219 9.52299 7.44385 9.90802C7.36685 9.62567 7.21283 9.34332 6.98182 9.13797C6.87915 9.03529 5.15936 7.39251 4.41497 6.6738C5.36471 6.34011 6.39144 6.31444 7.34118 6.62246C8.72727 7.05882 9.49733 7.11016 10.2417 6.87914C9.83102 7.26417 8.08556 8.93262 8.08556 8.93262Z" fill="var(--fill-0, #F2C744)"/>
<path id="Vector_5" d="M3.02888 18.4813C3.02888 18.661 3.18289 18.7893 3.3369 18.7893H11.5251C11.7048 18.7893 11.8332 18.6353 11.8332 18.4556C11.7818 16.0941 9.88235 14.1947 7.52086 14.1433C5.10802 14.092 3.08021 16.0171 3.02888 18.4813ZM11.1914 18.1476H3.67059C3.8246 16.3251 5.2877 14.862 7.11016 14.708C9.18931 14.5283 11.0118 16.0684 11.1914 18.1476Z" fill="var(--fill-0, #F2C744)"/>
</g>
</svg>
