<svg preserveAspectRatio="none" width="100%" height="100%" overflow="visible" style="display: block;" viewBox="0 0 20 23.9998" fill="none" xmlns="http://www.w3.org/2000/svg">
<g id="Group">
<path id="Vector" d="M10 23.9998C9.957 23.9998 9.914 23.9948 9.873 23.9828C9.774 23.9578 0 21.2798 0 12.1788V3.99975C0 3.79075 0.131 3.60275 0.327 3.53075L9.827 0.03075C9.938 -0.01025 10.061 -0.01025 10.173 0.03075L19.673 3.53075C19.869 3.60275 20 3.79075 20 3.99975V12.1788C20 21.2808 10.226 23.9578 10.127 23.9838C10.086 23.9948 10.043 23.9998 10 23.9998ZM1 4.34875V12.1788C1 20.0608 8.85 22.6448 10 22.9808C11.15 22.6448 19 20.0608 19 12.1788V4.34875L10 1.03275L1 4.34875Z" fill="var(--fill-0, #F2C744)"/>
</g>
</svg>
