<svg preserveAspectRatio="none" width="100%" height="100%" overflow="visible" style="display: block;" viewBox="0 0 11.0046 14.0002" fill="none" xmlns="http://www.w3.org/2000/svg">
<g id="Group">
<path id="Vector" d="M5.44347 14.0002C4.60547 14.0002 3.78047 13.8072 3.03947 13.4222C0.898474 12.3142 -0.248526 10.1312 0.0454737 7.72718C0.161474 6.77218 0.437474 5.40518 1.47647 4.55418C1.71447 4.35818 2.03947 4.29618 2.33347 4.38718C2.64647 4.48218 2.89047 4.72618 2.98647 5.04018C3.07147 5.31718 3.16947 5.54718 3.29647 5.75018C3.50147 4.03618 4.31747 1.89218 6.15047 0.244184C6.40847 0.012184 6.77147 -0.0628161 7.09847 0.0551839C7.43247 0.174184 7.67447 0.469184 7.72947 0.823184C7.92347 2.06518 8.58747 3.04918 9.29147 4.09018C10.4565 5.81318 11.6595 7.59518 10.5895 10.5112C10.0725 11.9162 8.93747 13.0482 7.47347 13.6162C6.81247 13.8732 6.12447 14.0002 5.44347 14.0002ZM2.02947 5.33218C1.53047 5.80218 1.18947 6.60318 1.03747 7.84818C0.792474 9.85718 1.71247 11.6092 3.49847 12.5352C4.58847 13.0992 5.90447 13.1542 7.11047 12.6852C8.30647 12.2202 9.23147 11.3032 9.64847 10.1672C10.5435 7.73118 9.57947 6.30418 8.46147 4.65018C7.72747 3.56418 6.96847 2.44118 6.73947 0.977184C4.78847 2.81218 4.16547 5.30818 4.24847 6.89018C4.25947 7.08318 4.15747 7.26418 3.98747 7.35618C3.82047 7.44818 3.61147 7.43518 3.45547 7.32118C2.71047 6.77818 2.29747 6.20218 2.02947 5.33218Z" fill="var(--fill-0, #F2C744)"/>
</g>
</svg>
