<svg preserveAspectRatio="none" width="100%" height="100%" overflow="visible" style="display: block;" viewBox="0 0 21.1816 21.8824" fill="none" xmlns="http://www.w3.org/2000/svg">
<g id="Group">
<path id="Vector" d="M15.6316 12.7624V2.67882C15.6316 1.94118 15.3316 1.27055 14.8481 0.787059C14.3646 0.3 13.6975 0 12.9599 0C11.481 0 10.281 1.2 10.281 2.67882V12.7624C8.91162 13.6447 8.00809 15.1835 8.00809 16.9306C8.00809 19.6659 10.2246 21.8824 12.9599 21.8824C15.6916 21.8824 17.9081 19.6659 17.9081 16.9306C17.9081 15.1835 17.001 13.6447 15.6316 12.7624ZM12.9599 20.3012C11.0999 20.3012 9.58927 18.7906 9.58927 16.9306C9.58927 14.9673 10.9951 14.1861 11.8622 13.6235V6.68471H14.0504V13.6235C14.7386 14.07 16.3234 14.8669 16.3234 16.9306C16.3234 18.7906 14.8128 20.3012 12.9599 20.3012Z" fill="var(--fill-0, #F2C744)"/>
<path id="Vector_2" d="M17.666 3.00805H20.8287C21.0236 3.00805 21.1816 2.85 21.1816 2.65511C21.1816 2.46021 21.0236 2.30217 20.8287 2.30217H17.666C17.4711 2.30217 17.3131 2.46021 17.3131 2.65511C17.3131 2.85 17.4711 3.00805 17.666 3.00805Z" fill="var(--fill-0, #F2C744)"/>
<path id="Vector_3" d="M17.666 4.65713H19.2708C19.4657 4.65713 19.6237 4.49908 19.6237 4.30419C19.6237 4.10929 19.4657 3.95125 19.2708 3.95125H17.666C17.4711 3.95125 17.3131 4.10929 17.3131 4.30419C17.3131 4.49908 17.4711 4.65713 17.666 4.65713Z" fill="var(--fill-0, #F2C744)"/>
<path id="Vector_4" d="M20.8287 5.60033H17.666C17.4711 5.60033 17.3131 5.75838 17.3131 5.95327C17.3131 6.14816 17.4711 6.30621 17.666 6.30621H20.8287C21.0236 6.30621 21.1816 6.14816 21.1816 5.95327C21.1816 5.75838 21.0236 5.60033 20.8287 5.60033Z" fill="var(--fill-0, #F2C744)"/>
<path id="Vector_5" d="M17.666 7.95526H19.2708C19.4657 7.95526 19.6237 7.79721 19.6237 7.60232C19.6237 7.40742 19.4657 7.24938 19.2708 7.24938H17.666C17.4711 7.24938 17.3131 7.40742 17.3131 7.60232C17.3131 7.79721 17.4711 7.95526 17.666 7.95526Z" fill="var(--fill-0, #F2C744)"/>
<path id="Vector_6" d="M20.8287 8.89828H17.666C17.4711 8.89828 17.3131 9.05633 17.3131 9.25122C17.3131 9.44612 17.4711 9.60416 17.666 9.60416H20.8287C21.0236 9.60416 21.1816 9.44612 21.1816 9.25122C21.1816 9.05633 21.0236 8.89828 20.8287 8.89828Z" fill="var(--fill-0, #F2C744)"/>
<path id="Vector_7" d="M5.60731 7.42685C6.45457 6.57959 6.45457 5.20591 5.60731 4.35864C4.76004 3.51138 3.38636 3.51138 2.53909 4.35864C1.69183 5.2059 1.69183 6.57959 2.53909 7.42685C3.38636 8.27412 4.76004 8.27412 5.60731 7.42685Z" fill="var(--fill-0, #F2C744)"/>
<path id="Vector_8" d="M4.07329 2.88124C4.26819 2.88124 4.42624 2.72319 4.42624 2.52829V2.17136C4.42624 1.97647 4.26819 1.81842 4.07329 1.81842C3.8784 1.81842 3.72035 1.97647 3.72035 2.17136V2.52826C3.72035 2.72319 3.87836 2.88124 4.07329 2.88124Z" fill="var(--fill-0, #F2C744)"/>
<path id="Vector_9" d="M2.08592 3.1554C2.18428 3.32545 2.40092 3.38121 2.56811 3.28465C2.73699 3.18709 2.79473 2.97116 2.69735 2.80246L2.5188 2.49328C2.42093 2.3244 2.20532 2.26631 2.03661 2.36404C1.86773 2.46159 1.80999 2.67752 1.90736 2.84622L2.08592 3.1554Z" fill="var(--fill-0, #F2C744)"/>
<path id="Vector_10" d="M1.33698 3.90438L1.0278 3.72582C0.858741 3.62809 0.642988 3.68619 0.545612 3.85507C0.448235 4.02378 0.505976 4.23971 0.674859 4.33726L0.984035 4.51581C1.15122 4.61238 1.36789 4.55661 1.46622 4.38656C1.5636 4.21786 1.50586 4.00189 1.33698 3.90438Z" fill="var(--fill-0, #F2C744)"/>
<path id="Vector_11" d="M1.06278 5.89172C1.06278 5.69682 0.904729 5.53878 0.709835 5.53878H0.352941C0.158047 5.53878 0 5.69682 0 5.89172C0 6.08661 0.158047 6.24466 0.352941 6.24466H0.709835C0.904765 6.24466 1.06278 6.08665 1.06278 5.89172Z" fill="var(--fill-0, #F2C744)"/>
<path id="Vector_12" d="M0.984035 7.26784L0.674859 7.44639C0.505976 7.54394 0.448235 7.75987 0.545612 7.92858C0.643976 8.09862 0.860612 8.15439 1.0278 8.05782L1.33698 7.87927C1.50586 7.78172 1.5636 7.56579 1.46622 7.39708C1.36867 7.2282 1.15274 7.17011 0.984035 7.26784Z" fill="var(--fill-0, #F2C744)"/>
<path id="Vector_13" d="M2.56811 8.49896C2.39905 8.40141 2.18347 8.45933 2.08592 8.62821L1.90736 8.93739C1.80999 9.10609 1.86773 9.32202 2.03661 9.41958C2.2038 9.51614 2.42047 9.46038 2.5188 9.29033L2.69735 8.98115C2.79473 8.81245 2.73702 8.59652 2.56811 8.49896Z" fill="var(--fill-0, #F2C744)"/>
<path id="Vector_14" d="M4.07329 8.90241C3.8784 8.90241 3.72035 9.06046 3.72035 9.25535V9.61225C3.72035 9.80714 3.8784 9.96519 4.07329 9.96519C4.26819 9.96519 4.42624 9.80714 4.42624 9.61225V9.25535C4.42624 9.06046 4.26819 8.90241 4.07329 8.90241Z" fill="var(--fill-0, #F2C744)"/>
<path id="Vector_15" d="M6.06081 8.62825C5.96326 8.45936 5.74715 8.40145 5.57862 8.499C5.40974 8.59655 5.352 8.81248 5.44938 8.98119L5.62793 9.29036C5.72629 9.46041 5.94293 9.51618 6.11012 9.41961C6.279 9.32206 6.33674 9.10613 6.23936 8.93742L6.06081 8.62825Z" fill="var(--fill-0, #F2C744)"/>
<path id="Vector_16" d="M7.47191 7.44635L7.16273 7.2678C6.99367 7.17007 6.77774 7.22816 6.68054 7.39705C6.58316 7.56575 6.64091 7.78168 6.80979 7.87923L7.11896 8.05779C7.28615 8.15435 7.50282 8.09859 7.60115 7.92854C7.69853 7.75983 7.64079 7.54391 7.47191 7.44635Z" fill="var(--fill-0, #F2C744)"/>
<path id="Vector_17" d="M8.14676 5.89172C8.14676 5.69682 7.98872 5.53878 7.79382 5.53878H7.43675C7.24186 5.53878 7.08381 5.69682 7.08381 5.89172C7.08381 6.08661 7.24186 6.24466 7.43675 6.24466H7.79382C7.98872 6.24466 8.14676 6.08665 8.14676 5.89172Z" fill="var(--fill-0, #F2C744)"/>
<path id="Vector_18" d="M7.16273 4.51581L7.47191 4.33726C7.64079 4.23971 7.69853 4.02378 7.60115 3.85507C7.5036 3.68619 7.28767 3.62809 7.11896 3.72582L6.80979 3.90438C6.64091 4.00193 6.58316 4.21786 6.68054 4.38656C6.77891 4.55661 6.99554 4.61238 7.16273 4.51581Z" fill="var(--fill-0, #F2C744)"/>
<path id="Vector_19" d="M6.11012 2.36404C5.94106 2.26631 5.72548 2.3244 5.62793 2.49328L5.44938 2.80246C5.352 2.97116 5.40974 3.18709 5.57862 3.28465C5.74581 3.38121 5.96248 3.32545 6.06081 3.1554L6.23936 2.84622C6.33674 2.67752 6.279 2.46159 6.11012 2.36404Z" fill="var(--fill-0, #F2C744)"/>
</g>
</svg>
