<svg xmlns="http://www.w3.org/2000/svg" width="80" height="31" viewBox="0 0 80 31" fill="none">
  <path d="M12.3709 15.222H15.8112V20.0776C14.7378 20.4242 13.3824 20.6143 11.9735 20.6143C6.26338 20.6143 2.90735 15.7007 2.90735 10.9019C2.90735 6.19532 5.94294 2.89394 10.178 2.89394C12.8579 2.89394 14.4172 3.80624 15.8122 5.07704V6.66124L18.428 4.03271C16.7735 2.90788 14.3777 1.83887 10.9534 1.83887C3.43607 1.83887 0 7.24309 0 11.6843C0 18.006 4.58217 21.8143 10.3404 21.8143C13.1325 21.8143 15.6115 21.386 18.4751 20.5853V15.5686C18.4751 15.3121 18.5873 15.1361 18.7549 14.9815L19.6586 14.0735H13.5223L12.3709 15.222Z" fill="url(#paint0_linear_16974_44915)"/>
  <path d="M27.7813 8.62354C23.4544 8.62354 20.7734 11.8006 20.7734 15.173C20.7734 18.0838 22.9332 21.5398 27.3092 21.5398C31.5186 21.5398 34.1012 18.3564 34.1012 14.9251C34.1012 11.7287 31.5773 8.62471 27.7813 8.62471V8.62354ZM27.0634 9.54982C30.114 9.54982 31.4725 13.5436 31.4725 16.3922C31.4725 20.6285 28.3099 20.7122 27.9318 20.7122C26.4845 20.7122 25.473 19.8333 24.7158 18.6804C24.0493 17.618 23.3978 15.6441 23.3978 13.7153C23.3978 11.7941 24.0236 10.856 25.0085 10.1659C25.8138 9.64856 26.5679 9.54982 27.0623 9.54982H27.0634Z" fill="url(#paint1_linear_16974_44915)"/>
  <path d="M56.0673 8.62207C52.2882 8.62207 50.2439 11.0263 50.2439 13.7106C50.2439 15.7542 51.7007 18.0597 54.7064 18.0597H55.4668C55.4668 18.0597 55.2597 18.5652 55.2586 19.0536C55.2586 19.7739 55.516 20.1784 56.0628 20.8009C50.891 21.1175 48.8125 23.2137 48.8125 25.4666C48.8125 27.4395 50.6925 29.3811 54.6433 29.3811C59.3205 29.3811 61.743 26.7717 61.743 24.2109C61.743 22.4056 60.8479 21.416 58.5814 19.7095C57.9149 19.1889 57.7856 18.8574 57.7856 18.4678C57.7856 17.9097 58.1178 17.5403 58.2396 17.4009C58.4543 17.1733 58.826 16.9136 58.9648 16.7891C59.7264 16.1408 60.802 15.1814 60.802 13.2665C60.802 11.9528 60.2582 10.8226 59.0193 9.7643H60.5318L61.6682 8.62231H56.0673V8.62207ZM55.0248 9.47642C55.7106 9.47642 56.2829 9.72009 56.8875 10.2256C57.5582 10.8331 58.6297 12.4656 58.6297 14.4856C58.6297 16.6655 56.9442 17.2622 56.032 17.2622C55.5855 17.2622 55.0506 17.1367 54.5976 16.8254C53.5914 16.1697 52.5926 14.4244 52.5926 12.3475C52.5926 10.4735 53.7035 9.47642 55.0248 9.47642ZM56.5212 21.6285C56.8095 21.6285 57.0168 21.6522 57.0168 21.6522C57.0168 21.6522 57.6972 22.1405 58.1725 22.5053C59.2791 23.3844 59.969 24.0563 59.969 25.2531C59.969 26.8985 58.4501 28.1886 55.9902 28.1886C53.2902 28.1886 51.2265 26.9253 51.2265 24.8625C51.2265 23.1537 52.6407 21.6831 56.5212 21.6285Z" fill="url(#paint2_linear_16974_44915)"/>
  <path d="M62.4858 21.1627H67.6735L68.4639 20.3686L66.976 20.1818C66.5754 20.1325 66.3373 19.7847 66.3373 19.4477V3.70118C66.3373 3.39099 66.4805 3.23214 66.5851 3.13114L67.5208 2.19092H63.0967L61.9453 3.34795H63.6649V19.659C63.6649 19.8909 63.5923 20.0486 63.4364 20.2107L62.4858 21.1627Z" fill="url(#paint3_linear_16974_44915)"/>
  <path d="M74.7005 8.62354C71.8038 8.62354 68.7266 10.8421 68.7266 14.8251C68.7266 18.1147 70.9343 21.5398 75.0594 21.5398C76.0879 21.5398 76.935 21.4068 77.7286 21.0408C78.5798 20.6469 79.3991 20.0072 79.9971 19.2033C78.8682 19.7753 77.9475 20.151 76.7244 20.151C74.4002 20.151 72.1593 18.4659 71.3753 15.3683L79.5859 12.0335C79.1116 10.3345 77.7744 8.62354 74.7015 8.62354H74.7005ZM74.1642 9.53477C75.7184 9.53477 76.8419 10.8195 76.8419 11.8252C76.8419 12.1504 76.6391 12.3222 76.2374 12.481L71.1906 14.5321C71.1906 14.5321 71.054 13.8935 71.054 13.2034C71.054 10.3086 73.1368 9.53477 74.1642 9.53477Z" fill="url(#paint4_linear_16974_44915)"/>
  <path d="M42.461 8.62354C38.1341 8.62354 35.4531 11.8006 35.4531 15.173C35.4531 18.0838 37.6129 21.5398 41.9889 21.5398C46.1983 21.5398 48.7809 18.3564 48.7809 14.9251C48.7809 11.7287 46.257 8.62471 42.461 8.62471V8.62354ZM41.7431 9.54982C44.7937 9.54982 46.1522 13.5436 46.1522 16.3922C46.1522 20.6285 42.9896 20.7122 42.6115 20.7122C41.1642 20.7122 40.1527 19.8333 39.3955 18.6804C38.729 17.618 38.0774 15.6441 38.0774 13.7153C38.0774 11.7941 38.7033 10.856 39.6882 10.1659C40.4935 9.64856 41.2476 9.54982 41.742 9.54982H41.7431Z" fill="url(#paint5_linear_16974_44915)"/>
  <defs>
    <linearGradient id="paint0_linear_16974_44915" x1="9.78041" y1="1.78232" x2="9.78041" y2="21.8132" gradientUnits="userSpaceOnUse">
      <stop stop-color="#196EEF"/>
      <stop offset="0.5" stop-color="#186DEE"/>
      <stop offset="1" stop-color="#1065E7"/>
    </linearGradient>
    <linearGradient id="paint1_linear_16974_44915" x1="27.3889" y1="8.59294" x2="27.3889" y2="21.5452" gradientUnits="userSpaceOnUse">
      <stop stop-color="#DE5744"/>
      <stop offset="0.5" stop-color="#DB4632"/>
      <stop offset="1" stop-color="#D13D29"/>
    </linearGradient>
    <linearGradient id="paint2_linear_16974_44915" x1="55.2302" y1="8.59255" x2="55.2302" y2="29.389" gradientUnits="userSpaceOnUse">
      <stop stop-color="#1A6FEF"/>
      <stop offset="0.25" stop-color="#1E72EF"/>
      <stop offset="0.5" stop-color="#166BEC"/>
      <stop offset="0.75" stop-color="#1267E9"/>
      <stop offset="1" stop-color="#1063E5" stop-opacity="0.87"/>
    </linearGradient>
    <linearGradient id="paint3_linear_16974_44915" x1="65.1573" y1="2.14626" x2="65.1573" y2="21.181" gradientUnits="userSpaceOnUse">
      <stop stop-color="#0AA561"/>
      <stop offset="0.5" stop-color="#009B58"/>
      <stop offset="1" stop-color="#00914B"/>
    </linearGradient>
    <linearGradient id="paint4_linear_16974_44915" x1="74.3148" y1="8.59294" x2="74.3148" y2="21.5095" gradientUnits="userSpaceOnUse">
      <stop stop-color="#DE5644"/>
      <stop offset="0.5" stop-color="#DA4531"/>
      <stop offset="1" stop-color="#CE3A28"/>
    </linearGradient>
    <linearGradient id="paint5_linear_16974_44915" x1="42.0689" y1="8.62107" x2="42.0689" y2="21.5195" gradientUnits="userSpaceOnUse">
      <stop stop-color="#FFC01A"/>
      <stop offset="0.5" stop-color="#FFBA03"/>
      <stop offset="1" stop-color="#FFB300"/>
    </linearGradient>
  </defs>
</svg>