<svg preserveAspectRatio="none" width="100%" height="100%" overflow="visible" style="display: block;" viewBox="0 0 31.9957 27.7443" fill="none" xmlns="http://www.w3.org/2000/svg">
<g id="Group">
<path id="Vector" fill-rule="evenodd" clip-rule="evenodd" d="M13.8722 27.7443C6.22003 27.7443 0 21.5235 0 13.8722C0 6.22077 6.22003 0 13.8722 0C17.3808 0 20.6739 1.27412 23.2391 3.62601C22.3841 4.13297 21.5598 4.69005 20.7706 5.29433C18.8177 3.71718 16.3823 2.85874 13.8722 2.86272C7.80788 2.86272 2.86272 7.80788 2.86272 13.8722C2.86272 19.9364 7.80788 24.8809 13.8722 24.8809C22.3097 24.8809 27.3191 15.8616 23.6901 8.84948C24.404 8.1854 25.1433 7.5491 25.9062 6.94198C27.1205 9.03845 27.7443 11.4162 27.7443 13.8714C27.7443 21.5235 21.5243 27.7443 13.8722 27.7443Z" fill="var(--fill-0, #F2C744)"/>
<path id="Vector_2" fill-rule="evenodd" clip-rule="evenodd" d="M14.2368 21.0031C14.1635 21.002 14.0922 20.9792 14.0319 20.9375C13.9716 20.8959 13.925 20.8372 13.898 20.7691C13.8722 20.7174 11.6339 14.9388 8.17255 12.7523C7.49563 12.336 6.9752 11.8938 7.18337 10.9046C7.39154 9.94201 8.04189 9.395 9.21341 9.13516C11.2951 8.69224 13.5341 11.9196 14.366 13.2469C17.2819 9.00524 23.1114 2.34229 31.5962 1.56128C32.0052 1.5133 32.1572 2.1201 31.7785 2.28988C31.6486 2.34155 19.5201 7.88539 14.6008 20.7949C14.564 20.8588 14.5109 20.9117 14.447 20.9483C14.383 20.9849 14.3105 21.0038 14.2368 21.0031Z" fill="var(--fill-0, #F2C744)"/>
</g>
</svg>
